<svg xmlns="http://www.w3.org/2000/svg" viewBox="0 0 140.46 21.26"><defs><style>.cls-1{fill:#1471ce;}</style></defs><g id="Layer_2" data-name="Layer 2"><g id="Слой_1" data-name="Слой 1"><polygon class="cls-1" points="21.26 2.13 21.26 0 0 0 0 21.26 2.13 21.26 2.13 2.13 21.26 2.13"/><polygon class="cls-1" points="23.39 0 23.39 19.14 8.5 19.14 8.5 21.26 25.51 21.26 25.51 21.26 25.51 0 23.39 0"/><path class="cls-1" d="M21.26,4.25h-17v17H6.38V17H21.26ZM19.13,14.88H6.38V6.38H19.13Z"/><polygon class="cls-1" points="103.61 2.13 102.19 2.13 102.19 13.47 112.11 13.47 112.11 12.05 103.61 12.05 103.61 2.13"/><path class="cls-1" d="M119.76,2.13l-5.67,11.34h1.57l1.06-2.13h7.65l1.06,2.13H127L121.33,2.13Zm-2.33,7.79,3.11-6.23,3.12,6.23Z"/><polygon class="cls-1" points="139.04 2.13 139.04 11.48 130.54 2.13 129.12 2.13 129.12 13.47 130.54 13.47 130.54 4.11 139.04 13.47 140.46 13.47 140.46 2.13 139.04 2.13"/><path class="cls-1" d="M38.27,2.13H31.18V13.47H32.6V10.63h5.67a4.25,4.25,0,0,0,0-8.5Zm0,7.09H32.6V3.55h5.67a2.84,2.84,0,1,1,0,5.67Z"/><path class="cls-1" d="M95.11,2.13H88V13.47h1.42V10.63h5.67a4.25,4.25,0,0,0,0-8.5Zm0,7.09H89.44V3.55h5.67a2.84,2.84,0,0,1,0,5.67Z"/><path class="cls-1" d="M70.79,13.47,68.1,10.24a4.24,4.24,0,0,0-1.77-8.11H59.25V13.47h1.41V10.63H66.6L69,13.47ZM60.66,3.55h5.67a2.84,2.84,0,0,1,0,5.67H60.66Z"/><path class="cls-1" d="M31.18,17.7H34v3.5h-.61V18.25H31.8V21.2h-.62Z"/><path class="cls-1" d="M37,17.7h1.38a1.17,1.17,0,0,1,1.33,1.18,1.24,1.24,0,0,1-1.4,1.2h-.69V21.2H37Zm1.33,1.82c.47,0,.76-.26.76-.64s-.3-.62-.76-.62h-.71v1.26Z"/><path class="cls-1" d="M42.25,19.45a1.83,1.83,0,1,1,1.82,1.81A1.79,1.79,0,0,1,42.25,19.45Zm3,0a1.21,1.21,0,0,0-1.2-1.25,1.19,1.19,0,0,0-1.18,1.25,1.21,1.21,0,0,0,1.19,1.25A1.19,1.19,0,0,0,45.27,19.45Z"/><path class="cls-1" d="M48.71,17.7h2.6v.55h-2v.91h1.76v.55H49.33v.94h2v.55H48.71Z"/><path class="cls-1" d="M54.13,17.7h.61v1.76l1.67-1.76h.75l-1.45,1.51,1.52,2h-.75l-1.19-1.57-.55.56v1h-.61Z"/><path class="cls-1" d="M60.67,18.27H59.56V17.7h2.85v.57H61.29V21.2h-.62Z"/><path class="cls-1" d="M65.11,17.7h.62v1.46H67.4V17.7H68v3.5H67.4V19.73H65.73V21.2h-.62Z"/><path class="cls-1" d="M72.22,17.67h.57l1.54,3.53h-.65l-.36-.84H71.67l-.36.84h-.63Zm.88,2.14-.61-1.4-.6,1.4Z"/><path class="cls-1" d="M77.67,19.89a1.06,1.06,0,0,1-.83-1.08c0-.68.49-1.11,1.3-1.11H79.7v3.5h-.61V20h-.78l-.87,1.21h-.72Zm1.42-.43V18.25h-.9c-.46,0-.73.22-.73.6s.28.61.72.61Z"/><path class="cls-1" d="M86.22,17.7h.65l1.07,1.66L89,17.7h.65v3.5h-.61V18.69l-1.11,1.65h0l-1.1-1.64v2.5h-.6Z"/><path class="cls-1" d="M93.86,17.67h.57L96,21.2h-.65L95,20.36H93.31L93,21.2h-.63Zm.88,2.14-.6-1.4-.6,1.4Z"/><path class="cls-1" d="M98.28,19.45a1.76,1.76,0,0,1,1.8-1.81,1.85,1.85,0,0,1,1.38.54l-.4.46a1.4,1.4,0,0,0-1-.44,1.25,1.25,0,0,0,0,2.5,1.37,1.37,0,0,0,1-.46l.4.4a1.82,1.82,0,0,1-1.42.62A1.76,1.76,0,0,1,98.28,19.45Z"/><path class="cls-1" d="M105,18.27h-1.11V17.7h2.85v.57h-1.12V21.2H105Z"/><path class="cls-1" d="M109.48,17.7h2.6v.55h-2v.91h1.76v.55H110.1v.94h2v.55h-2.63Z"/><path class="cls-1" d="M114.9,17.7h1.38a1.18,1.18,0,0,1,1.33,1.18,1.24,1.24,0,0,1-1.4,1.2h-.7V21.2h-.61Zm1.33,1.82c.46,0,.75-.26.75-.64s-.29-.62-.75-.62h-.72v1.26Z"/><path class="cls-1" d="M120.14,19.45A1.77,1.77,0,0,1,122,17.64a1.81,1.81,0,0,1,1.37.54l-.39.46a1.42,1.42,0,0,0-1-.44,1.25,1.25,0,0,0,0,2.5,1.37,1.37,0,0,0,1-.46l.4.4a1.83,1.83,0,0,1-1.43.62A1.76,1.76,0,0,1,120.14,19.45Z"/><path class="cls-1" d="M126.05,17.7h.62v1.76l1.66-1.76h.76l-1.46,1.51,1.52,2h-.74l-1.2-1.57-.54.56v1h-.62Z"/><path class="cls-1" d="M133,17.67h.57l1.54,3.53h-.65l-.36-.84h-1.65l-.36.84h-.63Zm.88,2.14-.61-1.4-.6,1.4Z"/><path class="cls-1" d="M138.43,19.89a1.06,1.06,0,0,1-.83-1.08c0-.68.49-1.11,1.3-1.11h1.56v3.5h-.61V20h-.78l-.87,1.21h-.72Zm1.42-.43V18.25H139c-.46,0-.73.22-.73.6s.28.61.72.61Z"/><polygon class="cls-1" points="55.7 3.55 55.7 2.13 45.36 2.13 45.36 13.47 55.7 13.47 55.7 12.05 46.77 12.05 46.77 8.51 55.14 8.51 55.14 7.09 46.77 7.09 46.77 3.55 55.7 3.55"/><polygon class="cls-1" points="84.48 3.55 84.48 2.13 74.13 2.13 74.13 13.47 84.48 13.47 84.48 12.05 75.55 12.05 75.55 8.51 83.91 8.51 83.91 7.09 75.55 7.09 75.55 3.55 84.48 3.55"/></g></g></svg>