<svg width="135" height="89" viewBox="0 0 135 89" fill="none" xmlns="http://www.w3.org/2000/svg">
<path d="M26.0015 3.1356C24.5015 2.08545 23.7715 1.98565 23.0015 1.58545C15.0915 -0.0145508 9.49145 1.3056 4.27145 10.0856C2.74145 12.6756 1.34145 15.3056 1.05145 18.3456C0.541453 23.7356 3.89145 26.6556 8.05145 29.1056C11.3015 31.0356 14.8015 32.4556 17.8815 34.7556C20.2715 36.5677 22.2004 38.918 23.5115 41.6156C25.9466 46.4289 29.9105 50.2979 34.7815 52.6156C37.1515 53.8156 39.1415 55.7356 41.3215 57.2856C41.7163 57.5073 42.1359 57.6818 42.5715 57.8056" stroke="#1271CD" stroke-width="2" stroke-linecap="round" stroke-linejoin="round"/>
<path d="M130.791 64.1357C132.425 65.9495 133.471 68.2157 133.791 70.6357C133.912 72.0486 133.724 73.4708 133.241 74.8039C132.758 76.1369 131.99 77.3489 130.991 78.3557C126.991 82.7757 121.691 84.7757 115.991 86.1757C111.407 87.2238 106.683 87.531 102.001 87.0857C96.3615 86.6457 90.7515 85.6757 86.0015 82.1657" stroke="#1271CD" stroke-width="2" stroke-linecap="round" stroke-linejoin="round"/>
<path d="M59.0016 74.3855C59.0553 73.2376 58.8326 72.0934 58.3524 71.0494C57.8721 70.0053 57.1482 69.0918 56.2416 68.3855C55.9345 68.1346 55.5718 67.961 55.1837 67.8792C54.7957 67.7974 54.3938 67.8099 54.0116 67.9155C53.0116 68.2655 53.1516 69.3155 53.2716 70.1155C53.3792 71.0509 53.679 71.954 54.1522 72.7679C54.6255 73.5819 55.2619 74.2893 56.0216 74.8455C57.8816 76.1555 59.9116 75.1055 61.4516 74.2955C68.4216 70.6555 75.2216 66.7555 82.0016 62.8455C83.0724 62.3875 84.097 61.8283 85.0616 61.1755C87.0616 59.4555 87.5216 58.4655 86.5216 56.1755C85.9372 54.83 85.079 53.621 84.0016 52.6255C83.5421 52.1947 82.9588 51.9195 82.3342 51.8387C81.7096 51.7579 81.0754 51.8758 80.5216 52.1755C78.6716 53.0755 76.9716 54.2555 75.2416 55.2955C69.0216 51.5855 62.7816 47.8255 56.4916 44.1455C48.7616 39.6255 41.2116 34.8255 33.6516 30.0255C32.8096 29.6078 32.1223 28.9331 31.689 28.099C31.2558 27.2649 31.0991 26.3146 31.2416 25.3855C31.3116 24.3033 31.3116 23.2177 31.2416 22.1355C30.7916 17.7155 32.7616 14.8555 36.7416 13.1355C38.4033 12.3568 39.9188 11.2981 41.2216 10.0055C41.8152 9.44996 42.5573 9.07864 43.3579 8.93663C44.1585 8.79462 44.983 8.88804 45.7316 9.20554C53.3916 12.9955 61.0016 16.8455 68.5216 20.9155C75.1116 24.4955 81.5216 28.3855 88.0416 32.1355" stroke="#1271CD" stroke-width="2" stroke-linecap="round" stroke-linejoin="round"/>
<path d="M100.541 34.6357C98.6215 33.5457 96.6815 32.5057 94.7915 31.3657C94.2469 30.9919 93.6103 30.7746 92.9508 30.7376C92.2914 30.7006 91.6344 30.8452 91.0515 31.1557C87.5115 33.0857 83.9315 34.9757 80.5715 37.1557C79.5076 37.8806 78.6226 38.8381 77.9833 39.9555C77.344 41.073 76.9672 42.3211 76.8815 43.6057C76.5243 47.0255 76.5645 50.4751 77.0015 53.8857" stroke="#1271CD" stroke-width="2" stroke-linecap="round" stroke-linejoin="round"/>
<path d="M119.542 52.1357C119.892 53.2357 119.972 53.9957 118.542 54.6957C115.602 56.1557 112.882 58.0357 109.992 59.6057C109.107 60.0768 108.124 60.3307 107.122 60.3464C106.121 60.362 105.13 60.139 104.232 59.6957C99.3815 57.6957 94.9215 54.8957 89.7915 53.5057C88.2815 53.0857 87.2015 51.0857 86.7115 49.7257C89.0015 43.0857 95.5715 41.8857 100.402 38.3257C103.072 40.0757 106.132 41.5057 108.402 43.7157C111.445 46.4884 114.801 48.8979 118.402 50.8957C121.212 52.5357 121.301 54.2157 121.271 56.6357C121.271 57.2957 121.522 57.9657 121.492 58.6357C121.312 63.3157 121.022 63.7057 116.002 66.3857C114.544 67.0479 113.134 67.8097 111.782 68.6657C109.882 70.0457 107.992 69.6657 106.002 69.1357C100.872 67.6357 96.3415 64.7957 91.5415 62.5557C90.3915 62.0157 89.5415 61.7457 88.5415 62.3857C87.9272 62.7518 87.2166 62.9237 86.5028 62.8791C85.7891 62.8345 85.1055 62.5754 84.5415 62.1357" stroke="#1271CD" stroke-width="2" stroke-linecap="round" stroke-linejoin="round"/>
<path d="M90.0015 45.1357C95.2515 47.4657 100.531 49.7357 105.731 52.1357C106.599 52.6238 107.593 52.8417 108.585 52.7615C109.578 52.6813 110.523 52.3068 111.301 51.6857C112.481 50.8757 113.811 50.2057 115.001 49.3557" stroke="#1271CD" stroke-width="2" stroke-linecap="round" stroke-linejoin="round"/>
<path d="M46.5415 9.88574C45.9815 12.2857 46.2915 14.7157 46.3215 17.1357C46.403 18.5643 46.0685 19.9859 45.3585 21.2283C44.6486 22.4707 43.5937 23.4806 42.3215 24.1357L33.5815 29.1357" stroke="#1271CD" stroke-width="2" stroke-linecap="round" stroke-linejoin="round"/>
<path d="M96.5415 32.8857C93.0015 34.9657 89.5415 37.0857 86.0015 39.0857C82.8415 40.9457 81.0015 43.5757 81.0015 47.3457C81.0498 47.7312 81.1403 48.1101 81.2715 48.4757L86.2715 49.0957" stroke="#1271CD" stroke-width="2" stroke-linecap="round" stroke-linejoin="round"/>
<path d="M116.001 66.6355C117.301 69.6355 117.061 70.7655 114.491 72.6355C110.321 75.6355 105.711 75.6355 101.001 74.3555C100.035 74.1869 99.0979 73.8769 98.2214 73.4355C94.7814 71.4355 94.9214 68.4355 95.7514 65.1455" stroke="#1271CD" stroke-width="2" stroke-linecap="round" stroke-linejoin="round"/>
<path d="M74.5415 55.6357C68.6215 58.9657 62.6915 62.2757 56.8015 65.6357C56.0015 66.0957 54.8715 66.3657 54.8015 67.6357" stroke="#1271CD" stroke-width="2" stroke-linecap="round" stroke-linejoin="round"/>
<path d="M58.7915 27.1357C55.6915 28.5657 54.4715 31.0357 54.5015 34.3857C54.5015 37.0457 54.8215 39.7257 54.2915 42.3857" stroke="#1271CD" stroke-width="2" stroke-linecap="round" stroke-linejoin="round"/>
<path d="M75.0016 67.3857C75.0016 70.7257 74.8016 74.0857 75.5116 77.3857C76.4016 81.5857 80.8616 86.2457 84.7516 86.9357V82.6357" stroke="#1271CD" stroke-width="2" stroke-linecap="round" stroke-linejoin="round"/>
<path d="M98.5415 74.1357C96.0615 76.6757 92.7215 77.8357 89.7715 79.6057C84.4515 82.7757 84.4115 82.6957 79.7715 78.6057" stroke="#1271CD" stroke-width="2" stroke-linecap="round" stroke-linejoin="round"/>
<path d="M69.5415 29.8855C70.2915 30.3855 71.0315 30.8855 71.7915 31.3855C75.0915 33.5155 78.3815 34.7955 81.4515 30.8755C79.5615 29.1255 76.4515 28.9755 74.4515 26.9255C74.2615 26.7155 73.3015 26.8655 73.0315 27.1655C71.9615 28.3155 70.3215 28.5355 69.2515 29.6355" stroke="#1271CD" stroke-width="2" stroke-linecap="round" stroke-linejoin="round"/>
<path d="M94.2915 39.1357C92.2915 40.4157 90.0015 41.1357 88.2915 42.8657C86.6766 44.4011 85.6207 46.4319 85.2915 48.6357" stroke="#1271CD" stroke-width="2" stroke-linecap="round" stroke-linejoin="round"/>
<path d="M83.7915 49.1357C84.7915 50.2957 85.7915 51.4457 86.7915 52.6357C88.9815 55.3457 89.3215 58.5657 89.3015 61.8857" stroke="#1271CD" stroke-width="2" stroke-linecap="round" stroke-linejoin="round"/>
<path d="M103.292 39.8857C103.459 39.148 103.53 38.3916 103.502 37.6357C103.132 35.3657 101.812 34.7857 99.7815 35.8757C99.2915 36.1457 98.7815 36.3857 98.2915 36.6357" stroke="#1271CD" stroke-width="2" stroke-linecap="round" stroke-linejoin="round"/>
<path d="M48.5415 61.6357C49.3234 60.7319 49.9732 59.7219 50.4715 58.6357C50.9115 57.1157 51.3715 55.2257 50.2115 53.9657C49.0515 52.7057 47.4815 53.2057 46.0415 53.6557" stroke="#1271CD" stroke-width="2" stroke-linecap="round" stroke-linejoin="round"/>
<path d="M129.791 63.1357C127.493 61.0019 124.765 59.3826 121.792 58.3857" stroke="#1271CD" stroke-width="2" stroke-linecap="round" stroke-linejoin="round"/>
<path d="M36.5415 53.3858C37.5899 52.13 39.0812 51.3257 40.7065 51.1395C42.3317 50.9534 43.9663 51.3996 45.2715 52.3858C45.4677 52.5276 45.6274 52.714 45.7376 52.9295C45.8478 53.1451 45.9052 53.3837 45.9052 53.6258C45.9052 53.8679 45.8478 54.1065 45.7376 54.3221C45.6274 54.5376 45.4677 54.724 45.2715 54.8658C44.0472 56.0169 43.1795 57.4956 42.7715 59.1258C42.4215 60.5758 42.2015 61.9958 43.5315 63.1258C45.0415 64.4158 46.2715 63.4458 47.5315 62.6258" stroke="#1271CD" stroke-width="2" stroke-linecap="round" stroke-linejoin="round"/>
<path d="M36.5415 56.3857C37.1315 59.3857 39.4115 60.3857 42.0415 60.8857" stroke="#1271CD" stroke-width="2" stroke-linecap="round" stroke-linejoin="round"/>
<path d="M89.5415 53.8857C89.8315 55.7857 91.3015 57.5957 90.0415 59.6357" stroke="#1271CD" stroke-width="2" stroke-linecap="round" stroke-linejoin="round"/>
<path d="M68.2915 21.3857C66.5809 22.6645 64.7368 23.7542 62.7915 24.6357" stroke="#1271CD" stroke-width="2" stroke-linecap="round" stroke-linejoin="round"/>
<path d="M26.0615 3.16553C30.1415 5.81553 34.7815 7.52553 38.3015 11.1655" stroke="#1271CD" stroke-width="2" stroke-linecap="round" stroke-linejoin="round"/>
<path d="M78.0014 29.6357C76.6714 32.0857 76.2514 32.0857 73.4014 29.4857L74.7914 27.8857" stroke="#1271CD" stroke-width="2" stroke-linecap="round" stroke-linejoin="round"/>
<path d="M80.7915 48.8857C78.9915 49.6557 78.1715 50.8857 78.7915 52.8857" stroke="#1271CD" stroke-width="2" stroke-linecap="round" stroke-linejoin="round"/>
<path d="M44.2915 60.1357L48.2915 62.1357" stroke="#1271CD" stroke-width="2" stroke-linecap="round" stroke-linejoin="round"/>
<path d="M75.5415 73.6357L78.2915 77.1357" stroke="#1271CD" stroke-width="2" stroke-linecap="round" stroke-linejoin="round"/>
<path d="M49.2915 57.1357C50.6815 58.5857 52.5515 59.2357 54.2915 60.1357" stroke="#1271CD" stroke-width="2" stroke-linecap="round" stroke-linejoin="round"/>
</svg>
