<svg width="125" height="95" viewBox="0 0 125 95" fill="none" xmlns="http://www.w3.org/2000/svg">
<path d="M101.15 51.2677L95.3571 47.9208V23.5483L116.64 35.8204" stroke="#1271CD" stroke-width="1.69026" stroke-miterlimit="22.9256" stroke-linecap="round" stroke-linejoin="round"/>
<path d="M115.481 59.5059V59.5503" stroke="#1271CD" stroke-width="1.69026" stroke-miterlimit="22.9256" stroke-linecap="round" stroke-linejoin="round"/>
<path d="M123.247 39.254C123.247 37.4089 122.088 35.5209 119.556 34.1049C101.62 23.8067 83.813 13.4656 65.877 3.12449C60.9424 0.292486 53.0042 0.292486 47.9409 3.12449C38.7154 8.48815 29.4899 13.8088 20.2645 19.1295C19.8354 19.387 19.6208 19.7303 19.6208 20.0307C19.7066 20.1165 19.7066 20.2024 19.7066 20.2882C19.7924 20.4169 19.9212 20.5885 20.1357 20.7601C20.2215 20.8888 20.4361 20.9747 20.5648 21.0176C20.7794 21.1034 20.9939 21.1464 21.2084 21.1464H21.2943C21.8093 21.2322 22.4529 21.1463 22.882 20.9747C23.0965 20.9318 23.1823 20.8888 23.3111 20.8459" stroke="#1271CD" stroke-width="1.69026" stroke-miterlimit="22.9256" stroke-linecap="round" stroke-linejoin="round"/>
<path d="M23.3556 20.8885L30.1353 16.8979V41.2704L27.2174 42.9868" stroke="#1271CD" stroke-width="1.69026" stroke-miterlimit="22.9256" stroke-linecap="round" stroke-linejoin="round"/>
<path d="M9.9248 28.0967C9.9248 28.2254 9.9248 28.3112 9.9248 28.397C9.83899 28.4828 9.83899 28.5687 9.71026 28.6545C9.62444 28.7403 9.49563 28.869 9.40981 28.9549" stroke="#1271CD" stroke-width="1.69026" stroke-miterlimit="22.9256" stroke-linecap="round" stroke-linejoin="round"/>
<path d="M56.9961 3.42383C56.6957 3.42383 56.4812 3.42377 56.1379 3.46667C55.8375 3.46667 55.623 3.46676 55.2797 3.55258C55.1939 3.55258 54.9794 3.59546 54.7648 3.63837C54.5503 3.63837 54.3357 3.72421 54.0353 3.76712C53.7349 3.81003 53.5204 3.89585 53.1771 3.98167C53.0913 4.02458 52.9626 4.02456 52.748 4.06747C52.5335 4.15328 52.3189 4.19613 52.1044 4.32486C51.8898 4.41068 51.804 4.45359 51.5895 4.5394C51.3749 4.62522 51.1604 4.75397 50.9459 4.8827" stroke="#1271CD" stroke-width="1.69026" stroke-miterlimit="22.9256" stroke-linecap="round" stroke-linejoin="round"/>
<path d="M34.2544 19.2151L30.1351 16.8979V41.2275L34.2544 43.5446" stroke="#1271CD" stroke-width="1.69026" stroke-miterlimit="22.9256" stroke-linecap="round" stroke-linejoin="round"/>
<path fill-rule="evenodd" clip-rule="evenodd" d="M71.3276 14.2373L71.4563 25.2221L79.0084 29.5559L81.8403 27.8825V20.2875L71.3276 14.2373Z" stroke="#1271CD" stroke-width="1.69026" stroke-miterlimit="22.9256" stroke-linecap="round" stroke-linejoin="round"/>
<path d="M65.5781 37.3221L51.3323 29.0835L51.2035 29.0406L48.1999 27.2812" stroke="#1271CD" stroke-width="1.69026" stroke-miterlimit="22.9256" stroke-linecap="round" stroke-linejoin="round"/>
<path d="M48.2002 27.2815C47.9856 27.1957 47.8998 27.0671 47.7711 26.9383C47.6853 26.8525 47.6853 26.8096 47.6853 26.7238C47.5995 26.638 47.5994 26.5092 47.5994 26.4233" stroke="#1271CD" stroke-width="1.69026" stroke-miterlimit="22.9256" stroke-linecap="round" stroke-linejoin="round"/>
<path d="M65.578 65.1274L95.3569 47.9208V23.5483L74.2886 35.7346L65.578 40.712L61.7162 42.9862" stroke="#1271CD" stroke-width="1.69026" stroke-miterlimit="22.9256" stroke-linecap="round" stroke-linejoin="round"/>
<path d="M61.7163 42.9863C61.2014 43.2437 60.3432 43.3725 59.7424 43.3295C59.6566 43.3295 59.5279 43.3295 59.4421 43.2866C59.2276 43.2866 59.1417 43.2437 59.013 43.2008C58.9272 43.1579 58.7985 43.115 58.7127 43.0292C58.4123 42.9005 58.2836 42.6858 58.1978 42.5142C58.1978 42.4284 58.1977 42.2997 58.1119 42.2139" stroke="#1271CD" stroke-width="1.69026" stroke-miterlimit="22.9256" stroke-linecap="round" stroke-linejoin="round"/>
<path d="M71.6712 93.4475C75.1469 93.3617 77.5498 92.9325 80.5963 91.3449C113.508 72.3361 86.7752 87.7405 119.601 68.8176C121.703 67.4445 123.076 66.2001 123.291 63.6685" stroke="#1271CD" stroke-width="1.69026" stroke-miterlimit="22.9256" stroke-linecap="round" stroke-linejoin="round"/>
<path d="M123.248 39.2104C123.034 41.8279 121.66 43.0294 119.558 44.3596C86.7324 63.3254 113.465 47.921 80.5534 66.8869C77.5068 68.4745 75.1039 68.9466 71.6282 68.9895" stroke="#1271CD" stroke-width="1.69026" stroke-miterlimit="22.9256" stroke-linecap="round" stroke-linejoin="round"/>
<path fill-rule="evenodd" clip-rule="evenodd" d="M115.567 50.6665L115.482 61.6513L105.097 67.6586V56.7167L115.567 50.6665Z" stroke="#1271CD" stroke-width="1.69026" stroke-miterlimit="22.9256" stroke-linecap="round" stroke-linejoin="round"/>
<path fill-rule="evenodd" clip-rule="evenodd" d="M117.884 63.0254L115.481 61.6523L105.097 67.6596V70.3629L117.884 63.0254Z" stroke="#1271CD" stroke-width="1.69026" stroke-miterlimit="22.9256" stroke-linecap="round" stroke-linejoin="round"/>
<path fill-rule="evenodd" clip-rule="evenodd" d="M115.481 50.7095V61.6084L117.884 63.0244V49.3364L115.481 50.7095Z" stroke="#1271CD" stroke-width="1.69026" stroke-miterlimit="22.9256" stroke-linecap="round" stroke-linejoin="round"/>
<path fill-rule="evenodd" clip-rule="evenodd" d="M69.0538 26.5948L71.4567 25.2217L79.0088 29.5554L76.6058 30.9285L69.0538 26.5948Z" stroke="#1271CD" stroke-width="1.69026" stroke-miterlimit="22.9256" stroke-linecap="round" stroke-linejoin="round"/>
<path fill-rule="evenodd" clip-rule="evenodd" d="M71.4565 14.2804V25.2223L69.0536 26.5953V12.9072L71.4565 14.2804Z" stroke="#1271CD" stroke-width="1.69026" stroke-miterlimit="22.9256" stroke-linecap="round" stroke-linejoin="round"/>
<path d="M0.999899 30.8003C0.999899 30.929 1.0857 31.0148 1.0857 31.1006C1.0857 31.1865 1.17149 31.2723 1.17149 31.3152C1.25731 31.4439 1.38604 31.5727 1.60059 31.6585" stroke="#1271CD" stroke-width="1.69026" stroke-miterlimit="22.9256" stroke-linecap="round" stroke-linejoin="round"/>
<path fill-rule="evenodd" clip-rule="evenodd" d="M96.6016 75.254L94.2844 73.9238L83.9433 79.8882V82.6343L96.6016 75.254Z" stroke="#1271CD" stroke-width="1.69026" stroke-miterlimit="22.9256" stroke-linecap="round" stroke-linejoin="round"/>
<path fill-rule="evenodd" clip-rule="evenodd" d="M94.2842 62.939V73.9238L83.9431 79.8881V68.9892L94.2842 62.939Z" stroke="#1271CD" stroke-width="1.69026" stroke-miterlimit="22.9256" stroke-linecap="round" stroke-linejoin="round"/>
<path fill-rule="evenodd" clip-rule="evenodd" d="M94.2844 62.9821V73.881L96.6016 75.254V61.6089L94.2844 62.9821Z" stroke="#1271CD" stroke-width="1.69026" stroke-miterlimit="22.9256" stroke-linecap="round" stroke-linejoin="round"/>
<path d="M44.4239 52.9408L47.6421 51.0957" stroke="#1271CD" stroke-width="1.69026" stroke-miterlimit="22.9256" stroke-linecap="round" stroke-linejoin="round"/>
<path d="M6.06284 34.2329L9.92467 36.4642L14.3442 38.9958" stroke="#1271CD" stroke-width="1.69026" stroke-miterlimit="22.9256" stroke-linecap="round" stroke-linejoin="round"/>
<path d="M14.3447 38.9956C16.104 40.0254 17.992 41.0982 19.7084 42.128C21.296 42.9862 22.755 43.8444 24.2139 44.7026" stroke="#1271CD" stroke-width="1.69026" stroke-miterlimit="22.9256" stroke-linecap="round" stroke-linejoin="round"/>
<path d="M24.1707 44.7031L40.0042 53.7999L62.7461 66.973" stroke="#1271CD" stroke-width="1.69026" stroke-miterlimit="22.9256" stroke-linecap="round" stroke-linejoin="round"/>
<path d="M62.7462 66.9727C63.9048 67.5734 64.9347 68.0025 66.0074 68.3029C66.3078 68.3887 66.651 68.4745 66.9514 68.5174C67.1659 68.6032 67.3805 68.6032 67.595 68.689C68.8394 68.9465 70.2125 69.0753 71.6714 69.0753" stroke="#1271CD" stroke-width="1.69026" stroke-miterlimit="22.9256" stroke-linecap="round" stroke-linejoin="round"/>
<path d="M71.6714 93.4472C68.4103 93.3614 65.7928 92.9323 62.7462 91.3017C44.7244 80.8748 24.1709 69.0318 1.64357 56.0303" stroke="#1271CD" stroke-width="1.69026" stroke-miterlimit="22.9256" stroke-linecap="round" stroke-linejoin="round"/>
<path d="M62.7455 66.93C67.6801 69.762 75.747 69.762 80.5528 66.93C105.483 52.5125 94.5842 58.8201 119.557 44.4027C124.492 41.5706 124.492 36.9364 119.557 34.1044C101.621 23.7633 83.814 13.4651 65.8779 3.12401C60.9433 0.291998 53.0051 0.291998 47.9418 3.12401C38.7164 8.44475 29.5767 13.8083 20.2654 19.1291C19.5359 19.6011 19.5359 20.3734 20.2654 20.8454C21.1236 21.3174 22.4538 21.3174 23.312 20.8454" stroke="#1271CD" stroke-width="1.69026" stroke-miterlimit="22.9256" stroke-linecap="round" stroke-linejoin="round"/>
<path d="M23.3554 20.8885L30.1351 16.8979L34.2544 19.2151" stroke="#1271CD" stroke-width="1.69026" stroke-miterlimit="22.9256" stroke-linecap="round" stroke-linejoin="round"/>
<path d="M34.2544 19.2144C35.1126 19.6435 36.357 19.6435 37.1723 19.2144C38.0305 18.7424 38.0305 17.97 37.1723 17.498" stroke="#1271CD" stroke-width="1.69026" stroke-miterlimit="22.9256" stroke-linecap="round" stroke-linejoin="round"/>
<path d="M37.1725 17.4981L33.1819 15.1381L50.9893 4.83984" stroke="#1271CD" stroke-width="1.69026" stroke-miterlimit="22.9256" stroke-linecap="round" stroke-linejoin="round"/>
<path d="M62.9607 4.83984L92.3965 21.8318L68.4961 35.5628L51.1178 25.5221" stroke="#1271CD" stroke-width="1.69026" stroke-miterlimit="22.9256" stroke-linecap="round" stroke-linejoin="round"/>
<path d="M51.1177 25.5225C50.3882 25.0505 49.0151 25.0505 48.1998 25.5225C47.3416 25.9945 47.3416 26.7668 48.1998 27.2388" stroke="#1271CD" stroke-width="1.69026" stroke-miterlimit="22.9256" stroke-linecap="round" stroke-linejoin="round"/>
<path d="M48.1999 27.2388L65.5781 37.2795L58.6697 41.2701" stroke="#1271CD" stroke-width="1.69026" stroke-miterlimit="22.9256" stroke-linecap="round" stroke-linejoin="round"/>
<path d="M58.6697 41.27C57.8115 41.742 57.8115 42.5144 58.6697 42.9864C59.5279 43.4584 60.8581 43.4584 61.7163 42.9864" stroke="#1271CD" stroke-width="1.69026" stroke-miterlimit="22.9256" stroke-linecap="round" stroke-linejoin="round"/>
<path d="M116.64 35.8198C119.901 37.7078 119.901 40.7973 116.64 42.6423C84.8873 61.0075 102.823 50.6664 77.6356 65.2126C74.3745 67.1006 69.0538 67.1006 65.7069 65.2126C55.8378 59.5057 54.3788 58.6475 44.4239 52.9406" stroke="#1271CD" stroke-width="1.69026" stroke-miterlimit="22.9256" stroke-linecap="round" stroke-linejoin="round"/>
<path d="M47.642 51.0962C48.5002 50.5813 48.5002 49.8519 47.642 49.3799C46.9125 48.9079 45.5394 48.9079 44.7242 49.3799" stroke="#1271CD" stroke-width="1.69026" stroke-miterlimit="22.9256" stroke-linecap="round" stroke-linejoin="round"/>
<path d="M44.7241 49.3364L41.4631 51.2244L6.14878 30.7997L9.40981 28.9116" stroke="#1271CD" stroke-width="1.69026" stroke-miterlimit="22.9256" stroke-linecap="round" stroke-linejoin="round"/>
<path d="M9.40994 28.9117C10.1394 28.4397 10.1394 27.6673 9.40994 27.1953C8.55175 26.7233 7.22163 26.7233 6.36345 27.1953" stroke="#1271CD" stroke-width="1.69026" stroke-miterlimit="22.9256" stroke-linecap="round" stroke-linejoin="round"/>
<path d="M1.64342 31.6582L40.0042 53.7993L62.7461 66.9296" stroke="#1271CD" stroke-width="1.69026" stroke-miterlimit="22.9256" stroke-linecap="round" stroke-linejoin="round"/>
<path d="M30.1353 41.1841V41.2284" stroke="#1271CD" stroke-width="1.69026" stroke-miterlimit="22.9256" stroke-linecap="round" stroke-linejoin="round"/>
<path d="M30.1353 41.2271C29.1913 41.7849 28.1614 42.3427 27.2174 42.9864" stroke="#1271CD" stroke-width="1.69026" stroke-miterlimit="22.9256" stroke-linecap="round" stroke-linejoin="round"/>
<path d="M37.8159 36.8514V36.8071" stroke="#1271CD" stroke-width="1.69026" stroke-miterlimit="22.9256" stroke-linecap="round" stroke-linejoin="round"/>
<path d="M37.8158 36.8077C41.0769 34.9197 44.2951 33.0316 47.5562 31.1865" stroke="#1271CD" stroke-width="1.68866" stroke-miterlimit="22.9256" stroke-linecap="round" stroke-linejoin="round"/>
<path d="M56.9963 25.7798L71.2422 34.0184" stroke="#1271CD" stroke-width="1.69026" stroke-miterlimit="22.9256" stroke-linecap="round" stroke-linejoin="round"/>
<path d="M19.665 38.6524V20.0728" stroke="#1271CD" stroke-width="1.69026" stroke-miterlimit="22.9256" stroke-linecap="round" stroke-linejoin="round"/>
<path d="M19.665 42.1298V42.0854" stroke="#1271CD" stroke-width="1.69026" stroke-miterlimit="22.9256" stroke-linecap="round" stroke-linejoin="round"/>
<path d="M9.9248 32.9883V28.0967" stroke="#1271CD" stroke-width="1.69026" stroke-miterlimit="22.9256" stroke-linecap="round" stroke-linejoin="round"/>
<path d="M56.9961 25.7366V3.42383" stroke="#1271CD" stroke-width="1.80213" stroke-miterlimit="22.9256" stroke-linecap="round" stroke-linejoin="round"/>
<path d="M50.9893 4.83984L33.1819 15.1809" stroke="#1271CD" stroke-width="1.69026" stroke-miterlimit="22.9256" stroke-linecap="round" stroke-linejoin="round"/>
<path d="M37.8159 42.6854V18.313" stroke="#1271CD" stroke-width="1.69026" stroke-miterlimit="22.9256" stroke-linecap="round" stroke-linejoin="round"/>
<path d="M37.8159 18.313C37.6014 19.7719 35.2843 19.6432 34.2544 19.1712" stroke="#1271CD" stroke-width="1.69026" stroke-miterlimit="22.9256" stroke-linecap="round" stroke-linejoin="round"/>
<path d="M34.2544 43.5437C35.2843 44.0157 37.6014 44.1445 37.8159 42.6855" stroke="#1271CD" stroke-width="1.69026" stroke-miterlimit="22.9256" stroke-linecap="round" stroke-linejoin="round"/>
<path d="M47.5562 26.3804V49.2939" stroke="#1271CD" stroke-width="1.69026" stroke-miterlimit="22.9256" stroke-linecap="round" stroke-linejoin="round"/>
<path d="M48.2855 51.6968L58.0259 57.3178" stroke="#1271CD" stroke-width="1.69026" stroke-miterlimit="22.9256" stroke-linecap="round" stroke-linejoin="round"/>
<path d="M58.0259 42.1274V60.6214" stroke="#1271CD" stroke-width="1.70676" stroke-miterlimit="22.9256" stroke-linecap="round" stroke-linejoin="round"/>
<path d="M71.6714 69.0752V93.4477" stroke="#1271CD" stroke-width="1.69026" stroke-miterlimit="22.9256" stroke-linecap="round" stroke-linejoin="round"/>
<path d="M123.248 63.5829V39.2104" stroke="#1271CD" stroke-width="1.69026" stroke-miterlimit="22.9256" stroke-linecap="round" stroke-linejoin="round"/>
<path d="M1.64355 56.0305C1.21446 55.7731 1.12864 55.6444 0.999916 55.1724" stroke="#1271CD" stroke-width="1.69026" stroke-miterlimit="22.9256" stroke-linecap="round" stroke-linejoin="round"/>
<path d="M0.999512 55.1726V30.8003" stroke="#1271CD" stroke-width="1.69026" stroke-miterlimit="22.9256" stroke-linecap="round" stroke-linejoin="round"/>
<path d="M47.642 51.096C48.0711 50.8814 48.2856 50.5811 48.2856 50.2378" stroke="#1271CD" stroke-width="1.69026" stroke-miterlimit="22.9256" stroke-linecap="round" stroke-linejoin="round"/>
<path d="M48.2856 50.2378V55.1724" stroke="#1271CD" stroke-width="1.69026" stroke-miterlimit="22.9256" stroke-linecap="round" stroke-linejoin="round"/>
<path d="M1.64316 31.6582L5.93408 34.1469" stroke="#1271CD" stroke-width="1.69026" stroke-miterlimit="22.9256" stroke-linecap="round" stroke-linejoin="round"/>
<path d="M50.9892 4.83983C54.2503 2.95183 59.571 2.95183 62.918 4.83983" stroke="#1271CD" stroke-width="1.69026" stroke-miterlimit="22.9256" stroke-linecap="round" stroke-linejoin="round"/>
<path d="M6.36328 27.1958L1.64327 29.9421" stroke="#1271CD" stroke-width="1.69026" stroke-miterlimit="22.9256" stroke-linecap="round" stroke-linejoin="round"/>
<path d="M1.64355 29.9419C0.78537 30.4139 0.78537 31.1863 1.64355 31.6583" stroke="#1271CD" stroke-width="1.69026" stroke-miterlimit="22.9256" stroke-linecap="round" stroke-linejoin="round"/>
<path d="M115.481 59.4633L108.058 55.1724" stroke="#1271CD" stroke-width="1.68866" stroke-miterlimit="22.9256" stroke-linecap="round" stroke-linejoin="round"/>
<path d="M54.5506 27.153C55.323 26.681 56.1383 26.2518 56.9106 25.7798" stroke="#1271CD" stroke-width="1.68866" stroke-miterlimit="22.9256" stroke-linecap="round" stroke-linejoin="round"/>
<path d="M69.9978 20.2871L70.5127 20.6303" stroke="#1271CD" stroke-width="0.477442" stroke-miterlimit="10" stroke-linecap="round"/>
<path d="M69.9978 14.709L70.5127 14.9664" stroke="#1271CD" stroke-width="0.477442" stroke-miterlimit="10" stroke-linecap="round"/>
<path d="M48.3711 54.9144L49.4438 53.4126" stroke="#1271CD" stroke-width="0.475841" stroke-miterlimit="10" stroke-linecap="round"/>
<path d="M58.8412 43.1582L59.7422 41.0127" stroke="#1271CD" stroke-width="0.477442" stroke-miterlimit="10" stroke-linecap="round"/>
</svg>
