<svg width="77" height="107" viewBox="0 0 77 107" fill="none" xmlns="http://www.w3.org/2000/svg">
<path d="M31.3396 5.56559L31.5172 5.46506V5.26102V2.99247H31.5413V2.64247V2.59443C31.5413 2.30797 31.6702 2.06696 31.942 1.91494L31.9483 1.91145L31.9544 1.90772L32.767 1.40864C33.5596 0.985953 34.3923 0.994491 35.0978 1.40711L35.1003 1.40855C41.9388 5.33248 48.7544 9.24869 55.5642 13.1617C60.9286 16.244 66.2894 19.3244 71.6552 22.4049C71.9092 22.5513 72.1723 22.6943 72.438 22.8387C73.08 23.1876 73.7375 23.545 74.3203 23.9795C75.132 24.5849 75.7155 25.2845 75.8312 26.205L75.8349 26.2342L75.8434 26.2624L75.901 26.4532V88.4477C75.8552 89.736 75.259 90.6834 74.3144 91.3639C73.3557 92.0546 72.0321 92.4722 70.5614 92.6498C67.6114 93.0062 64.2195 92.3811 62.343 91.2754L62.3395 91.2734L24.1298 69.3472C23.9715 69.2375 23.8912 69.1494 23.8393 69.0584C23.7855 68.9645 23.7463 68.8404 23.7133 68.6318V6.60633C23.7133 6.3548 23.881 6.09367 24.1296 5.91802L25.0059 5.4235C25.7942 5.00092 26.5591 5.00173 27.3452 5.44478L29.2522 6.54887L29.4257 6.64928L29.6001 6.55054L31.3396 5.56559Z" fill="#FAFAFA" stroke="#1271CD" stroke-width="0.7"/>
<path d="M72.433 22.8995L72.4298 22.8978C72.3451 22.8525 72.2628 22.8072 72.1818 22.7626C71.9855 22.6545 71.7972 22.5509 71.6031 22.4622L35.0772 1.48258C34.7397 1.2454 34.2849 1.1393 33.9217 1.1393C33.5301 1.1393 33.1555 1.26078 32.7555 1.49882L31.8651 2.00128L31.8651 2.0012L31.8578 2.00552C31.6362 2.13773 31.4939 2.36927 31.4939 2.64242V5.28499C31.4939 5.43092 31.4348 5.54767 31.2904 5.62596L31.2904 5.62585L31.2825 5.63039L29.6197 6.58886C29.5287 6.63766 29.4599 6.65266 29.4037 6.65266C29.3474 6.65266 29.2788 6.63769 29.1879 6.58901L27.2838 5.48658L27.2825 5.48589C26.5445 5.06253 25.7861 5.06572 25.0305 5.48312L25.0305 5.4831L25.0277 5.48467L24.1337 5.98916L24.1096 6.00279L24.0879 6.02006C23.9291 6.14637 23.7625 6.33245 23.7625 6.6303V68.6105C23.7625 68.7644 23.7853 68.9078 23.8705 69.0387C23.9087 69.0974 23.9515 69.1409 23.9818 69.1701C24.0019 69.1894 24.0129 69.1995 24.0222 69.2081C24.0329 69.2178 24.0414 69.2257 24.059 69.2431L24.0916 69.2756L24.1316 69.2985L62.3498 91.2295C62.3504 91.2299 62.3511 91.2303 62.3517 91.2306C63.6968 92.0249 65.7739 92.543 67.8712 92.665C69.9671 92.7868 72.1561 92.5175 73.7116 91.6685C75.0599 90.9462 75.8038 89.8539 75.8038 88.4538V26.5457V26.2574V26.2366L75.8014 26.2159C75.7013 25.3768 75.1743 24.732 74.5423 24.2173C73.9362 23.7236 73.1865 23.3126 72.5146 22.9443L72.433 22.8995ZM74.0798 92.3978L74.0762 92.3998C72.6728 93.1776 70.7571 93.5331 68.8097 93.5331C66.2431 93.5331 63.6033 92.9165 61.9564 91.9478L61.9532 91.946L23.7169 69.9944C23.4633 69.8249 23.2867 69.6471 23.1712 69.4474C23.0556 69.2473 22.9887 69.0033 22.9887 68.6826V6.6303C22.9887 6.0443 23.2479 5.56726 23.7065 5.30045L24.5986 4.79703L24.5986 4.79704L24.6009 4.7957C25.5802 4.23312 26.7279 4.23312 27.7072 4.7957L29.2534 5.68452L29.4311 5.78668L29.6071 5.68166L30.5736 5.1051L30.7442 5.00327V4.80452V2.6184C30.7442 2.03244 31.0022 1.5394 31.5211 1.27188L31.5307 1.26691L31.54 1.26136L32.3764 0.762363C33.4347 0.217537 34.5142 0.22358 35.4893 0.761176C35.4902 0.761671 35.4911 0.762166 35.492 0.762662L72.0174 21.804L72.0174 21.8041L72.0253 21.8084C72.1608 21.8819 72.2898 21.9491 72.416 22.0148L72.4171 22.0154C72.5442 22.0816 72.6685 22.1464 72.7984 22.2168L72.8006 22.218C73.6393 22.6651 74.5276 23.1462 75.2416 23.7702C75.9439 24.384 76.4539 25.1162 76.5777 26.0636L76.6501 88.495C76.5809 90.1824 75.7185 91.5152 74.0798 92.3978Z" fill="#FAFAFA" stroke="#1271CD" stroke-width="0.7"/>
<path d="M68.3936 25.0476L68.3971 25.0495C68.5591 25.1402 68.7186 25.2222 68.875 25.3027C69.1327 25.4352 69.3821 25.5636 69.6214 25.7192C69.9958 25.9625 70.2179 26.1994 70.2815 26.4606L70.285 26.4749L70.2897 26.4889C70.3437 26.6499 70.3517 26.8128 70.3061 26.9564C70.2625 27.0937 70.1608 27.2431 69.939 27.3719C68.8879 27.9779 67.5592 27.7033 66.5245 27.0861L66.5245 27.086L66.5194 27.0831L31.5414 7.00436V3.87437C31.5601 3.88588 31.5792 3.8971 31.5987 3.90801C39.1037 8.21209 46.5904 12.516 54.0868 16.8256C58.8494 19.5635 63.616 22.3037 68.3936 25.0476Z" fill="#FAFAFA" stroke="#1271CD" stroke-width="0.7"/>
<path d="M32.0422 4.23666L31.5178 3.93535V4.54013V6.79832V7.00095L31.6936 7.10184L66.4607 27.0652L66.4607 27.0653L66.4658 27.0681C66.6939 27.1941 67.193 27.4528 67.8026 27.5897C68.4118 27.7265 69.1673 27.7491 69.8737 27.3558L69.8738 27.3559L69.8827 27.3506L69.8874 27.3478C69.9477 27.3119 70.0812 27.2324 70.171 27.0856C70.2743 26.9169 70.2891 26.7189 70.2361 26.5082L70.2319 26.4915L70.2261 26.4752C70.1701 26.3193 70.0643 26.191 69.9599 26.0904C69.8525 25.9869 69.7244 25.8917 69.5939 25.8058C69.3429 25.6404 69.0473 25.4865 68.8027 25.3592L68.7934 25.3543C68.7125 25.3017 68.624 25.2518 68.5468 25.2092C68.5227 25.1958 68.5001 25.1834 68.4789 25.1718C68.4223 25.1408 68.3755 25.1151 68.3365 25.0918L68.3365 25.0918L68.3315 25.0889L32.0422 4.23666ZM70.9601 26.2763L70.9599 26.2764L70.9635 26.288C71.1818 26.9985 70.9318 27.6464 70.3018 28.02C69.8024 28.2998 69.2109 28.4537 68.5679 28.4537C67.7857 28.4537 66.9081 28.2308 66.1199 27.7382L66.12 27.738L66.1086 27.7314L30.9549 7.55181L30.9402 7.54338L30.9248 7.53641C30.8159 7.48722 30.744 7.37189 30.744 7.20672V2.64228C30.744 2.39777 30.9068 2.22354 31.1672 2.22354C31.3399 2.22354 31.5178 2.38196 31.5178 2.61826C31.5178 2.89141 31.6602 3.12295 31.8818 3.25516L31.8818 3.2552L31.887 3.25821L68.7508 24.3957L69.1321 24.6326L69.1462 24.6414L69.161 24.6488C69.9632 25.0476 70.7418 25.4673 70.9601 26.2763ZM68.4954 25.0938H68.5679V24.7438V24.3938H68.4954V24.7438V25.0938Z" fill="#FAFAFA" stroke="#1271CD" stroke-width="0.7"/>
<path d="M53.8114 24.3446L53.8109 24.3444L24.122 7.29041C23.8898 7.14668 23.7133 6.88965 23.7133 6.60633C23.7133 6.35481 23.881 6.09367 24.1296 5.91802L25.0059 5.4235C25.7944 5.00081 26.5595 5.00173 27.3458 5.44512C27.3462 5.44532 27.3465 5.44552 27.3469 5.44571L66.1707 27.714C67.3074 28.3671 68.9219 28.7633 70.2844 28.0046L70.2925 28.0001L70.3003 27.9952C70.889 27.6255 71.044 27.0857 71.044 26.6178V26.5941L71.0408 26.5707C70.9641 26.0059 70.6514 25.6308 70.2905 25.3548C70.0499 25.1707 69.7557 25.0104 69.4943 24.8679C69.3903 24.8112 69.2914 24.7573 69.2032 24.7058L69.2013 24.7047L31.9491 3.30201C31.9486 3.3017 31.948 3.30138 31.9475 3.30106C31.4054 2.97953 31.4059 2.23155 31.9491 1.91086L31.9492 1.91091L31.9544 1.90772L32.767 1.40865C33.5596 0.985953 34.3923 0.994491 35.0978 1.40711L35.1001 1.40842L67.2821 19.9064L67.2821 19.9064L72.0901 22.6691L72.09 22.6692L72.0985 22.6738L72.6722 22.9828C72.8757 23.103 73.0734 23.2145 73.2644 23.3222C73.9459 23.7064 74.542 24.0424 75.0127 24.5569C75.1002 24.676 75.21 24.7989 75.2986 24.8981C75.3342 24.938 75.3665 24.9741 75.3924 25.0045C75.9016 25.7511 75.9962 26.5663 75.7242 27.3463C75.4473 28.1402 74.7783 28.9279 73.7082 29.5578C71.5462 30.7819 68.5661 31.138 65.9508 30.6461C64.0229 30.2781 62.9559 29.6468 61.4561 28.7595C61.1518 28.5796 60.8298 28.3891 60.4792 28.1881C60.4791 28.188 60.479 28.188 60.479 28.188L53.8114 24.3446Z" fill="#FAFAFA" stroke="#1271CD" stroke-width="0.7"/>
<path d="M73.1669 23.3373L73.1634 23.3353L35.0769 1.48254C34.7394 1.24539 34.2846 1.1393 33.9215 1.1393C33.5319 1.1393 33.1585 1.25947 32.7826 1.47301C32.7824 1.4731 32.7823 1.47319 32.7821 1.47327L31.8891 1.97726L31.8649 1.99089L31.8432 2.00816C31.7351 2.09415 31.6587 2.20279 31.6095 2.29611C31.5661 2.37852 31.5178 2.4986 31.5178 2.6184C31.5178 2.7382 31.5661 2.85828 31.6095 2.94068C31.6587 3.03401 31.7351 3.14265 31.8432 3.22864L31.8639 3.2451L31.8868 3.25827L69.215 24.6871L69.2289 24.695L69.2433 24.7017L69.5501 24.8424C70.2017 25.179 70.9223 25.6322 71.0222 26.5568C71.0818 27.1968 70.8273 27.71 70.2999 28.0212C69.1531 28.6878 67.5756 28.6217 66.1123 27.7577L66.1085 27.7556L27.3065 5.48592L27.3065 5.48589C26.5685 5.06253 25.81 5.06572 25.0544 5.48312L25.0544 5.4831L25.0516 5.48467L24.1577 5.98916L24.1335 6.00279L24.1118 6.02006C23.953 6.14637 23.7864 6.33246 23.7864 6.6303C23.7864 6.90345 23.9287 7.13498 24.1504 7.2672L24.1503 7.26724L24.1553 7.27012L53.8485 24.3265L53.8488 24.3267L61.4779 28.7196C61.4787 28.7202 61.4796 28.7207 61.4805 28.7212C61.5216 28.7459 61.5624 28.7703 61.6028 28.7946C63.0572 29.6675 64.0681 30.2742 65.9427 30.6134C68.6424 31.1301 71.6014 30.7173 73.6653 29.543C74.8202 28.9291 75.5254 28.0389 75.746 27.0825C75.9169 26.3721 75.7394 25.6804 75.3955 25.0754L75.3719 25.0339L75.338 25.0002C75.303 24.9654 75.2744 24.9279 75.2299 24.8697C75.2242 24.8623 75.2182 24.8545 75.212 24.8463C75.1669 24.7875 75.1023 24.7043 75.0151 24.6306C74.5323 24.133 73.9494 23.7935 73.3878 23.4665C73.3137 23.4233 73.24 23.3804 73.1669 23.3373ZM74.0732 30.1809L74.0732 30.1808L74.0689 30.1834C72.4896 31.1071 70.4272 31.6009 68.3021 31.6009C67.5004 31.6009 66.627 31.5305 65.8019 31.39C63.7808 31.0201 62.6211 30.3354 61.0937 29.4336L61.0627 29.4153L61.059 29.4132L23.7363 7.98755C23.2696 7.69524 23.0126 7.21268 23.0126 6.6303C23.0126 6.04429 23.2719 5.56724 23.7305 5.30044L24.6225 4.79703L24.6225 4.79704L24.6248 4.7957C25.6041 4.23314 26.7517 4.23312 27.731 4.79564C27.731 4.79566 27.7311 4.79568 27.7311 4.7957L66.4605 27.0653L66.4605 27.0653L66.4657 27.0682C66.6938 27.1942 67.1929 27.453 67.8026 27.5898C68.4117 27.7266 69.1672 27.7493 69.8737 27.3559L69.8988 27.342L69.9213 27.3241C69.9972 27.2636 70.0833 27.1838 70.1478 27.0731C70.2156 26.9566 70.2467 26.8284 70.2467 26.6898V26.6497L70.2376 26.6107C70.1814 26.3685 70.0551 26.1872 69.8693 26.026C69.6982 25.8776 69.4635 25.7356 69.1783 25.5702L69.1771 25.5695L31.5348 3.94849L31.5279 3.94454L31.5208 3.9409C30.9999 3.6723 30.744 3.17772 30.744 2.6184C30.744 2.03244 31.0019 1.5394 31.5208 1.27188L31.5304 1.26691L31.5398 1.26136L32.3762 0.762366C33.4345 0.217515 34.514 0.22358 35.4892 0.761241C35.4901 0.761714 35.4909 0.762188 35.4918 0.762662L67.6925 19.2816L67.6927 19.2817L73.4911 22.6209L73.4909 22.6211L73.5023 22.627C74.2704 23.0328 74.9774 23.4441 75.5889 24.0747L75.5889 24.0747L75.5934 24.0792C75.7763 24.261 75.9014 24.4083 76.0029 24.5698L76.0029 24.5698L76.0061 24.5748C76.5462 25.4027 76.7747 26.3337 76.5412 27.2232C76.2301 28.3478 75.4026 29.4288 74.0732 30.1809Z" fill="#FAFAFA" stroke="#1271CD" stroke-width="0.7"/>
<path d="M31.1901 5.66361L69.4276 27.6084C68.4755 27.9053 67.3822 27.6164 66.4952 27.1068L66.4951 27.1067L30.1583 6.24779L31.1901 5.66361Z" fill="#FAFAFA" stroke="#1271CD" stroke-width="0.7"/>
<path d="M31.3415 5.8221L31.1791 5.72886L31.0114 5.81222L30.7698 5.93234L30.1843 6.22346L30.7513 6.54923L66.4607 27.0652L66.4755 27.0736L66.4909 27.0806C66.5292 27.0979 66.5773 27.1215 66.6338 27.1491C66.9133 27.2858 67.3991 27.5233 67.9309 27.6115L68.1624 26.9626L31.3415 5.8221ZM70.3749 27.3055L70.3839 27.3107L70.3933 27.3153C70.4274 27.3323 70.4532 27.3584 70.4745 27.4087C70.4984 27.4652 70.5132 27.5466 70.5132 27.6506C70.5132 27.7587 70.4184 27.9244 70.2798 28.0332C69.7947 28.3221 69.2146 28.4537 68.5679 28.4537C67.7858 28.4537 66.9082 28.2308 66.1199 27.7381L66.1201 27.7379L66.1088 27.7315L29.2397 6.54287L29.2249 6.5344L29.2094 6.52739C29.0898 6.47333 29.0287 6.37289 29.0287 6.22172C29.0287 6.05656 29.1006 5.94122 29.2094 5.89203L29.2239 5.88549L29.2377 5.87766L30.9773 4.8927L30.9835 4.88918L30.9896 4.88541C31.0185 4.86742 31.0775 4.84805 31.1552 4.84805C31.2328 4.84805 31.2918 4.86742 31.3208 4.88541L31.3207 4.88559L31.3313 4.89167L70.3749 27.3055Z" fill="#FAFAFA" stroke="#1271CD" stroke-width="0.7"/>
<path d="M20.0133 12.0489L20.1859 11.9474V11.7472V9.1287C20.1859 8.81402 20.3183 8.57525 20.5866 8.42519L20.5878 8.42453L21.4817 7.92005L21.4826 7.91954C22.2226 7.49909 23.0557 7.50163 23.7665 7.91735L23.7692 7.9189C30.0125 11.4971 36.2498 15.0753 42.4871 18.6536L42.4935 18.6573L42.4964 18.6589C48.7333 22.2369 54.9704 25.815 61.2135 29.3931C61.4349 29.5292 61.6631 29.6599 61.8864 29.7877C61.9233 29.8089 61.9602 29.83 61.9968 29.851C62.2589 30.0013 62.5136 30.1496 62.757 30.3076C63.2441 30.6237 63.6682 30.9677 63.9821 31.409L63.9907 31.4211L64.0002 31.4324C64.333 31.8253 64.5027 32.2577 64.5697 32.6973V32.9118V94.982C64.5239 96.2645 63.9304 97.2106 62.9892 97.8919C62.0341 98.5832 60.715 99.0036 59.2475 99.1842C56.304 99.5464 52.9122 98.9273 51.0114 97.8095L51.0085 97.8078L12.871 75.8815C12.7042 75.7662 12.6063 75.669 12.5471 75.5733C12.4903 75.4816 12.4545 75.3678 12.4545 75.1929V13.1166C12.4545 12.8301 12.5834 12.5891 12.8552 12.4371L12.8614 12.4336L12.8675 12.4299L13.6802 11.9308C14.4727 11.5081 15.3055 11.5166 16.0109 11.9293L16.0111 11.9293L17.944 13.0584L18.1211 13.1619L18.2979 13.0579L20.0133 12.0489Z" fill="#FAFAFA" stroke="#1271CD" stroke-width="0.7"/>
<path d="M61.7636 29.7516L61.7637 29.7516L61.7597 29.7493L23.7457 7.96863C23.3974 7.72469 22.9351 7.64955 22.5904 7.64955C22.2154 7.64955 21.8358 7.73775 21.4382 7.99118L20.621 8.49306C20.4007 8.62549 20.2592 8.8564 20.2592 9.12865V11.7712C20.2592 11.8022 20.2443 11.8622 20.1953 11.9373C20.1491 12.0082 20.0903 12.0646 20.0428 12.0955L18.3137 13.0745C18.2221 13.1238 18.153 13.1389 18.0965 13.1389C18.0403 13.1389 17.9717 13.1239 17.8807 13.0752L15.9839 11.977C15.3056 11.5414 14.4686 11.5577 13.7233 11.9693L13.7233 11.9693L13.7206 11.9709L12.8266 12.4754L12.8025 12.489L12.7807 12.5063C12.622 12.6326 12.4553 12.8187 12.4553 13.1165V75.1448C12.4553 75.2971 12.4777 75.4428 12.5585 75.5743C12.6241 75.6811 12.7182 75.7544 12.7668 75.7922C12.772 75.7962 12.7767 75.7999 12.7807 75.8031L12.8015 75.8196L12.8246 75.8328L51.0427 97.7398C51.0434 97.7402 51.0441 97.7406 51.0448 97.741C52.39 98.5353 54.467 99.0533 56.5641 99.1752C58.6593 99.2971 60.8475 99.0279 62.403 98.1796C63.7821 97.4544 64.4885 96.365 64.5686 94.9844L64.5692 94.9742V94.9641V33.0559V33.0126L64.5587 32.9706L64.4887 32.6923C64.4106 32.2828 64.2755 31.8462 63.97 31.4316C63.4693 30.7446 62.6952 30.2942 62.0069 29.8938C61.9244 29.8458 61.8431 29.7985 61.7636 29.7516ZM62.7486 98.884L62.7449 98.8861C61.3416 99.6638 59.4259 100.019 57.4784 100.019C54.9092 100.019 52.2703 99.4258 50.6251 98.4581L50.622 98.4563L12.4098 76.5047C12.1648 76.3407 12.0049 76.1666 11.8958 75.9657C11.7852 75.7622 11.7156 75.5107 11.6815 75.1755V13.1406C11.6815 12.5802 11.9913 12.0895 12.4736 11.8097L12.4736 11.8098L12.4811 11.8052L13.2981 11.3035C14.2764 10.7434 15.4222 10.7442 16.4001 11.306L17.9463 12.1948L18.124 12.2969L18.3 12.1919L19.2664 11.6154L19.4371 11.5135V11.3148V9.12865C19.4371 8.56411 19.7506 8.05215 20.2275 7.77478L21.1167 7.27292C21.1172 7.27266 21.1176 7.27241 21.1181 7.27216C22.0987 6.731 23.1773 6.73076 24.1581 7.27145C24.159 7.27194 24.1599 7.27243 24.1607 7.27292L61.5077 28.7708L61.517 28.7761L61.5265 28.7809L62.1003 29.0661C63.0712 29.5971 63.9636 30.0916 64.61 30.952C64.9645 31.4827 65.1791 32.0222 65.2464 32.5492L65.3188 94.9812C65.2496 96.6687 64.3873 98.0015 62.7486 98.884Z" fill="#FAFAFA" stroke="#1271CD" stroke-width="0.7"/>
<path d="M20.1859 13.5142V10.3634C20.2067 10.3752 20.228 10.3866 20.2497 10.3976C32.6617 17.5528 45.146 24.7079 57.6299 31.8627C57.777 31.9634 57.932 32.0522 58.0725 32.1327L58.0797 32.1368C58.2309 32.2234 58.3652 32.3007 58.4863 32.385C58.7238 32.5503 58.8699 32.7152 58.926 32.9461L58.9289 32.9579L58.9325 32.9694C58.9889 33.147 58.9963 33.3178 58.9503 33.4645C58.9066 33.6037 58.8057 33.7523 58.5857 33.8805C57.5325 34.4652 56.2009 34.1887 55.164 33.593L55.1639 33.593L20.1859 13.5142Z" fill="#FAFAFA" stroke="#1271CD" stroke-width="0.7"/>
<path d="M57.6128 31.9165L57.6128 31.9164L57.6045 31.9116L20.7837 10.747L20.2593 10.4456V11.0505V13.3087V13.5114L20.4351 13.6122L55.173 33.5487C55.3945 33.6855 55.8926 33.9406 56.4957 34.076C57.1022 34.2122 57.8619 34.237 58.548 33.8391L58.5517 33.8369L58.5564 33.8341C58.6166 33.7983 58.7501 33.7188 58.84 33.5719C58.942 33.4053 58.9577 33.21 58.907 33.0022C58.8572 32.7691 58.7065 32.6036 58.5412 32.4757C58.3796 32.3507 58.1636 32.2313 57.9166 32.1024L57.6128 31.9165ZM57.9562 31.2212L57.9702 31.2292L57.9848 31.2359L58.2887 31.3754C58.8734 31.6905 59.4787 32.038 59.7003 32.7828C59.8578 33.5058 59.5976 34.1585 58.9707 34.5303C58.4714 34.8102 57.8799 34.9641 57.2368 34.9641C56.4594 34.9641 55.6264 34.7436 54.7814 34.244L54.7814 34.244L54.7776 34.2418L19.6238 14.0622L19.6091 14.0537L19.5937 14.0468C19.4849 13.9976 19.413 13.8822 19.413 13.7171V9.12861C19.413 8.8841 19.5757 8.70986 19.8361 8.70986C20.053 8.70986 20.2593 8.91224 20.2593 9.10459C20.2593 9.37774 20.4016 9.60927 20.6232 9.74149L20.6232 9.74153L20.628 9.74429L57.9562 31.2212Z" fill="#FAFAFA" stroke="#1271CD" stroke-width="0.7"/>
<path d="M42.4805 30.8552L42.48 30.8549L12.859 13.7983L12.8497 13.793L12.8402 13.7882C12.5884 13.6631 12.4545 13.4349 12.4545 13.1167C12.4545 12.8302 12.5834 12.5892 12.8552 12.4372L12.8614 12.4337L12.8675 12.43L13.6802 11.9309C14.4727 11.5082 15.3055 11.5167 16.0109 11.9293L16.0134 11.9308L54.8153 34.2004C55.952 34.8534 57.5665 35.2496 58.929 34.4909L58.937 34.4865L58.9448 34.4816C59.2251 34.3056 59.4177 34.0891 59.5365 33.8407C59.6536 33.5959 59.6886 33.3418 59.6886 33.1041V33.0951L59.6881 33.0861C59.6553 32.4504 59.2193 32.0174 58.7766 31.7112C58.4765 31.5036 58.1119 31.316 57.7936 31.1522C57.6532 31.0799 57.5217 31.0123 57.4088 30.9496C51.2614 27.419 45.132 23.8884 39.0024 20.3576L39.0009 20.3567C32.8701 16.8253 26.7392 13.2938 20.5901 9.76221L20.581 9.75698L20.5716 9.75231C20.3233 9.62889 20.1859 9.37938 20.1859 9.08075C20.1859 8.7943 20.3148 8.55329 20.5866 8.40127L20.5878 8.40061L21.4817 7.89612L21.4826 7.89562C22.2226 7.47517 23.0557 7.4777 23.7665 7.89343L23.7683 7.89448C30.7787 11.9386 37.8169 15.974 44.8485 20.0057C49.3033 22.5599 53.7555 25.1127 58.1963 27.6651C58.1968 27.6654 58.1972 27.6657 58.1977 27.666L61.384 29.5381L61.384 29.5382L61.3905 29.5418C61.5637 29.6387 61.7345 29.7308 61.9016 29.821C62.9062 30.363 63.7798 30.8344 64.2664 31.8393L64.2663 31.8393L64.2697 31.8458C64.6311 32.554 64.6433 33.3156 64.3295 34.0436C64.0129 34.7781 63.3558 35.4948 62.3549 36.067C60.078 37.3607 56.9094 37.6723 54.1014 37.0391C52.6591 36.7037 51.6358 36.1211 50.4108 35.4236C50.109 35.2517 49.795 35.0729 49.4594 34.8891L42.4805 30.8552Z" fill="#FAFAFA" stroke="#1271CD" stroke-width="0.7"/>
<path d="M61.8846 29.8478L61.8846 29.8478L61.8807 29.8455L23.746 7.96884C23.404 7.72767 23.0141 7.64955 22.5904 7.64955C22.2164 7.64955 21.8427 7.73701 21.4511 7.9595L21.451 7.95933L21.4408 7.96557L20.621 8.46907C20.4006 8.60151 20.2592 8.83241 20.2592 9.10463C20.2592 9.37778 20.4016 9.60932 20.6232 9.74153L20.6232 9.74157L20.628 9.74435L57.4247 30.9089L57.4245 30.9092L57.4369 30.9156L57.8948 31.1552L57.896 31.1559L57.9056 31.161C58.2961 31.3672 58.737 31.6001 59.0993 31.917C59.4572 32.2301 59.7128 32.6034 59.763 33.0848C59.7999 33.6871 59.5116 34.2113 58.9686 34.5316C57.8234 35.1971 56.2934 35.1335 54.7776 34.2659C54.7775 34.2658 54.7773 34.2657 54.7772 34.2656L15.9834 11.9767C15.3052 11.5414 14.4684 11.5578 13.7233 11.9693L13.7233 11.9693L13.7206 11.9709L12.8266 12.4754L12.8025 12.489L12.7807 12.5063C12.622 12.6326 12.4553 12.8187 12.4553 13.1165C12.4553 13.3897 12.5977 13.6212 12.8193 13.7534L12.8193 13.7535L12.8243 13.7563L42.5171 30.8126L42.5177 30.8129L50.175 35.2323C50.1752 35.2324 50.1754 35.2325 50.1756 35.2326C50.2177 35.2571 50.2597 35.2815 50.3016 35.3059C51.5242 36.0176 52.6315 36.6622 54.1145 37.0006C57.0101 37.665 60.1233 37.3031 62.3158 36.0259C63.2263 35.51 63.8979 34.8568 64.2424 34.1309C64.5916 33.3952 64.5953 32.6005 64.1917 31.8616C63.7341 30.933 62.8759 30.4296 62.0651 29.9539C62.0046 29.9185 61.9444 29.8831 61.8846 29.8478ZM62.7432 36.6905L62.7432 36.6905L62.7378 36.6936C61.1585 37.6173 59.0961 38.1112 56.971 38.1112C55.9832 38.1112 54.9216 37.9942 53.9302 37.7831C52.3223 37.412 51.0825 36.7169 49.8104 35.9294L49.8105 35.9292L49.8004 35.9235L12.4777 14.4978C11.9906 14.1929 11.6815 13.6759 11.6815 13.1406C11.6815 12.5802 11.9913 12.0895 12.4736 11.8097L12.4736 11.8098L12.4811 11.8052L13.2981 11.3035C14.2764 10.7434 15.4222 10.7442 16.4 11.306C16.4 11.306 16.4 11.306 16.4001 11.306L55.197 33.5967C55.4184 33.7335 55.9166 33.9887 56.5198 34.1241C57.1264 34.2603 57.886 34.2851 58.5721 33.8872L58.5943 33.8743L58.6144 33.8583C58.6903 33.7979 58.7764 33.7181 58.8409 33.6074C58.9087 33.4909 58.9398 33.3627 58.9398 33.2241C58.9398 33.0285 58.8593 32.863 58.762 32.734C58.6655 32.6062 58.5392 32.4959 58.4101 32.4012C58.153 32.2129 57.825 32.0446 57.5376 31.9017C57.4053 31.8359 57.3037 31.7735 57.2041 31.7124C57.1702 31.6916 57.1366 31.6709 57.102 31.6503L57.102 31.6502L57.0971 31.6474L20.2291 10.4595C20.229 10.4594 20.2288 10.4593 20.2286 10.4592C19.7489 10.1807 19.4371 9.66719 19.4371 9.12865C19.4371 8.56412 19.7506 8.05215 20.2274 7.77478L21.1167 7.27292C21.1172 7.27266 21.1176 7.27241 21.1181 7.27215C22.0988 6.73095 23.1776 6.73077 24.1584 7.27161C24.1592 7.27204 24.1599 7.27248 24.1607 7.27292L58.5593 26.9926L58.5607 26.9934L62.2075 29.1066L62.2075 29.1067L62.2138 29.1101C63.3049 29.7129 64.2986 30.2933 64.8971 31.4835L64.8986 31.4864C65.3715 32.4049 65.4029 33.374 65.042 34.2739C64.6788 35.1794 63.9085 36.0366 62.7432 36.6905Z" fill="#FAFAFA" stroke="#1271CD" stroke-width="0.7"/>
<path d="M19.859 12.1739L58.1209 34.1426C57.1687 34.4396 56.0753 34.1507 55.1883 33.6411L55.1882 33.641L18.8271 12.7581L19.859 12.1739Z" fill="#FAFAFA" stroke="#1271CD" stroke-width="0.7"/>
<path d="M20.0102 12.3083L19.8109 12.1939L19.6267 12.3313L19.4334 12.4754L19.0059 12.7943L19.4686 13.0596L55.1969 33.5485C55.4068 33.6785 55.957 33.9912 56.5996 34.0977L56.8311 33.4489L20.0102 12.3083ZM17.854 12.4023L17.8684 12.3957L17.8823 12.3879L19.6069 11.4114C19.77 11.3407 19.9011 11.3406 20.0641 11.411L59.0385 33.7887C59.0392 33.7891 59.0399 33.7896 59.0406 33.79C59.1273 33.8426 59.1819 33.9292 59.1819 34.1608C59.1819 34.1944 59.1652 34.2632 59.1114 34.3523C59.0632 34.4322 59.0017 34.5008 58.9479 34.5438C58.463 34.8325 57.8831 34.9639 57.2366 34.9639C56.4589 34.9639 55.6241 34.7432 54.7764 34.2651C54.776 34.2649 54.7756 34.2646 54.7751 34.2644L17.8843 13.0532L17.8695 13.0447L17.854 13.0376C17.7399 12.9861 17.6732 12.8662 17.6732 12.732C17.6732 12.5668 17.7451 12.4515 17.854 12.4023Z" fill="#FAFAFA" stroke="#1271CD" stroke-width="0.7"/>
<path d="M8.74956 18.6823L8.92711 18.5817V18.3777V15.7592C8.92711 15.4495 9.05646 15.203 9.33584 15.0271L10.2229 14.5265L10.2238 14.526C10.9634 14.1057 11.7933 14.1091 12.5013 14.5439L12.5012 14.5441L12.5101 14.5492L12.5124 14.5505C24.9294 21.6846 37.3467 28.8188 49.7641 35.929C49.9902 36.0626 50.2174 36.1901 50.4423 36.3163C51.1413 36.7085 51.8183 37.0884 52.3739 37.6033C52.8754 38.1485 53.175 38.7471 53.2867 39.3341V39.5423V101.588C53.2409 102.877 52.647 103.826 51.706 104.509C50.751 105.202 49.432 105.622 47.9646 105.803C45.0213 106.165 41.6287 105.546 39.7271 104.439L39.7257 104.438L1.60023 82.481L1.60038 82.4808L1.58784 82.4742C1.39277 82.3721 1.31135 82.2866 1.26875 82.2107C1.22399 82.1309 1.1957 82.0151 1.1957 81.7993V19.747C1.1957 19.4606 1.32459 19.2196 1.59641 19.0675L1.60264 19.0641L1.60872 19.0603L2.42136 18.5612C3.21394 18.1386 4.04671 18.1471 4.75215 18.5597L4.75349 18.5605L6.66218 19.6656L6.83561 19.766L7.00999 19.6672L8.74956 18.6823Z" fill="#FAFAFA" stroke="#1271CD" stroke-width="0.7"/>
<path d="M50.3884 36.3605L50.3883 36.3606C50.51 36.4351 50.6415 36.5127 50.7783 36.5935C51.3104 36.9076 51.9232 37.2695 52.355 37.6783L52.3612 37.6842L52.3611 37.6842C52.8661 38.1863 53.1447 38.7533 53.2314 39.3546L53.2994 39.6248L53.31 39.667L53.3099 39.7106L53.2374 101.618L50.3884 36.3605ZM50.3884 36.3605L50.38 36.3557M50.3884 36.3605L50.38 36.3557M50.38 36.3557L12.5484 14.6169C12.1717 14.3876 11.7696 14.3038 11.4036 14.3038C10.9706 14.3038 10.5647 14.3854 10.182 14.6195L10.1815 14.6198L9.36174 15.1233C9.14137 15.2557 8.99996 15.4866 8.99996 15.7589V18.4014C8.99996 18.4503 8.9808 18.518 8.93371 18.5922C8.8883 18.6637 8.83055 18.7192 8.78352 18.7497L7.06628 19.722C6.90339 19.7926 6.77235 19.7928 6.60965 19.7226L4.71736 18.6271L4.71614 18.6264C3.98048 18.2044 3.19599 18.2041 2.46028 18.6257L1.56733 19.1296L1.56728 19.1295L1.56003 19.1339C1.4678 19.1889 1.37074 19.2669 1.29922 19.3833C1.22629 19.502 1.19607 19.6341 1.19607 19.7708V81.775V81.8267L1.21098 81.8761C1.21703 81.8962 1.22315 81.9172 1.22939 81.9386C1.25216 82.0167 1.27656 82.1004 1.30505 82.1641C1.3584 82.2834 1.43107 82.3614 1.52147 82.4333L1.54219 82.4498M50.38 36.3557L1.54219 82.4498M1.54219 82.4498L1.56515 82.463M1.54219 82.4498L1.56515 82.463M1.56515 82.463L39.7871 104.396C41.1664 105.189 43.2603 105.707 45.3592 105.829C47.4527 105.951 49.6243 105.683 51.1455 104.833M1.56515 82.463L51.1455 104.833M51.1455 104.833C52.5215 104.109 53.2373 103.015 53.2374 101.619L51.1455 104.833ZM50.1522 35.3051L50.1521 35.3053L50.1605 35.3097L50.7354 35.6194C50.7363 35.6198 50.7371 35.6203 50.7379 35.6208C50.797 35.6538 50.856 35.6866 50.9148 35.7194C51.6403 36.1235 52.3421 36.5144 52.9064 37.0755C53.5576 37.723 53.9436 38.4846 54.0113 39.1978L54.0596 101.614C54.0135 103.295 53.1323 104.63 51.5604 105.539C50.0794 106.296 48.1608 106.65 46.2191 106.65C43.6261 106.65 41.0112 106.056 39.3658 105.088L39.3626 105.086L1.15482 83.1614C0.896737 82.9779 0.719989 82.7991 0.604816 82.5999C0.489672 82.4007 0.422266 82.157 0.422266 81.8231V19.7708C0.422266 19.1971 0.694753 18.7183 1.20389 18.4457L1.21303 18.4409L1.22186 18.4354L2.03225 17.9377C3.10054 17.3881 4.17376 17.3593 5.13581 17.9333L5.13578 17.9333L5.1407 17.9361L6.68698 18.825L6.86094 18.925L7.03513 18.8254L8.00155 18.2729L8.17784 18.1721V17.969V15.7589C8.17784 15.1992 8.48683 14.709 8.96817 14.429L9.86022 13.9256L9.86023 13.9256L9.86256 13.9243C10.8418 13.3617 11.9171 13.3617 12.8963 13.9243L12.8965 13.9244L50.1522 35.3051Z" fill="#FAFAFA" stroke="#1271CD" stroke-width="0.7"/>
<path d="M8.85439 20.0246V16.8497C8.87529 16.8616 8.89665 16.873 8.91848 16.8841L28.1174 27.9058L28.1177 27.9059L46.3577 38.4034C46.3577 38.4034 46.3578 38.4035 46.3579 38.4035C46.4702 38.4687 46.5742 38.525 46.6719 38.5779C46.8597 38.6797 47.0242 38.7688 47.1803 38.8839C47.3945 39.0417 47.5352 39.2125 47.5945 39.4564L47.6004 39.481L47.6099 39.5045C47.6807 39.6805 47.6867 39.8458 47.6394 39.985C47.5932 40.1209 47.4847 40.2666 47.2612 40.387L47.2612 40.3869L47.2523 40.3919C46.2012 40.9981 44.8723 40.7236 43.8375 40.1063L43.8375 40.1062L43.8324 40.1033L8.85439 20.0246Z" fill="#FAFAFA" stroke="#1271CD" stroke-width="0.7"/>
<path d="M9.45214 17.2573L8.92775 16.9559V17.5607V19.7949V19.9975L9.10337 20.0984L43.8464 40.0618L43.8499 40.0638C44.0562 40.1791 44.5544 40.4371 45.1625 40.5769C45.7613 40.7145 46.5132 40.7477 47.1956 40.3613C47.2827 40.3238 47.4216 40.2484 47.5188 40.1034C47.6408 39.9214 47.6538 39.6985 47.5638 39.4717C47.439 39.0842 47.1064 38.8834 46.6334 38.6367L46.3296 38.4508L46.3296 38.4507L46.3213 38.4459L9.45214 17.2573ZM46.9948 37.9039L46.9947 37.9041L47.0058 37.9096C47.5608 38.1855 48.1008 38.5131 48.3705 39.2771C48.5263 40.0067 48.2565 40.6939 47.6456 41.037C47.1149 41.3223 46.5203 41.4743 45.9536 41.4743C45.1323 41.4743 44.297 41.2323 43.4189 40.7503L8.27511 20.5764C8.21187 20.5343 8.12979 20.4027 8.12979 20.2273V15.6148C8.12979 15.4769 8.1705 15.3782 8.22181 15.3193C8.26756 15.2668 8.34328 15.2201 8.48044 15.2201C8.69727 15.2201 8.90358 15.4225 8.90358 15.6148C8.90358 15.888 9.04593 16.1195 9.26755 16.2517L9.26753 16.2518L9.2726 16.2547L46.7216 37.7556L46.7216 37.7557L46.729 37.7597L46.9948 37.9039ZM46.461 38.4507H46.5335V38.1007V37.7507H46.461V38.1007V38.4507Z" fill="#FAFAFA" stroke="#1271CD" stroke-width="0.7"/>
<path d="M38.7132 41.6908L38.7098 41.6888L31.1484 37.3652L31.1475 37.3646L1.52746 20.3086L1.51819 20.3032L1.50862 20.2985C1.26037 20.1751 1.12295 19.9256 1.12295 19.6269C1.12295 19.3385 1.2541 19.0955 1.50463 18.9445L2.39461 18.4423L2.39549 18.4418C3.13548 18.0213 3.96863 18.0239 4.67939 18.4396L4.68216 18.4412L43.4788 40.6597C43.4797 40.6602 43.4806 40.6608 43.4815 40.6613C44.6208 41.3401 46.2374 41.7369 47.601 40.9511C48.2496 40.5821 48.4472 39.9476 48.3517 39.4091L48.3508 39.4048C48.2395 38.8197 47.8087 38.4207 47.3789 38.1295C47.1595 37.9808 46.9238 37.8493 46.7019 37.7297C46.6455 37.6993 46.5904 37.6699 46.5366 37.6412C46.3735 37.5541 46.2224 37.4734 46.083 37.3911L46.0796 37.3891C36.7581 32.0251 27.4644 26.6887 18.1459 21.338C15.1945 19.6434 12.2407 17.9473 9.28268 16.2484L9.27358 16.2432L9.26418 16.2385C9.00876 16.1116 8.87852 15.8807 8.87852 15.591C8.87852 15.3046 9.0074 15.0635 9.27922 14.9115L9.28039 14.9109L10.1743 14.4064L10.1744 14.4064L10.179 14.4037C10.8858 13.9903 11.7203 13.9825 12.5142 14.4076L44.7158 32.9029L44.716 32.903L49.6417 35.736C49.8791 35.8786 50.13 36.0186 50.3789 36.1574C50.4394 36.1911 50.4997 36.2248 50.5597 36.2584C50.8709 36.4328 51.1773 36.6083 51.4676 36.7969C52.0509 37.1757 52.5424 37.5908 52.8525 38.1117L52.8536 38.1136C53.3065 38.8642 53.373 39.6708 53.0827 40.4362C52.7894 41.2093 52.1196 41.9695 51.0486 42.5766C48.6992 43.8948 45.4108 44.1819 42.6546 43.5026L42.6509 43.5017C41.1794 43.1563 40.4036 42.6948 39.2324 41.9982C39.0681 41.9005 38.896 41.7981 38.7132 41.6908Z" fill="#FAFAFA" stroke="#1271CD" stroke-width="0.7"/>
<path d="M12.4721 14.4707L12.4707 14.4699C12.0791 14.2474 11.7053 14.1599 11.3313 14.1599C10.9649 14.1599 10.5691 14.2438 10.1997 14.4416L10.1932 14.4451L10.1868 14.4489L9.31209 14.966C9.04478 15.0873 8.92769 15.3537 8.92769 15.615C8.92769 15.8881 9.07004 16.1197 9.29166 16.2519L9.29163 16.2519L9.297 16.255L46.1058 37.3406L46.4809 37.597L46.4992 37.6096L46.519 37.6197C46.9469 37.8385 47.3766 38.0622 47.7251 38.3541C48.0667 38.6403 48.3095 38.9753 48.3875 39.4117L48.3892 39.4212L48.3914 39.4307C48.5446 40.0779 48.2477 40.676 47.6621 41.0174C46.5198 41.6818 44.9896 41.5985 43.4682 40.7511C43.4676 40.7507 43.4669 40.7504 43.4663 40.75L4.67319 18.4854C3.98342 18.0595 3.14526 18.0593 2.45533 18.4847L1.56755 18.9857L1.5675 18.9857L1.56025 18.99C1.33863 19.1222 1.19628 19.3537 1.19628 19.6269C1.19628 19.9 1.33863 20.1316 1.56025 20.2638L1.56022 20.2638L1.5651 20.2666L31.186 37.2991L31.1861 37.2992L39.3281 41.9837L39.3318 41.9858C39.4235 42.0371 39.5126 42.0872 39.5997 42.1361C40.6087 42.7035 41.3425 43.1161 42.6807 43.4376C45.5097 44.1525 48.8154 43.7884 51.0773 42.5143C52.1793 41.9025 52.8863 41.038 53.1075 40.1033L53.1075 40.1033L53.1088 40.0975C53.2471 39.4649 53.1647 38.7727 52.802 38.1623L52.7983 38.1561L52.7945 38.1502C52.2068 37.2472 51.1797 36.6802 50.2321 36.162L12.4721 14.4707ZM51.4388 43.1992L51.4388 43.1992L51.4324 43.2029C49.8259 44.1289 47.8343 44.6215 45.712 44.6215C44.5774 44.6215 43.5181 44.5041 42.4604 44.2471L42.4598 44.2469C40.9472 43.8823 40.1651 43.4123 39.0421 42.7375L38.9822 42.7016L38.9823 42.7015L38.9762 42.6981L1.14203 20.9817C1.14181 20.9816 1.14159 20.9815 1.14137 20.9814C0.66171 20.7028 0.35 20.1894 0.35 19.6509C0.35 19.0906 0.659719 18.5998 1.14203 18.3201L1.14204 18.3201L1.14455 18.3186L2.03656 17.7912C3.01529 17.2297 4.08974 17.2301 5.06836 17.7922C5.06841 17.7922 5.06846 17.7923 5.06851 17.7923L43.8704 40.1099L43.874 40.112C44.0803 40.2273 44.5785 40.4853 45.1866 40.6251C45.7887 40.7635 46.5456 40.7962 47.2309 40.4031C47.3386 40.3487 47.486 40.26 47.5709 40.0988C47.6631 39.9237 47.643 39.7439 47.5971 39.5967C47.5242 39.2697 47.2479 39.0276 47.0099 38.8598C46.7523 38.6783 46.4361 38.5147 46.1522 38.3733C46.072 38.3213 45.9846 38.272 45.9084 38.2299C45.8843 38.2166 45.8616 38.2042 45.8404 38.1925C45.7838 38.1615 45.7371 38.1359 45.698 38.1126L45.698 38.1125L45.6929 38.1096L8.87344 16.9698C8.87323 16.9697 8.87301 16.9696 8.8728 16.9695C8.41551 16.7039 8.15389 16.204 8.15389 15.639C8.15389 15.0259 8.41559 14.5499 8.87302 14.2844C8.87316 14.2843 8.8733 14.2842 8.87344 14.2842L9.78782 13.7578C10.773 13.2147 11.9197 13.2212 12.8202 13.7541L12.8201 13.7541L12.824 13.7563L45.0783 32.3022L45.0784 32.3023L50.5869 35.4733L50.5936 35.4771L50.6004 35.4807C51.7191 36.0611 52.8392 36.6954 53.4825 37.7541L53.4866 37.7608L53.4909 37.7672C54.0123 38.5448 54.1429 39.4244 53.9031 40.3146C53.5936 41.4348 52.7702 42.4688 51.4388 43.1992Z" fill="#FAFAFA" stroke="#1271CD" stroke-width="0.7"/>
<path d="M8.52531 18.659L46.7784 40.6226C45.8548 40.9184 44.7423 40.6316 43.8617 40.1063L43.8617 40.1062L43.8567 40.1033L7.50216 19.2242L8.52531 18.659Z" fill="#FAFAFA" stroke="#1271CD" stroke-width="0.7"/>
<path d="M8.67868 18.8191L8.51628 18.7258L8.34859 18.8092L8.15531 18.9053L7.5699 19.1963L8.1367 19.5221L43.8651 40.0591C44.0749 40.189 44.6253 40.5019 45.268 40.6084L45.4995 39.9596L8.67868 18.8191ZM47.6469 41.0365L47.6385 41.0411L47.6303 41.0461C47.1873 41.3188 46.601 41.4747 45.9534 41.4747C45.1321 41.4747 44.2968 41.2327 43.4188 40.7507L6.55884 19.5914C6.51168 19.561 6.45359 19.5053 6.40794 19.4334C6.36085 19.3593 6.3417 19.2916 6.3417 19.2427C6.3417 19.1939 6.36085 19.1261 6.40794 19.052C6.45336 18.9805 6.51111 18.925 6.55814 18.8945L8.27538 17.9221C8.43844 17.8515 8.56959 17.8513 8.73254 17.9218L47.712 40.3024L47.7119 40.3025L47.7194 40.3066C47.8536 40.3793 47.9228 40.5129 47.9228 40.6716C47.9228 40.7711 47.8359 40.9341 47.6469 41.0365Z" fill="#FAFAFA" stroke="#1271CD" stroke-width="0.7"/>
<path d="M1.57559 82.5047L1.57573 82.5044L1.56343 82.498C1.36835 82.3959 1.28694 82.3104 1.24433 82.2345C1.19958 82.1547 1.17129 82.0389 1.17129 81.8231V20.9046L39.2008 42.7954V104.136L1.57559 82.5047Z" fill="#FAFAFA" stroke="#1271CD" stroke-width="0.7"/>
<path d="M39.1518 43.0017V42.799L38.976 42.6981L1.72028 21.3173L1.19607 21.0165V21.6209V81.7753V81.827L1.21098 81.8764C1.21703 81.8965 1.22314 81.9174 1.22938 81.9388C1.25216 82.017 1.27656 82.1007 1.30505 82.1644C1.3584 82.2837 1.43107 82.3617 1.52147 82.4336L1.54214 82.4501L1.56505 82.4632L38.6275 103.748L39.1518 104.049V103.444V43.0017ZM0.950261 19.9556L0.967041 19.9681L0.985192 19.9785L39.7567 42.2445C39.8039 42.2749 39.862 42.3307 39.9077 42.4026C39.9548 42.4767 39.9739 42.5444 39.9739 42.5933V104.766C39.9739 104.796 39.9591 104.857 39.9077 104.938C39.8677 105.001 39.8161 105.059 39.7647 105.104C39.6969 105.125 39.6175 105.136 39.5508 105.136C39.4803 105.136 39.4242 105.123 39.3677 105.09L39.3625 105.087L1.15482 83.1617C0.896739 82.9782 0.71999 82.7994 0.604816 82.6002C0.489672 82.401 0.422266 82.1573 0.422266 81.8234V20.2996C0.422266 20.1654 0.488928 20.0455 0.602984 19.9939L0.637609 19.9783L0.66807 19.9556C0.694049 19.9362 0.743895 19.9169 0.809165 19.9169C0.874435 19.9169 0.924282 19.9362 0.950261 19.9556Z" fill="#FAFAFA" stroke="#1271CD" stroke-width="0.7"/>
<path d="M57.5642 47.92L57.5644 47.9198L57.557 47.9081C57.4873 47.7972 57.4812 47.6967 57.5056 47.6144C57.5312 47.5283 57.5986 47.4355 57.7215 47.3668L57.7215 47.3668L57.7254 47.3646L62.7267 44.4818L62.7267 44.4818L62.7312 44.4791C62.9208 44.366 63.1631 44.4216 63.2862 44.6392L63.2859 44.6393L63.2932 44.651C63.3332 44.7156 63.3533 44.8218 63.3256 44.9391C63.2989 45.0524 63.2348 45.1452 63.1478 45.198L58.1255 48.079L58.1254 48.079L58.1203 48.0821C57.9458 48.1861 57.6721 48.1077 57.5642 47.92Z" fill="#FAFAFA" stroke="#1271CD" stroke-width="0.7"/>
<path d="M57.5642 55.5835L57.5644 55.5834L57.557 55.5717C57.4293 55.3685 57.4991 55.1414 57.7064 55.0383L57.7161 55.0335L57.7254 55.0282L62.7267 52.1454L62.7267 52.1454L62.7312 52.1427C62.9208 52.0296 63.1631 52.0852 63.2862 52.3027L63.2859 52.3029L63.2932 52.3146C63.3332 52.3792 63.3533 52.4853 63.3256 52.6026C63.2989 52.7159 63.2348 52.8088 63.1478 52.8616L58.1255 55.7426L58.1254 55.7426L58.1203 55.7456C57.9458 55.8497 57.6721 55.7713 57.5642 55.5835Z" fill="#FAFAFA" stroke="#1271CD" stroke-width="0.7"/>
<path d="M58.1487 91.3051L58.1488 91.305L58.1392 91.2994C57.6255 90.9966 57.2968 90.3899 57.2968 89.4628C57.2968 88.5647 57.6053 87.5678 58.1253 86.6716C58.6452 85.7756 59.3603 85.0081 60.1427 84.5524C60.9459 84.0866 61.6504 84.0607 62.1569 84.3591C62.6694 84.6611 62.9994 85.2907 62.9994 86.1956C62.9994 87.0937 62.6908 88.0907 62.1708 88.9869C61.6512 89.8823 60.9367 90.6495 60.1547 91.1053C59.6882 91.3701 59.2406 91.4911 58.8796 91.4911C58.5902 91.4911 58.3454 91.4296 58.1487 91.3051Z" fill="#FAFAFA" stroke="#1271CD" stroke-width="0.7"/>
<path d="M56.9299 90.9097L56.9302 90.9096L56.9245 90.8977C56.7353 90.5005 56.6444 90.0267 56.6444 89.4627C56.6444 88.455 56.9841 87.3382 57.563 86.3481C58.1414 85.359 58.9467 84.5168 59.8298 83.999L59.8301 83.9988C60.3246 83.7083 60.7773 83.5629 61.2156 83.5422L61.2231 83.5418L61.2306 83.5411C61.6862 83.5 62.1217 83.6018 62.4973 83.8078C62.8748 84.0387 63.184 84.3701 63.3687 84.7783L63.3687 84.7783L63.3716 84.7845C63.565 85.1903 63.6758 85.6669 63.6758 86.2195C63.6758 87.2272 63.3362 88.344 62.7573 89.334C62.1791 90.3229 61.3741 91.1648 60.4913 91.6827C60.2205 91.8397 59.9396 91.967 59.715 92.0293C59.3877 92.0987 59.1294 92.1396 58.8796 92.1396C58.6882 92.1396 58.496 92.1185 58.3028 92.0758C58.1378 92.0393 57.9853 91.9663 57.7927 91.8707C57.4124 91.637 57.1111 91.3299 56.9299 90.9097ZM58.3856 91.4817L58.4198 91.4988L58.4569 91.508C58.5585 91.5332 58.7139 91.5664 58.8555 91.5664C59.0595 91.5664 59.2575 91.5371 59.4714 91.484C59.7044 91.4261 59.9534 91.3149 60.1709 91.1803C60.9806 90.7114 61.6961 89.9428 62.2032 89.0605C62.7065 88.1847 63.047 87.1875 63.047 86.2435C63.047 85.798 62.9686 85.3855 62.822 85.065L62.8223 85.0649L62.8164 85.0533C62.6705 84.7631 62.4565 84.5123 62.1656 84.3516C61.883 84.1955 61.5715 84.1357 61.2424 84.1651C60.8626 84.1946 60.475 84.3374 60.108 84.5459L60.108 84.5459L60.1059 84.5471C59.2941 85.0158 58.5763 85.786 58.0677 86.6956C57.565 87.5709 57.2249 88.5674 57.2249 89.5107C57.2249 89.9562 57.3034 90.3687 57.4499 90.6892L57.4497 90.6893L57.4555 90.701C57.6015 90.9912 57.8155 91.2419 58.1064 91.4026L58.1854 91.4463H58.2756C58.2753 91.4463 58.287 91.4465 58.3097 91.4526C58.3314 91.4583 58.3576 91.4678 58.3856 91.4817Z" fill="#FAFAFA" stroke="#1271CD" stroke-width="0.7"/>
<path d="M57.372 90.2177C57.3086 89.9832 57.2724 89.7305 57.2724 89.4387C57.2724 88.5406 57.5809 87.5437 58.1009 86.6474C58.6202 85.7525 59.3342 84.9857 60.1157 84.5298C60.5784 84.2726 61.0054 84.1485 61.3752 84.1354C61.4399 84.3721 61.477 84.6272 61.477 84.9223C61.477 85.8204 61.1684 86.8173 60.6484 87.7135C60.1289 88.609 59.4143 89.3761 58.6324 89.832C58.1703 90.0942 57.7518 90.2147 57.372 90.2177Z" fill="#FAFAFA" stroke="#1271CD" stroke-width="0.7"/>
<path d="M56.691 90.1003L56.6893 90.0832L56.6859 90.0663C56.6454 89.8651 56.6444 89.6825 56.6444 89.4386C56.6444 88.431 56.9841 87.3142 57.563 86.3241C58.1409 85.3357 58.9454 84.4941 59.8277 83.9762C60.1375 83.8004 60.4716 83.6672 60.7843 83.5782C61.1062 83.4932 61.4186 83.4749 61.6777 83.5145L61.6776 83.5147L61.6874 83.5159L61.8694 83.5385L61.9359 83.7039C61.9967 83.866 62.0402 84.0562 62.0881 84.2946C62.1286 84.4958 62.1296 84.6784 62.1296 84.9223C62.1296 85.9299 61.7899 87.0467 61.211 88.0368C60.6328 89.0257 59.8278 89.8676 58.9449 90.3855C58.682 90.5379 58.4167 90.6485 58.1452 90.7387C57.86 90.8256 57.606 90.8664 57.3575 90.8664H57.2413L57.1248 90.847L57.1178 90.8459L57.1107 90.845L56.9158 90.8208L56.8346 90.6478C56.7669 90.467 56.71 90.2893 56.691 90.1003ZM57.2539 89.977L57.3165 90.35L57.6835 90.2588C57.7084 90.2526 57.7189 90.2508 57.7341 90.2481C57.7484 90.2457 57.7668 90.2425 57.8049 90.2344C57.8564 90.2234 57.9163 90.2074 57.9838 90.1777C58.2125 90.1156 58.4292 90.0046 58.6381 89.8891L58.6382 89.8892L58.6439 89.8859C59.4557 89.4172 60.173 88.6473 60.681 87.7632C61.1843 86.8875 61.5249 85.8903 61.5249 84.9463C61.5249 84.9415 61.5249 84.9367 61.5249 84.9318C61.5249 84.7741 61.5249 84.5812 61.4959 84.408L61.4469 84.1158H61.1507C61.1124 84.1158 61.0784 84.1204 61.0564 84.1238C61.0349 84.1272 61.0137 84.1314 61 84.1341L60.9979 84.1345C60.9839 84.1373 60.976 84.1389 60.9703 84.1398H60.9434L60.9061 84.1481C60.6484 84.205 60.3729 84.316 60.1038 84.4762C59.2938 84.9445 58.5776 85.7129 58.0696 86.6202C57.5372 87.5043 57.2249 88.501 57.2249 89.4386L57.2249 89.4531C57.2249 89.6108 57.2249 89.8037 57.2539 89.977Z" fill="#FAFAFA" stroke="#1271CD" stroke-width="0.7"/>
<path d="M68.8957 41.4097L68.8959 41.4096L68.8886 41.3978C68.8188 41.2869 68.8128 41.1864 68.8372 41.1041C68.8627 41.018 68.9301 40.9253 69.053 40.8566L69.053 40.8566L69.057 40.8543L74.0582 37.9715L74.0582 37.9716L74.0627 37.9689C74.2524 37.8557 74.4946 37.9114 74.6177 38.1289L74.6175 38.129L74.6247 38.1408C74.6647 38.2054 74.6848 38.3115 74.6572 38.4288C74.6305 38.5421 74.5663 38.635 74.4794 38.6877L69.457 41.5688L69.457 41.5687L69.4518 41.5718C69.2774 41.6759 69.0036 41.5974 68.8957 41.4097Z" fill="#FAFAFA" stroke="#1271CD" stroke-width="0.7"/>
<path d="M68.8957 49.0733L68.8959 49.0731L68.8886 49.0614C68.7608 48.8582 68.8306 48.6312 69.038 48.5281L69.0476 48.5233L69.057 48.5179L74.0582 45.6351L74.0582 45.6351L74.0627 45.6324C74.2524 45.5193 74.4946 45.5749 74.6177 45.7925L74.6175 45.7926L74.6247 45.8043C74.6647 45.8689 74.6848 45.9751 74.6572 46.0924C74.6305 46.2057 74.5663 46.2986 74.4794 46.3513L69.457 49.2324L69.457 49.2323L69.4518 49.2354C69.2774 49.3395 69.0036 49.261 68.8957 49.0733Z" fill="#FAFAFA" stroke="#1271CD" stroke-width="0.7"/>
<path d="M69.4797 84.7949L69.4798 84.7947L69.4703 84.7891C68.9565 84.4864 68.6278 83.8796 68.6278 82.9526C68.6278 82.0545 68.9364 81.0576 69.4564 80.1613C69.9762 79.2654 70.6913 78.4979 71.4738 78.0421C72.277 77.5763 72.9815 77.5504 73.488 77.8489C74.0004 78.1508 74.3304 78.7804 74.3304 79.6854C74.3304 80.5835 74.0219 81.5804 73.5018 82.4766C72.9823 83.3721 72.2677 84.1392 71.4858 84.5951C71.0193 84.8598 70.5717 84.9809 70.2107 84.9809C69.9213 84.9809 69.6764 84.9194 69.4797 84.7949Z" fill="#FAFAFA" stroke="#1271CD" stroke-width="0.7"/>
<path d="M68.261 84.3994L68.2612 84.3993L68.2556 84.3874C68.0663 83.9902 67.9755 83.5164 67.9755 82.9524C67.9755 81.9448 68.3151 80.828 68.8941 79.8379C69.4724 78.8487 70.2777 78.0066 71.1609 77.4887L71.1611 77.4886C71.6557 77.198 72.1083 77.0527 72.5467 77.0319L72.5542 77.0316L72.5616 77.0309C73.0173 76.9897 73.4528 77.0916 73.8284 77.2975C74.2116 77.5317 74.5152 77.8398 74.6972 78.2623L74.697 78.2624L74.7027 78.2742C74.896 78.6801 75.0069 79.1566 75.0069 79.7093C75.0069 80.7169 74.6673 81.8337 74.0883 82.8238C73.5076 83.817 72.7028 84.6786 71.8274 85.1696L71.8273 85.1696L71.823 85.1721C71.552 85.3293 71.2708 85.4567 71.0461 85.519C70.7187 85.5885 70.4604 85.6294 70.2107 85.6294C70.0192 85.6294 69.8271 85.6082 69.6339 85.5655C69.4688 85.5291 69.3163 85.4561 69.1238 85.3604C68.7435 85.1267 68.4421 84.8196 68.261 84.3994ZM74.1531 78.5548L74.1533 78.5547L74.1475 78.543C74.0015 78.2528 73.7875 78.002 73.4966 77.8414C73.2141 77.6853 72.9026 77.6255 72.5735 77.6548C72.1936 77.6843 71.806 77.8271 71.4391 78.0356L71.4391 78.0356L71.437 78.0368C70.6251 78.5055 69.9074 79.2758 69.3988 80.1853C68.8961 81.0606 68.556 82.0571 68.556 83.0005C68.556 83.446 68.6345 83.8585 68.781 84.179L68.7808 84.1791L68.7866 84.1907C68.9325 84.4809 69.1466 84.7317 69.4374 84.8924L69.5164 84.936H69.5906C69.5967 84.9377 69.606 84.9405 69.6204 84.9453L69.6517 84.9559L69.6902 84.9689C69.7175 84.978 69.7513 84.9886 69.788 84.9977C69.8896 85.023 70.0449 85.0561 70.1865 85.0561C70.3905 85.0561 70.5886 85.0269 70.8025 84.9737C71.0354 84.9158 71.2845 84.8046 71.5019 84.6701C72.3117 84.2012 73.0272 83.4325 73.5342 82.5502C74.0375 81.6745 74.3781 80.6773 74.3781 79.7333C74.3781 79.2878 74.2996 78.8753 74.1531 78.5548Z" fill="#FAFAFA" stroke="#1271CD" stroke-width="0.7"/>
<path d="M68.7036 83.7075C68.6402 83.473 68.6039 83.2202 68.6039 82.9284C68.6039 82.0303 68.9125 81.0334 69.4325 80.1372C69.9517 79.2422 70.6658 78.4755 71.4472 78.0195C71.9099 77.7624 72.337 77.6382 72.7067 77.6251C72.7714 77.8618 72.8085 78.117 72.8085 78.412C72.8085 79.3101 72.5 80.307 71.98 81.2033C71.4604 82.0987 70.7459 82.8658 69.9639 83.3217C69.5019 83.584 69.0833 83.7044 68.7036 83.7075Z" fill="#FAFAFA" stroke="#1271CD" stroke-width="0.7"/>
<path d="M68.0216 83.6101L68.02 83.595L68.0169 83.58C67.9765 83.3788 67.9755 83.1962 67.9755 82.9523C67.9755 81.9447 68.3151 80.8279 68.8941 79.8378C69.472 78.8494 70.2765 78.0078 71.1588 77.4898C71.4686 77.3141 71.8027 77.1809 72.1154 77.0918C72.4373 77.0069 72.7497 76.9886 73.0087 77.0282L73.0087 77.0283L73.0185 77.0296L73.2005 77.0522L73.267 77.2175C73.3277 77.3797 73.3712 77.5699 73.4192 77.8083L73.7623 77.7393L73.4192 77.8083C73.4596 78.0094 73.4606 78.1921 73.4606 78.4359C73.4606 79.4436 73.121 80.5604 72.5421 81.5505C71.9638 82.5394 71.1588 83.3813 70.2759 83.8992C69.9946 84.0623 69.7391 84.1863 69.4981 84.2462L69.489 84.2485L69.4801 84.2512C69.1933 84.339 68.9381 84.38 68.6886 84.38H68.5724L68.4559 84.3607L68.4489 84.3596L68.4418 84.3587L68.2469 84.3345L68.1657 84.1616C68.0999 83.985 68.0408 83.7812 68.0216 83.6101ZM68.585 83.4906L68.6475 83.8637L69.0146 83.7724C69.0395 83.7663 69.05 83.7645 69.0652 83.7618C69.0794 83.7594 69.0978 83.7562 69.136 83.7481C69.1874 83.7371 69.2472 83.7211 69.3146 83.6915C69.5375 83.6316 69.7729 83.5247 69.9798 83.3968C70.7896 82.9278 71.5051 82.1592 72.0121 81.2769C72.5154 80.4012 72.8559 79.404 72.8559 78.46C72.8559 78.4552 72.8559 78.4504 72.8559 78.4455C72.856 78.2879 72.856 78.0949 72.827 77.9216L72.778 77.6295H72.4818C72.4434 77.6295 72.4094 77.634 72.3875 77.6375C72.366 77.6409 72.3448 77.6451 72.331 77.6478L72.329 77.6482C72.3149 77.651 72.3071 77.6525 72.3013 77.6535H72.2745L72.2371 77.6618C71.9795 77.7187 71.7039 77.8297 71.4348 77.9899C70.6254 78.4579 69.9097 79.2255 69.4017 80.132C68.8665 80.9964 68.556 82.0176 68.556 82.9523L68.556 82.9669C68.556 83.1245 68.5559 83.3174 68.585 83.4906Z" fill="#FAFAFA" stroke="#1271CD" stroke-width="0.7"/>
<path d="M46.8427 54.5898L46.8427 54.5897L46.8376 54.5928C46.6634 54.6967 46.3903 54.6187 46.282 54.4317C46.1547 54.2054 46.234 53.9798 46.4237 53.8855L46.4334 53.8807L46.4427 53.8753L51.444 50.9925L51.444 50.9926L51.4485 50.9899C51.6381 50.8767 51.8804 50.9324 52.0034 51.1499L52.0032 51.15L52.0105 51.1618C52.0505 51.2264 52.0706 51.3325 52.0429 51.4498C52.0162 51.5631 51.9521 51.656 51.8651 51.7087L46.8427 54.5898Z" fill="#FAFAFA" stroke="#1271CD" stroke-width="0.7"/>
<path d="M46.8427 62.2289L46.8427 62.2289L46.8376 62.2319C46.6634 62.3358 46.3903 62.2579 46.282 62.0708C46.161 61.8558 46.2217 61.6381 46.4388 61.5167L46.4388 61.5167L46.4427 61.5145L51.444 58.6317L51.444 58.6317L51.4485 58.629C51.6381 58.5159 51.8804 58.5715 52.0034 58.7891L52.0032 58.7892L52.0105 58.8009C52.0505 58.8655 52.0706 58.9717 52.0429 59.089C52.0162 59.2023 51.9521 59.2951 51.8651 59.3479L46.8427 62.2289Z" fill="#FAFAFA" stroke="#1271CD" stroke-width="0.7"/>
<path d="M46.8655 97.8154L46.8656 97.8152L46.856 97.8096C46.3423 97.5069 46.0136 96.9001 46.0136 95.9731C46.0136 95.075 46.3221 94.0781 46.8421 93.1818C47.362 92.2859 48.0771 91.5184 48.8595 91.0626C49.6627 90.5968 50.3672 90.5709 50.8737 90.8694C51.3862 91.1713 51.7162 91.8009 51.7162 92.7059C51.7162 93.604 51.4076 94.6009 50.8876 95.4971C50.3677 96.3932 49.6525 97.1608 48.8699 97.6165L48.8699 97.6165L48.8667 97.6184C48.4302 97.8788 47.9841 98.0014 47.5964 98.0014C47.307 98.0014 47.0622 97.9398 46.8655 97.8154Z" fill="#FAFAFA" stroke="#1271CD" stroke-width="0.7"/>
<path d="M45.647 97.396L45.6472 97.3959L45.6415 97.384C45.4482 96.9782 45.3373 96.5016 45.3373 95.949C45.3373 94.9413 45.6769 93.8246 46.2559 92.8345C46.8342 91.8453 47.6395 91.0032 48.5227 90.4853L48.5229 90.4852C49.0175 90.1946 49.4701 90.0493 49.9085 90.0285L49.9159 90.0282L49.9234 90.0275C50.3791 89.9863 50.8146 90.0882 51.1901 90.2941C51.5677 90.525 51.8769 90.8564 52.0616 91.2646L52.0615 91.2646L52.0645 91.2708C52.2578 91.6767 52.3687 92.1532 52.3687 92.7058C52.3687 93.7135 52.0291 94.8303 51.4501 95.8204C50.8694 96.8136 50.0646 97.6752 49.1892 98.1662L49.1891 98.1662L49.1848 98.1687C48.9245 98.3197 48.6618 98.4296 48.3932 98.5193C48.1268 98.5847 47.8468 98.6259 47.5966 98.6259C47.4052 98.6259 47.2131 98.6048 47.0198 98.5621C46.8548 98.5257 46.7023 98.4526 46.5097 98.357C46.1294 98.1233 45.8281 97.8162 45.647 97.396ZM48.9014 97.6727L48.9015 97.6728L48.9072 97.6695C49.719 97.2008 50.4363 96.4309 50.9443 95.5468C51.4476 94.6711 51.7882 93.6739 51.7882 92.7299C51.7882 92.2844 51.7097 91.8719 51.5632 91.5513L51.5634 91.5512L51.5576 91.5396C51.4117 91.2494 51.1976 90.9986 50.9068 90.838C50.6242 90.6819 50.3127 90.6221 49.9836 90.6514C49.6037 90.6809 49.2162 90.8237 48.8492 91.0322L48.8492 91.0322L48.8471 91.0334C48.0353 91.5021 47.3175 92.2723 46.8089 93.1819C46.3062 94.0572 45.9661 95.0537 45.9661 95.997C45.9661 96.4425 46.0446 96.855 46.1911 97.1756L46.1909 97.1757L46.1967 97.1873C46.3427 97.4775 46.5567 97.7283 46.8476 97.889L46.8759 97.9046L46.9067 97.9148C46.992 97.9431 47.0994 97.9698 47.1897 97.9922L47.1981 97.9943L47.2059 97.9963C47.301 98.0199 47.4327 98.0527 47.5966 98.0527C47.8006 98.0527 47.9987 98.0235 48.2126 97.9703C48.4541 97.9103 48.682 97.794 48.9014 97.6727Z" fill="#FAFAFA" stroke="#1271CD" stroke-width="0.7"/>
<path d="M47.3496 96.3422C46.8876 96.6045 46.4691 96.7249 46.0893 96.728C46.0259 96.4935 45.9896 96.2407 45.9896 95.9489C45.9896 95.0508 46.2982 94.0539 46.8182 93.1577C47.3375 92.2628 48.0515 91.496 48.833 91.04C49.2956 90.7829 49.7227 90.6587 50.0925 90.6456C50.1572 90.8823 50.1943 91.1375 50.1943 91.4325C50.1943 92.3306 49.8857 93.3275 49.3657 94.2238C48.8461 95.1192 48.1316 95.8863 47.3496 96.3422Z" fill="#FAFAFA" stroke="#1271CD" stroke-width="0.7"/>
<path d="M50.3945 90.0248L50.3944 90.0249L50.4042 90.0261L50.5862 90.0488L50.6527 90.2141C50.7135 90.3763 50.757 90.5665 50.8049 90.8049C50.8454 91.006 50.8464 91.1887 50.8464 91.4325C50.8464 92.4402 50.5067 93.557 49.9278 94.5471C49.3471 95.5403 48.5422 96.4019 47.6668 96.8929L47.6668 96.8928L47.6624 96.8954C47.3993 97.048 47.1337 97.1587 46.862 97.249C46.5768 97.3359 46.3228 97.3766 46.0743 97.3766H45.9581L45.8416 97.3573L45.8346 97.3562L45.8275 97.3553L45.6326 97.3311L45.5516 97.1585C45.4925 96.9983 45.4498 96.8107 45.4027 96.5766C45.3622 96.3754 45.3612 96.1928 45.3612 95.9489C45.3612 94.9413 45.7009 93.8245 46.2798 92.8344C46.8577 91.846 47.6622 91.0044 48.5445 90.4864C48.8543 90.3107 49.1884 90.1775 49.5011 90.0884C49.823 90.0034 50.1354 89.9852 50.3945 90.0248ZM45.9707 96.4872L46.0333 96.8603L46.4003 96.769C46.4252 96.7629 46.4357 96.7611 46.4509 96.7584C46.4652 96.756 46.4836 96.7528 46.5217 96.7447C46.5732 96.7337 46.6331 96.7177 46.7006 96.688C46.9293 96.6258 47.146 96.5149 47.3549 96.3994L47.355 96.3995L47.3607 96.3962C48.1725 95.9275 48.8898 95.1576 49.3978 94.2735C49.9011 93.3978 50.2417 92.4006 50.2417 91.4565C50.2417 91.4518 50.2417 91.4469 50.2417 91.4421C50.2417 91.2844 50.2418 91.0915 50.2127 90.9182L50.1637 90.6261H49.8675C49.8292 90.6261 49.7952 90.6306 49.7732 90.6341C49.7517 90.6374 49.7305 90.6417 49.7168 90.6444L49.7147 90.6448C49.7007 90.6476 49.6928 90.6491 49.6871 90.6501H49.6602L49.6229 90.6583C49.3652 90.7153 49.0897 90.8263 48.8206 90.9865C48.0096 91.4553 47.2927 92.225 46.7845 93.1338C46.2818 94.0091 45.9417 95.0056 45.9417 95.9489L45.9417 95.9634C45.9417 96.1211 45.9417 96.314 45.9707 96.4872Z" fill="#FAFAFA" stroke="#1271CD" stroke-width="0.7"/>
</svg>
