<svg width="87" height="101" viewBox="0 0 87 101" fill="none" xmlns="http://www.w3.org/2000/svg">
<path fill-rule="evenodd" clip-rule="evenodd" d="M1.86434 12.0318V86.6921L33.5405 81.09V6.42969L1.86434 12.0318Z" stroke="#1271CD" stroke-width="1.42245" stroke-miterlimit="22.9256" stroke-linecap="round" stroke-linejoin="round"/>
<path fill-rule="evenodd" clip-rule="evenodd" d="M33.5409 6.42969V81.09L50.9351 100.213V25.553L33.5409 6.42969Z" stroke="#1271CD" stroke-width="1.42245" stroke-miterlimit="22.9256" stroke-linecap="round" stroke-linejoin="round"/>
<path d="M50.9695 25.5527H86V100.178H50.9695V25.5527Z" stroke="#1271CD" stroke-width="1.42245" stroke-miterlimit="22.9256" stroke-linecap="round" stroke-linejoin="round"/>
<path fill-rule="evenodd" clip-rule="evenodd" d="M1.00022 7.18994V81.8502L1.86475 86.6916V12.0313L1.00022 7.18994Z" stroke="#1271CD" stroke-width="1.42245" stroke-miterlimit="22.9256" stroke-linecap="round" stroke-linejoin="round"/>
<path fill-rule="evenodd" clip-rule="evenodd" d="M1.86453 12.0313L33.5407 6.42921L50.9349 25.5525H86V20.642H53.8052L36.1343 1L1 7.18999L1.86453 12.0313Z" stroke="#1271CD" stroke-width="1.42245" stroke-miterlimit="22.9256" stroke-linecap="round" stroke-linejoin="round"/>
<path fill-rule="evenodd" clip-rule="evenodd" d="M33.5405 16.1123L12.4115 19.8471V61.4479L33.5405 57.6786V54.6701L15.4546 57.6786V39.2124L33.5405 36.1693V33.1261L15.4546 36.2038V22.164L33.5405 19.1209V16.1123Z" stroke="#1271CD" stroke-width="1.42245" stroke-miterlimit="22.9256" stroke-linecap="round" stroke-linejoin="round"/>
<path fill-rule="evenodd" clip-rule="evenodd" d="M50.9351 33.4719L45.7825 28.2848L33.5409 16.1123V19.1209L45.7825 31.3279V45.3332L43.5694 43.1546V46.1977L45.7825 48.3418V49.6212L47.892 51.7653V33.4374L50.9351 36.4805V33.4719Z" stroke="#1271CD" stroke-width="1.42245" stroke-miterlimit="22.9256" stroke-linecap="round" stroke-linejoin="round"/>
<path fill-rule="evenodd" clip-rule="evenodd" d="M33.5409 57.6783L34.7859 58.9578V74.7959L47.892 87.8675L50.9351 90.876V87.8675L47.892 84.859V73.5856L45.7825 71.4415V82.7149L36.999 73.9314V55.396L34.7859 53.252V55.9493L33.5409 54.6698V57.6783Z" stroke="#1271CD" stroke-width="1.42245" stroke-miterlimit="22.9256" stroke-linecap="round" stroke-linejoin="round"/>
<path fill-rule="evenodd" clip-rule="evenodd" d="M33.5409 33.126V36.1691L34.7858 37.4486V45.5751L36.999 47.6846V39.558L38.1055 40.7338V37.7252L36.999 36.5495L35.8923 35.4775L34.7858 34.4055L33.5409 33.126Z" stroke="#1271CD" stroke-width="1.42245" stroke-miterlimit="22.9256" stroke-linecap="round" stroke-linejoin="round"/>
<path fill-rule="evenodd" clip-rule="evenodd" d="M50.9351 66.531V63.5224L47.892 60.4793V59.4419L45.7825 57.2979V63.7299L47.892 65.8739V63.4878L50.9351 66.531Z" stroke="#1271CD" stroke-width="1.42245" stroke-miterlimit="22.9256" stroke-linecap="round" stroke-linejoin="round"/>
<path fill-rule="evenodd" clip-rule="evenodd" d="M70.9575 33.4717H50.9351V36.4802H69.4359V63.5225H50.9351V66.5311H69.4359V87.8675H50.9351V90.8761H72.479V33.4717H70.9575Z" stroke="#1271CD" stroke-width="1.42245" stroke-miterlimit="22.9256" stroke-linecap="round" stroke-linejoin="round"/>
<path fill-rule="evenodd" clip-rule="evenodd" d="M13.0685 69.2281C10.6132 69.6776 8.67681 72.2712 8.67681 75.0377C8.67681 77.8042 10.6132 79.7061 13.0685 79.2566C15.42 78.8416 17.3911 76.2134 17.3911 73.447C17.3911 70.6805 15.4546 68.8131 13.0685 69.2281Z" stroke="#1271CD" stroke-width="1.42245" stroke-miterlimit="22.9256" stroke-linecap="round" stroke-linejoin="round"/>
<path fill-rule="evenodd" clip-rule="evenodd" d="M13.0688 67.0494C9.61069 67.6718 6.8096 71.372 6.8096 75.3488C6.8096 79.3256 9.61069 82.0229 13.0688 81.4005C16.4577 80.778 19.2243 77.0778 19.2243 73.101C19.2589 69.1588 16.4577 66.4269 13.0688 67.0494Z" stroke="#1271CD" stroke-width="1.42245" stroke-miterlimit="22.9256" stroke-linecap="round" stroke-linejoin="round"/>
<path d="M46.3703 73.4471L46.6123 73.3779" stroke="#1271CD" stroke-width="0.402176" stroke-miterlimit="10" stroke-linecap="round"/>
</svg>
