<svg width="136" height="114" viewBox="0 0 136 114" fill="none" xmlns="http://www.w3.org/2000/svg">
<path d="M127.225 77.3265L127.316 77.3787L127.363 77.2844L127.683 76.6469L127.725 76.5621L127.643 76.5152L115.511 69.6094L115.42 69.5572L115.372 69.6515L115.053 70.289L115.011 70.3737L115.093 70.4207L127.225 77.3265Z" fill="#1271CD" stroke="#1271CD" stroke-width="0.2"/>
<path d="M52.0876 97.3392L52.0149 97.2975L51.9612 97.3619L51.4291 97.9993L51.3526 98.091L51.4562 98.1502L79.3268 114.081C79.4022 114.15 79.5046 114.18 79.5998 114.18C79.6949 114.18 79.7974 114.15 79.8729 114.081L135.625 82.001L135.706 81.9539L135.664 81.8695L135.345 81.2321L135.297 81.1373L135.206 81.1902L79.706 113.141L52.0876 97.3392Z" fill="#1271CD" stroke="#1271CD" stroke-width="0.2"/>
<path d="M26.7602 82.7831L26.6686 82.7312L26.6214 82.8253L26.3022 83.4628L26.2598 83.5474L26.342 83.5944L38.7927 90.7128L38.8737 90.7591L38.9255 90.6815L39.3511 90.044L39.4109 89.9545L39.3173 89.9015L26.7602 82.7831Z" fill="#1271CD" stroke="#1271CD" stroke-width="0.2"/>
<path d="M0.794677 67.8033L0.794755 67.8031L0.789711 67.8006C0.673497 67.7426 0.545815 67.7075 0.424982 67.7247C0.29768 67.7429 0.190654 67.8176 0.123553 67.9516C0.0654342 68.0676 0.0301829 68.1952 0.0474645 68.316C0.0655562 68.4424 0.139624 68.5487 0.272074 68.6157L13.4654 76.1577L13.4653 76.1579L13.4703 76.1604C13.5866 76.2184 13.7142 76.2535 13.8351 76.2363C13.9624 76.2182 14.0694 76.1434 14.1365 76.0095C14.1946 75.8934 14.2299 75.7658 14.2126 75.6451C14.1945 75.5186 14.1204 75.4123 13.988 75.3453L0.794677 67.8033Z" fill="#1271CD" stroke="#1271CD" stroke-width="0.2"/>
<path d="M32.9331 50.0209L33.0145 49.9737L32.9724 49.8896L32.6531 49.2521L32.6057 49.1573L32.5138 49.2102L8.3573 63.1282L8.26474 63.1815L8.32406 63.2704L8.74973 63.9078L8.80181 63.9858L8.88298 63.9389L32.9331 50.0209Z" fill="#1271CD" stroke="#1271CD" stroke-width="0.2"/>
<path d="M77.6347 95.1077L77.5522 95.1546L77.5947 95.2394L77.9139 95.8769L77.9611 95.9711L78.0527 95.9191L115.493 74.6806C115.539 74.6728 115.577 74.6485 115.605 74.624C115.641 74.5935 115.67 74.5543 115.694 74.5153C115.739 74.44 115.775 74.3423 115.775 74.2646V60.0278V59.9278H115.675H114.93H114.83V60.0278V73.9938L77.6347 95.1077Z" fill="#1271CD" stroke="#1271CD" stroke-width="0.2"/>
<path d="M78.4225 67.8896V67.7896H78.3225H77.3647H77.2647V67.8896V95.5131V95.6131H77.3647H78.3225H78.4225V95.5131V67.8896Z" fill="#1271CD" stroke="#1271CD" stroke-width="0.2"/>
<path d="M87.8435 62.7706L87.9335 62.7189L87.8784 62.6309L87.3463 61.7809L87.2949 61.6989L87.2113 61.7475L77.5274 67.3785L77.4462 67.4257L77.4882 67.5097L77.9139 68.3597L77.9613 68.4544L78.0532 68.4016L87.8435 62.7706Z" fill="#1271CD" stroke="#1271CD" stroke-width="0.2"/>
<path d="M93.3844 72.8641L93.4627 72.9086L93.5151 72.8354L94.0472 72.0917L94.1117 72.0015L94.0154 71.9466L88.1066 68.5756V62.3652V62.2652H88.0066H87.0488H86.9488V62.3652V68.8461C86.9488 69.1002 87.0809 69.232 87.1878 69.3387L87.191 69.3419L87.2005 69.3514L87.2123 69.3581L93.3844 72.8641Z" fill="#1271CD" stroke="#1271CD" stroke-width="0.2"/>
<path d="M94.1721 48.3413V48.2413H94.0721H93.3271H93.2271V48.3413V72.3525V72.4525H93.3271H94.0721H94.1721V72.3525V48.3413Z" fill="#1271CD" stroke="#1271CD" stroke-width="0.2"/>
<path d="M58.0546 9.01132L58.1516 9.0661L58.1956 8.96368L58.5149 8.21997L58.5503 8.13741L58.472 8.09337L50.9277 3.84996C50.8657 3.79133 50.7921 3.75107 50.7078 3.75107C50.6233 3.75107 50.5495 3.79153 50.4874 3.85041L24.4261 18.9309L24.4148 18.9374L24.4055 18.9467C24.2861 19.0659 24.1527 19.3152 24.2719 19.5757C24.2721 19.5776 24.2724 19.5796 24.2728 19.5817C24.2755 19.5982 24.2813 19.6218 24.2937 19.6466C24.3062 19.6717 24.3267 19.6999 24.3592 19.7215C24.3849 19.7386 24.4144 19.7492 24.4468 19.7531L43.0386 30.2538C43.1007 30.3125 43.1743 30.3528 43.2586 30.3528C43.3431 30.3528 43.4168 30.3124 43.4788 30.2536L48.5327 27.3704V46.6409V46.7409H48.6327H49.3776H49.4776V46.6409V26.5608V26.5601V26.5595V26.5589V26.5583V26.5577V26.5571V26.5565V26.5559V26.5553V26.5547V26.5541V26.5535V26.5529V26.5523V26.5517V26.5511V26.5505V26.5499V26.5494V26.5488V26.5482V26.5476V26.5471V26.5465V26.5459V26.5454V26.5448V26.5443V26.5437V26.5431V26.5426V26.542V26.5415V26.5409V26.5404V26.5399V26.5393V26.5388V26.5382V26.5377V26.5372V26.5366V26.5361V26.5356V26.5351V26.5346V26.534V26.5335V26.533V26.5325V26.532V26.5315V26.531V26.5304V26.5299V26.5294V26.5289V26.5284V26.5279V26.5275V26.527V26.5265V26.526V26.5255V26.525V26.5245V26.524V26.5236V26.5231V26.5226V26.5221V26.5217V26.5212V26.5207V26.5203V26.5198V26.5193V26.5189V26.5184V26.5179V26.5175V26.517V26.5166V26.5161V26.5157V26.5152V26.5148V26.5143V26.5139V26.5134V26.513V26.5126V26.5121V26.5117V26.5112V26.5108V26.5104V26.5099V26.5095V26.5091V26.5087V26.5082V26.5078V26.5074V26.507V26.5066V26.5061V26.5057V26.5053V26.5049V26.5045V26.5041V26.5037V26.5033V26.5028V26.5024V26.502V26.5016V26.5012V26.5008V26.5004V26.5V26.4996V26.4993V26.4989V26.4985V26.4981V26.4977V26.4973V26.4969V26.4965V26.4961V26.4958V26.4954V26.495V26.4946V26.4942V26.4939V26.4935V26.4931V26.4927V26.4924V26.492V26.4916V26.4912V26.4909V26.4905V26.4901V26.4898V26.4894V26.489V26.4887V26.4883V26.488V26.4876V26.4872V26.4869V26.4865V26.4862V26.4858V26.4855V26.4851V26.4847V26.4844V26.484V26.4837V26.4833V26.483V26.4826V26.4823V26.482V26.4816V26.4813V26.4809V26.4806V26.4802V26.4799V26.4796V26.4792V26.4789V26.4785V26.4782V26.4779V26.4775V26.4772V26.4769V26.4765V26.4762V26.4759V26.4755V26.4752V26.4749V26.4745V26.4742V26.4739V26.4735V26.4732V26.4729V26.4726V26.4722V26.4719V26.4716V26.4713V26.4709V26.4706V26.4703V26.47V26.4696V26.4693V26.469V26.4687V26.4684V26.468V26.4677V26.4674V26.4671V26.4668V26.4664V26.4661V26.4658V26.4655V26.4652V26.4649V26.4645V26.4642V26.4639V26.4636V26.4633V26.463V26.4626V26.4623V26.462V26.4617V26.4614V26.4611V26.4608V26.4604V26.4601V26.4598V26.4595V26.4592V26.4589V26.4586V26.4583V26.458V26.4576V26.4573V26.457V26.4567V26.4564V26.4561V26.4558V26.4555V26.4551V26.4548V26.4545V26.4542V26.4539V26.4536V26.4533V26.453V26.4527V26.4523V26.452V26.4517V26.4514V26.4511V26.4508V26.4505V26.4502V26.4499V26.4495V26.4492V26.4489V26.4486V26.4483V26.448V26.4477V26.4473V26.447V26.4467V26.4464V26.4461V26.4458V26.4455V26.4451V26.4448V26.4445V26.4442V26.4439V26.4436V26.4432V26.4429V26.4426V26.4423V26.442V26.4417V26.4413V26.441V26.4407V26.4404V26.4401V26.4397V26.4394V26.4391V26.4388V26.4384V26.4381V26.4378V26.4375V26.4371V26.4368V26.4365V26.4362V26.4358V26.4355V26.4352V26.4348V26.4345V26.4342V26.4339V26.4335V26.4332V26.4329V26.4325V26.4322V26.4319V26.4315V26.4312V26.4308V26.4305V26.4302V26.4298V26.4295V26.4292V26.4288V26.4285V26.4281V26.4278V26.4274V26.4271V26.4267V26.4264V26.4261V26.4257V26.4254V26.425V26.4247V26.4243V26.424V26.4236V26.4232V26.4229V26.4225V26.4222V26.4218V26.4215V26.4211V26.4207V26.4204V26.42V26.4196V26.4193V26.4189V26.4185V26.4182V26.4178V26.4174V26.4171V26.4167V26.4163V26.4159V26.4156V26.4152V26.4148V26.4144V26.4141V26.4137V26.4133V26.4129V26.4125V26.4121V26.4118V26.4114V26.411V26.4106V26.4102V26.4098V26.4094V26.409V26.4086V26.4082V26.4078V26.4074V26.407V26.4066V26.4062V26.4058V26.4054V26.405V26.4046V26.4042V26.4037V26.4033V26.4029V26.4025V26.4021V26.4017V26.4012V26.4008V26.4004V26.4V26.3995V26.3991V26.3987V26.3982V26.3978V26.3974V26.3969V26.3965V26.3961V26.3956V26.3952V26.3947V26.3943V26.3938V26.3934V26.3929V26.3925V26.392V26.3916V26.3911V26.3907V26.3902V26.3897V26.3893V26.3888V26.3883V26.3879V26.3874V26.3869V26.3864V26.386V26.3855V26.385V26.3845V26.384V26.3836V26.3831V26.3826V26.3821V26.3816V26.3811V26.3806V26.3801V26.3796V26.3791V26.3786V26.3781V26.3776V26.3771V26.3766V26.3761V26.3755V26.375V26.3745V26.374V26.3735V26.3729V26.3724V26.3719V26.3713V26.3708V26.3703V26.3697V26.3692V26.3686V26.3681V26.3676V26.367V26.3665V26.3659V26.3653V26.3648V26.3642V26.3637V26.3631V26.3625V26.362V26.3614V26.3608V26.3603V26.3597V26.3591V26.3585V26.3579V26.3573V26.3568V26.3562V26.3556V26.355V26.3544V26.3538V26.3532V26.3526V26.352V26.3514V26.3507V26.3501V26.3495V26.3489V26.3483V26.3068L49.4482 26.2775C49.3261 26.1556 49.0679 26.0192 48.8008 26.1526L48.8008 26.1524L48.7963 26.155L43.2053 29.3146L25.4242 19.3355L50.7612 4.89567L58.0546 9.01132Z" fill="#1271CD" stroke="#1271CD" stroke-width="0.2"/>
<path d="M43.3823 29.5712L43.3727 29.5616L43.3608 29.5549L24.7498 19.0434C24.7281 19.0217 24.7091 19.003 24.6925 18.988C24.6732 18.9707 24.6521 18.9539 24.6271 18.9414C24.5787 18.9172 24.5292 18.9174 24.4859 18.9176C24.4825 18.9176 24.4792 18.9176 24.476 18.9176C24.3965 18.9176 24.2952 18.9543 24.214 19.0191C24.1297 19.0865 24.0567 19.1928 24.0567 19.3363V39.5227L24.0567 39.5281C24.0567 39.5786 24.0566 39.6523 24.0939 39.7269C24.1333 39.8055 24.2062 39.8713 24.3226 39.9297L42.9314 50.44C42.9532 50.4617 42.9721 50.4805 42.9888 50.4954C43.008 50.5127 43.0291 50.5295 43.0542 50.5421C43.1025 50.5662 43.152 50.566 43.1954 50.5659C43.1987 50.5659 43.202 50.5659 43.2052 50.5659C43.2847 50.5659 43.386 50.5292 43.4672 50.4643C43.5515 50.3969 43.6245 50.2906 43.6245 50.1471V29.9607C43.6245 29.8749 43.5822 29.8002 43.5379 29.7413C43.4937 29.6825 43.4363 29.6251 43.3851 29.574L43.3823 29.5712ZM42.6796 49.2326L24.8952 39.2517V20.1446L42.6796 30.1255V49.2326Z" fill="#1271CD" stroke="#1271CD" stroke-width="0.2"/>
<path d="M41.6589 17.8683L41.5672 17.8158L41.5198 17.9103L41.0942 18.7603L41.0519 18.8448L41.1339 18.8918L93.3843 48.8526L93.3842 48.8528L93.3893 48.8554C93.507 48.9141 93.6286 48.9456 93.7399 48.9456C93.8457 48.9456 93.9496 48.9167 94.0263 48.8467L125.196 31.0037L125.286 30.952L125.231 30.8638L124.699 30.0139L124.648 29.9322L124.564 29.9802L93.7531 47.6944L41.6589 17.8683Z" fill="#1271CD" stroke="#1271CD" stroke-width="0.2"/>
<path d="M124.564 30.8975L124.661 30.9535L124.706 30.8503L125.025 30.1065L125.06 30.0248L124.983 29.9804L72.7326 -0.086674L72.7095 -0.1H72.6828H72.6821H72.6815H72.6809H72.6802H72.6796H72.679H72.6783H72.6777H72.677H72.6764H72.6757H72.6751H72.6744H72.6738H72.6731H72.6725H72.6718H72.6711H72.6705H72.6698H72.6691H72.6685H72.6678H72.6671H72.6664H72.6657H72.6651H72.6644H72.6637H72.663H72.6623H72.6616H72.6609H72.6602H72.6595H72.6588H72.6581H72.6574H72.6567H72.656H72.6553H72.6545H72.6538H72.6531H72.6524H72.6516H72.6509H72.6502H72.6495H72.6487H72.648H72.6473H72.6465H72.6458H72.645H72.6443H72.6435H72.6428H72.642H72.6413H72.6405H72.6398H72.639H72.6383H72.6375H72.6368H72.636H72.6352H72.6345H72.6337H72.6329H72.6321H72.6314H72.6306H72.6298H72.629H72.6282H72.6275H72.6267H72.6259H72.6251H72.6243H72.6235H72.6227H72.6219H72.6211H72.6203H72.6195H72.6187H72.6179H72.6171H72.6163H72.6155H72.6147H72.6139H72.6131H72.6123H72.6114H72.6106H72.6098H72.609H72.6082H72.6073H72.6065H72.6057H72.6049H72.604H72.6032H72.6024H72.6015H72.6007H72.5999H72.599H72.5982H72.5974H72.5965H72.5957H72.5948H72.594H72.5931H72.5923H72.5914H72.5906H72.5897H72.5889H72.588H72.5872H72.5863H72.5855H72.5846H72.5837H72.5829H72.582H72.5811H72.5803H72.5794H72.5785H72.5777H72.5768H72.5759H72.5751H72.5742H72.5733H72.5724H72.5716H72.5707H72.5698H72.5689H72.5681H72.5672H72.5663H72.5654H72.5645H72.5636H72.5628H72.5619H72.561H72.5601H72.5592H72.5583H72.5574H72.5565H72.5556H72.5547H72.5538H72.5529H72.552H72.5511H72.5502H72.5493H72.5484H72.5475H72.5466H72.5457H72.5448H72.5439H72.543H72.5421H72.5412H72.5403H72.5394H72.5385H72.5376H72.5367H72.5358H72.5348H72.5339H72.533H72.5321H72.5312H72.5303H72.5294H72.5284H72.5275H72.5266H72.5257H72.5248H72.5239H72.5229H72.522H72.5211H72.5202H72.5193H72.5183H72.5174H72.5165H72.5156H72.5146H72.5137H72.5128H72.5119H72.5109H72.51H72.5091H72.5082H72.5072H72.5063H72.5054H72.5044H72.5035H72.5026H72.5017H72.5007H72.4998H72.4989H72.4979H72.497H72.4961H72.4951H72.4942H72.4933H72.4923H72.4914H72.4905H72.4895H72.4886H72.4877H72.4867H72.4858H72.4849H72.4839H72.483H72.4821H72.4811H72.4802H72.4793H72.4783H72.4774H72.4765H72.4755H72.4746H72.4737H72.4727H72.4718H72.4709H72.4699H72.469H72.468H72.4671H72.4662H72.4652H72.4643H72.4634H72.4624H72.4615H72.4606H72.4596H72.4587H72.4578H72.4568H72.4559H72.455H72.454H72.4531H72.4522H72.4512H72.4503H72.4494H72.4484H72.4475H72.4466H72.4456H72.4447H72.4438H72.4428H72.4419H72.441H72.44H72.4391H72.4382H72.4373H72.4363H72.4354H72.4345H72.4335H72.4326H72.4317H72.4308H72.4298H72.4289H72.428H72.427H72.4261H72.4252H72.4243H72.4234H72.4224H72.4215H72.4206H72.4197H72.4187H72.4178H72.4169H72.416H72.4151H72.4141H72.4132H72.4123H72.4114H72.4105H72.4096H72.4086H72.4077H72.4068H72.4059H72.405H72.4041H72.4032H72.4023H72.4014H72.4004H72.3995H72.3986H72.3977H72.3968H72.3959H72.395H72.3941H72.3932H72.3923H72.3914H72.3905H72.3896H72.3887H72.3878H72.3869H72.386H72.3851H72.3842H72.3833H72.3824H72.3815H72.3806H72.3798H72.3789H72.378H72.3771H72.3762H72.3753H72.3744H72.3735H72.3727H72.3718H72.3709H72.37H72.3691H72.3683H72.3674H72.3665H72.3656H72.3648H72.3639H72.363H72.3622H72.3613H72.3604H72.3596H72.3587H72.3578H72.357H72.3561H72.3552H72.3544H72.3535H72.3527H72.3518H72.351H72.3501H72.3493H72.3484H72.3476H72.3467H72.3459H72.345H72.3442H72.3433H72.3425H72.3416H72.3408H72.34H72.3391H72.3383H72.3375H72.3366H72.3358H72.335H72.3341H72.3333H72.3325H72.3317H72.3309H72.33H72.3292H72.3284H72.3276H72.3268H72.326H72.3251H72.3243H72.3235H72.3227H72.3219H72.3211H72.3203H72.3195H72.3187H72.3179H72.3171H72.3163H72.3155H72.3147H72.314H72.3132H72.3124H72.3116H72.3108H72.31H72.3093H72.3085H72.3077H72.3069H72.3062H72.3054H72.3046H72.3039H72.3031H72.3023H72.3016H72.3008H72.3H72.2993H72.2985H72.2978H72.297H72.2963H72.2955H72.2948H72.2941H72.2933H72.2926H72.2918H72.2911H72.2904H72.2896H72.2889H72.2882H72.2875H72.2867H72.286H72.2853H72.2846H72.2839H72.2832H72.2825H72.2817H72.281H72.2803H72.2796H72.2789H72.2782H72.2775H72.2768H72.2762H72.2755H72.2748H72.2741H72.2734H72.2727H72.2721H72.2714H72.2707H72.27H72.2694H72.2687H72.268H72.2674H72.2667H72.2661H72.2654H72.2647H72.2641H72.2634H72.2628H72.2622H72.2615H72.2609H72.2602H72.2596H72.259H72.2583H72.2577H72.2571H72.2301L72.2068 -0.0864562L41.1519 17.9643C41.106 17.9722 41.0681 17.9964 41.04 18.0207C41.0046 18.0513 40.975 18.0905 40.9515 18.1295C40.9063 18.2048 40.8707 18.3025 40.8707 18.3802V23.7987C40.8707 23.8845 40.913 23.9593 40.9573 24.0181C41.0015 24.077 41.0589 24.1343 41.1101 24.1854L41.1129 24.1882L41.1221 24.1974L41.1333 24.2039L45.7092 26.86L45.8012 26.9134L45.8488 26.8183L46.1681 26.1808L46.2101 26.097L46.1291 26.0497L41.8156 23.5288V18.5444L72.4699 0.965258L124.564 30.8975Z" fill="#1271CD" stroke="#1271CD" stroke-width="0.2"/>
<path d="M93.1207 72.3525V72.4525H93.2207H94.1785H94.2785V72.3525V48.3413V48.2413H94.1785H93.2207H93.1207V48.3413V72.3525Z" fill="#1271CD" stroke="#1271CD" stroke-width="0.2"/>
<path d="M33.1955 44.3037V44.2037H33.0955H32.3506H32.2506V44.3037V60.0279C32.2506 60.1137 32.2929 60.1884 32.3371 60.2473C32.3813 60.3061 32.4388 60.3634 32.49 60.4146L32.4928 60.4174L32.502 60.4266L32.5133 60.4331L45.9218 68.189L46.0137 68.2421L46.0613 68.1472L46.3805 67.5097L46.4227 67.4256L46.3413 67.3784L33.1955 59.7577V44.3037Z" fill="#1271CD" stroke="#1271CD" stroke-width="0.2"/>
<path d="M41.4668 34.671L41.4575 34.6618L41.4462 34.6552L26.5593 26.056C26.5374 26.0341 26.5183 26.0153 26.5016 26.0002C26.4823 25.9829 26.4612 25.9661 26.4361 25.9536C26.3878 25.9294 26.3383 25.9296 26.2949 25.9298C26.2916 25.9298 26.2883 25.9298 26.2851 25.9298C26.2056 25.9298 26.1043 25.9665 26.0231 26.0313C25.9388 26.0987 25.8658 26.205 25.8658 26.3485V34.1043C25.8658 34.1901 25.9082 34.2649 25.9524 34.3238C25.9966 34.3826 26.054 34.4399 26.1052 34.4911L26.108 34.4938L26.1173 34.5031L26.1286 34.5097L41.0156 43.1089C41.0375 43.1307 41.0565 43.1496 41.0733 43.1647C41.0925 43.182 41.1136 43.1988 41.1387 43.2113C41.187 43.2354 41.2365 43.2353 41.2799 43.2351C41.2832 43.2351 41.2865 43.2351 41.2898 43.2351C41.3692 43.2351 41.4705 43.1984 41.5517 43.1335C41.6361 43.0662 41.709 42.9598 41.709 42.8164V35.0605C41.709 34.9747 41.6667 34.9 41.6224 34.8411C41.5782 34.7823 41.5208 34.7249 41.4696 34.6738L41.4668 34.671ZM40.8705 41.9L26.8107 33.8339V27.1586L40.8705 35.2247V41.9Z" fill="#1271CD" stroke="#1271CD" stroke-width="0.2"/>
<path d="M48.3134 77.6582C48.3929 77.6582 48.4941 77.6215 48.5753 77.5566C48.6597 77.4892 48.7326 77.3829 48.7326 77.2394V55.9906C48.7326 55.9111 48.6958 55.8099 48.6309 55.7289C48.5634 55.6446 48.4569 55.5719 48.3134 55.5719C48.2339 55.5719 48.1327 55.6086 48.0515 55.6734C47.9671 55.7408 47.8941 55.8471 47.8941 55.9906V77.2394C47.8941 77.3189 47.9309 77.4201 47.9959 77.5012C48.0634 77.5854 48.1699 77.6582 48.3134 77.6582Z" fill="#1271CD" stroke="#1271CD" stroke-width="0.2"/>
<path d="M50.6428 75.922C50.633 75.8808 50.6103 75.8462 50.5861 75.8202C50.5532 75.7849 50.5104 75.7571 50.4652 75.739C50.382 75.7058 50.2602 75.696 50.1686 75.7776L48.1751 76.9299C48.1291 76.9379 48.0905 76.9624 48.0622 76.9887C48.0267 77.0215 47.9989 77.0643 47.9808 77.1095C47.9496 77.1874 47.9389 77.2994 48.0053 77.3886C48.015 77.4298 48.0377 77.4644 48.0619 77.4904C48.0948 77.5257 48.1376 77.5535 48.1829 77.5716C48.266 77.6048 48.3879 77.6146 48.4795 77.533L50.4729 76.3807C50.519 76.3727 50.5575 76.3482 50.5859 76.3219C50.6213 76.2891 50.6491 76.2463 50.6672 76.2011C50.6985 76.1232 50.7091 76.0111 50.6428 75.922Z" fill="#1271CD" stroke="#1271CD" stroke-width="0.2"/>
<path d="M51.4925 50.9733C51.4613 51.0513 51.4507 51.1633 51.517 51.2524C51.5267 51.2936 51.5495 51.3282 51.5736 51.3542C51.6065 51.3896 51.6494 51.4173 51.6946 51.4354C51.7777 51.4686 51.8995 51.4785 51.9911 51.3969L57.4963 48.2259C57.5424 48.218 57.581 48.1934 57.6093 48.1671C57.6448 48.1343 57.6726 48.0915 57.6907 48.0463C57.7219 47.9684 57.7326 47.8564 57.6663 47.7672C57.6565 47.726 57.6338 47.6914 57.6096 47.6655C57.5767 47.6301 57.5339 47.6023 57.4886 47.5842C57.4055 47.5511 57.2837 47.5412 57.1921 47.6228L51.6869 50.7937C51.6408 50.8017 51.6023 50.8262 51.5739 50.8525C51.5385 50.8854 51.5106 50.9281 51.4925 50.9733Z" fill="#1271CD" stroke="#1271CD" stroke-width="0.2"/>
<path d="M47.7983 55.7333L47.7877 55.7544V55.7781C47.7877 55.7804 47.7877 55.7827 47.7877 55.785C47.7877 55.8863 47.7877 56.0045 47.8182 56.111C47.8511 56.226 47.9198 56.3299 48.053 56.3973L75.0802 72.0138L75.0801 72.0139L75.0856 72.0166C75.2018 72.0747 75.3295 72.1098 75.4503 72.0926C75.5776 72.0744 75.6846 71.9997 75.7517 71.8657C75.8099 71.7497 75.8451 71.6221 75.8278 71.5013C75.8098 71.3749 75.7357 71.2687 75.6034 71.2016L48.4697 55.5852L48.4697 55.585L48.4644 55.5824C48.3482 55.5244 48.2205 55.4892 48.0997 55.5064C47.9724 55.5246 47.8654 55.5993 47.7983 55.7333Z" fill="#1271CD" stroke="#1271CD" stroke-width="0.2"/>
<path d="M77.5277 95.9184L77.5276 95.9186L77.5331 95.9213C77.6493 95.9793 77.777 96.0145 77.8978 95.9972C78.0251 95.9791 78.1321 95.9043 78.1992 95.7704C78.2574 95.6543 78.2926 95.5267 78.2753 95.406C78.2572 95.2795 78.1832 95.1733 78.0508 95.1063L46.4978 76.9687V49.6156C46.4978 49.5361 46.461 49.4349 46.396 49.3539C46.3285 49.2696 46.222 49.1969 46.0785 49.1969C45.999 49.1969 45.8978 49.2336 45.8166 49.2984C45.7322 49.3658 45.6593 49.4721 45.6593 49.6156V77.2391C45.6593 77.4656 45.7726 77.6384 45.9426 77.6563L77.5277 95.9184Z" fill="#1271CD" stroke="#1271CD" stroke-width="0.2"/>
<path d="M45.9223 54.9086L46.0141 54.9613L46.0615 54.8667L46.3807 54.2292L46.423 54.1448L46.3412 54.0978L37.2958 48.8918L37.2959 48.8917L37.2906 48.889C37.1744 48.831 37.0467 48.7958 36.9259 48.8131C36.7986 48.8312 36.6916 48.906 36.6245 49.0399L36.6139 49.0611V49.0847V49.0853V49.086V49.0866V49.0872V49.0878V49.0884V49.089V49.0896V49.0902V49.0908V49.0914V49.092V49.0926V49.0932V49.0938V49.0944V49.095V49.0955V49.0961V49.0967V49.0973V49.0978V49.0984V49.099V49.0996V49.1001V49.1007V49.1012V49.1018V49.1023V49.1029V49.1035V49.104V49.1045V49.1051V49.1056V49.1062V49.1067V49.1072V49.1078V49.1083V49.1088V49.1094V49.1099V49.1104V49.1109V49.1115V49.112V49.1125V49.113V49.1135V49.114V49.1145V49.115V49.1155V49.1161V49.1166V49.117V49.1175V49.118V49.1185V49.119V49.1195V49.12V49.1205V49.121V49.1215V49.1219V49.1224V49.1229V49.1234V49.1238V49.1243V49.1248V49.1252V49.1257V49.1262V49.1266V49.1271V49.1276V49.128V49.1285V49.1289V49.1294V49.1298V49.1303V49.1307V49.1312V49.1316V49.1321V49.1325V49.1329V49.1334V49.1338V49.1342V49.1347V49.1351V49.1355V49.136V49.1364V49.1368V49.1373V49.1377V49.1381V49.1385V49.1389V49.1394V49.1398V49.1402V49.1406V49.141V49.1414V49.1418V49.1422V49.1426V49.143V49.1435V49.1439V49.1443V49.1447V49.1451V49.1455V49.1458V49.1462V49.1466V49.147V49.1474V49.1478V49.1482V49.1486V49.149V49.1494V49.1497V49.1501V49.1505V49.1509V49.1513V49.1516V49.152V49.1524V49.1528V49.1531V49.1535V49.1539V49.1543V49.1546V49.155V49.1554V49.1557V49.1561V49.1565V49.1568V49.1572V49.1575V49.1579V49.1583V49.1586V49.159V49.1593V49.1597V49.16V49.1604V49.1607V49.1611V49.1615V49.1618V49.1622V49.1625V49.1628V49.1632V49.1635V49.1639V49.1642V49.1646V49.1649V49.1653V49.1656V49.1659V49.1663V49.1666V49.167V49.1673V49.1676V49.168V49.1683V49.1686V49.169V49.1693V49.1696V49.17V49.1703V49.1706V49.171V49.1713V49.1716V49.172V49.1723V49.1726V49.1729V49.1733V49.1736V49.1739V49.1742V49.1746V49.1749V49.1752V49.1755V49.1759V49.1762V49.1765V49.1768V49.1771V49.1775V49.1778V49.1781V49.1784V49.1787V49.1791V49.1794V49.1797V49.18V49.1803V49.1806V49.181V49.1813V49.1816V49.1819V49.1822V49.1825V49.1828V49.1832V49.1835V49.1838V49.1841V49.1844V49.1847V49.185V49.1854V49.1857V49.186V49.1863V49.1866V49.1869V49.1872V49.1875V49.1879V49.1882V49.1885V49.1888V49.1891V49.1894V49.1897V49.19V49.1903V49.1907V49.191V49.1913V49.1916V49.1919V49.1922V49.1925V49.1928V49.1931V49.1935V49.1938V49.1941V49.1944V49.1947V49.195V49.1953V49.1956V49.196V49.1963V49.1966V49.1969V49.1972V49.1975V49.1978V49.1981V49.1985V49.1988V49.1991V49.1994V49.1997V49.2V49.2003V49.2007V49.201V49.2013V49.2016V49.2019V49.2022V49.2026V49.2029V49.2032V49.2035V49.2038V49.2042V49.2045V49.2048V49.2051V49.2054V49.2058V49.2061V49.2064V49.2067V49.2071V49.2074V49.2077V49.208V49.2084V49.2087V49.209V49.2093V49.2097V49.21V49.2103V49.2106V49.211V49.2113V49.2116V49.212V49.2123V49.2126V49.213V49.2133V49.2136V49.214V49.2143V49.2146V49.215V49.2153V49.2157V49.216V49.2163V49.2167V49.217V49.2174V49.2177V49.2181V49.2184V49.2187V49.2191V49.2194V49.2198V49.2201V49.2205V49.2208V49.2212V49.2215V49.2219V49.2223V49.2226V49.223V49.2233V49.2237V49.224V49.2244V49.2248V49.2251V49.2255V49.2258V49.2262V49.2266V49.2269V49.2273V49.2277V49.2281V49.2284V49.2288V49.2292V49.2295V49.2299V49.2303V49.2307V49.2311V49.2314V49.2318V49.2322V49.2326V49.233V49.2334V49.2337V49.2341V49.2345V49.2349V49.2353V49.2357V49.2361V49.2365V49.2369V49.2373V49.2377V49.2381V49.2385V49.2389V49.2393V49.2397V49.2401V49.2405V49.2409V49.2413V49.2418V49.2422V49.2426V49.243V49.2434V49.2438V49.2443V49.2447V49.2451V49.2455V49.246V49.2464V49.2468V49.2473V49.2477V49.2481V49.2486V49.249V49.2494V49.2499V49.2503V49.2508V49.2512V49.2517V49.2521V49.2526V49.253V49.2535V49.2539V49.2544V49.2548V49.2553V49.2558V49.2562V49.2567V49.2572V49.2576V49.2581V49.2586V49.2591V49.2595V49.26V49.2605V49.261V49.2615V49.2619V49.2624V49.2629V49.2634V49.2639V49.2644V49.2649V49.2654V49.2659V49.2664V49.2669V49.2674V49.2679V49.2684V49.2689V49.2694V49.27V49.2705V49.271V49.2715V49.272V49.2726V49.2731V49.2736V49.2742V49.2747V49.2752V49.2758V49.2763V49.2768V49.2774V49.2779V49.2785V49.279V49.2796V49.2801V49.2807V49.2813V49.2818V49.2824V49.283V49.2835V49.2841V49.2847V49.2852V49.2858V49.2864V49.287V49.2876V49.2881V49.2887V49.2893V49.2899V49.2905V49.2911V49.2917V49.2923V49.2929V49.2935V49.2941V49.2947V49.2954V49.296V49.2966V49.2972V62.4715V62.5715H36.7139H37.4588H37.5588V62.4715V50.1074L45.9223 54.9086Z" fill="#1271CD" stroke="#1271CD" stroke-width="0.2"/>
<path d="M46.3619 58.6825L46.3525 58.6732L46.3411 58.6666L38.5727 54.2043L38.5495 54.191H38.5229C38.5215 54.191 38.5201 54.191 38.5187 54.191C38.4113 54.191 38.2687 54.191 38.133 54.3265L38.1036 54.3558V54.3973C38.1036 54.3986 38.1036 54.4 38.1036 54.4014C38.1036 54.5087 38.1036 54.6512 38.2394 54.7868L38.2487 54.7961L38.2602 54.8027L46.0286 59.265L46.0517 59.2783H46.0784L46.0826 59.2783C46.19 59.2783 46.3326 59.2783 46.4683 59.1428L46.4977 59.1135V59.072V59.0679C46.4977 58.9606 46.4977 58.8181 46.3619 58.6825Z" fill="#1271CD" stroke="#1271CD" stroke-width="0.2"/>
<path d="M46.3619 60.8075L46.3525 60.7982L46.3411 60.7916L38.5727 56.3293L38.5495 56.316H38.5229C38.5215 56.316 38.5201 56.316 38.5187 56.316C38.4113 56.316 38.2687 56.316 38.133 56.4515L38.1036 56.4808V56.5223C38.1036 56.5236 38.1036 56.525 38.1036 56.5264C38.1036 56.6337 38.1036 56.7762 38.2394 56.9118L38.2487 56.9211L38.2602 56.9277L46.0286 61.39L46.0517 61.4032H46.0784L46.0826 61.4033C46.19 61.4033 46.3326 61.4033 46.4683 61.2678L46.4977 61.2385V61.197V61.1929C46.4977 61.0856 46.4977 60.9431 46.3619 60.8075Z" fill="#1271CD" stroke="#1271CD" stroke-width="0.2"/>
<path d="M46.3619 62.8256L46.3525 62.8162L46.3411 62.8096L38.5727 58.3474L38.5495 58.3341H38.5229C38.5215 58.3341 38.5201 58.3341 38.5187 58.3341C38.4113 58.3341 38.2687 58.334 38.133 58.4696L38.1036 58.4989V58.5403C38.1036 58.5417 38.1036 58.5431 38.1036 58.5444C38.1036 58.6517 38.1036 58.7942 38.2394 58.9298L38.2487 58.9392L38.2602 58.9458L46.0286 63.408L46.0517 63.4213H46.0784L46.0826 63.4213C46.19 63.4213 46.3326 63.4214 46.4683 63.2858L46.4977 63.2565V63.2151V63.2109C46.4977 63.1037 46.4977 62.9612 46.3619 62.8256Z" fill="#1271CD" stroke="#1271CD" stroke-width="0.2"/>
<path d="M46.3619 64.9506L46.3525 64.9412L46.3411 64.9346L38.5727 60.4724L38.5495 60.4591H38.5229C38.5215 60.4591 38.5201 60.4591 38.5187 60.4591C38.4113 60.4591 38.2687 60.459 38.133 60.5946L38.1036 60.6239V60.6653C38.1036 60.6667 38.1036 60.6681 38.1036 60.6694C38.1036 60.7767 38.1036 60.9192 38.2394 61.0548L38.2487 61.0642L38.2602 61.0708L46.0286 65.533L46.0517 65.5463H46.0784L46.0826 65.5463C46.19 65.5463 46.3326 65.5464 46.4683 65.4108L46.4977 65.3815V65.3401V65.3359C46.4977 65.2287 46.4977 65.0862 46.3619 64.9506Z" fill="#1271CD" stroke="#1271CD" stroke-width="0.2"/>
<path d="M75.4496 93.2763C75.5291 93.2763 75.6303 93.2396 75.7115 93.1748C75.7959 93.1074 75.8689 93.0011 75.8689 92.8576V71.6088C75.8689 71.5293 75.8321 71.4281 75.7671 71.347C75.6996 71.2628 75.5931 71.19 75.4496 71.19C75.3701 71.19 75.2689 71.2267 75.1877 71.2916C75.1033 71.359 75.0304 71.4653 75.0304 71.6088V92.8576C75.0304 92.9371 75.0672 93.0383 75.1321 93.1193C75.1997 93.2036 75.3061 93.2763 75.4496 93.2763Z" fill="#1271CD" stroke="#1271CD" stroke-width="0.2"/>
<path d="M82.6358 63.0895L82.7227 63.1398L82.7726 63.0526L83.1983 62.3089L83.2478 62.2224L83.1614 62.1726L57.778 47.5398V33.8529L85.1398 49.6739V61.0905V61.1905H85.2398H85.9847H86.0847V61.0905V49.5099C86.0847 49.4241 86.0424 49.3493 85.9982 49.2905C85.954 49.2316 85.8965 49.1743 85.8453 49.1232L85.8426 49.1204L85.8332 49.1111L85.8217 49.1045L57.5265 32.8557C57.5046 32.8339 57.4855 32.815 57.4688 32.8C57.4496 32.7827 57.4285 32.7659 57.4034 32.7534C57.3551 32.7293 57.3056 32.7294 57.2622 32.7296C57.2589 32.7296 57.2556 32.7296 57.2524 32.7296C57.1729 32.7296 57.0716 32.7663 56.9904 32.8311C56.9061 32.8985 56.8331 33.0048 56.8331 33.1483V47.9163C56.8331 48.0021 56.8754 48.0768 56.9197 48.1357C56.9639 48.1945 57.0213 48.2519 57.0725 48.303L57.0753 48.3058L57.0845 48.315L57.0959 48.3216L82.6358 63.0895Z" fill="#1271CD" stroke="#1271CD" stroke-width="0.2"/>
<path d="M75.1868 81.5756L75.2787 81.6285L75.3261 81.5337L75.6454 80.8962L75.6876 80.8119L75.6059 80.7648L57.778 70.488V61.1963V61.0963H57.678H56.9331H56.8331V61.1963V70.7583C56.8331 70.8441 56.8754 70.9188 56.9197 70.9777C56.9639 71.0365 57.0213 71.0939 57.0725 71.145L57.0753 71.1478L57.0846 71.1571L57.0961 71.1637L75.1868 81.5756Z" fill="#1271CD" stroke="#1271CD" stroke-width="0.2"/>
<path d="M105.678 65.5585H105.033H104.933V65.6585V73.3081C104.933 73.3876 104.97 73.4888 105.035 73.5698C105.102 73.6541 105.209 73.7268 105.352 73.7268C105.447 73.7268 105.499 73.6747 105.527 73.6465L105.53 73.6445C105.554 73.6205 105.556 73.6205 105.564 73.6206C105.564 73.6206 105.565 73.6206 105.565 73.6206H105.592L105.614 73.6076L111.255 70.4203L111.266 70.4136L111.276 70.404L111.279 70.4012C111.33 70.3501 111.387 70.2928 111.432 70.234C111.476 70.1751 111.518 70.1003 111.518 70.0145V62.4712V62.3712H111.418H110.673H110.573V62.4712V69.7436L105.878 72.3931V65.7585V65.6585V65.5523H105.778H105.678V65.5585Z" fill="#1271CD" stroke="#1271CD" stroke-width="0.2"/>
<path d="M94.0105 72.867L94.0106 72.8672L94.0156 72.8642L125.089 55.0152L125.101 55.0086L125.11 54.9993L125.216 54.893L125.246 54.8637V54.8223V54.1848V54.1434L125.216 54.1141C125.098 53.9956 124.972 53.9295 124.839 53.9129C124.707 53.8965 124.581 53.9302 124.463 53.9891L124.463 53.9889L124.457 53.9919L93.4986 71.8361C93.3116 71.9017 93.2101 72.034 93.1765 72.1847C93.1443 72.3292 93.1758 72.4827 93.2348 72.6035C93.3001 72.7923 93.4333 72.8946 93.585 72.9283C93.7321 72.9609 93.8886 72.9278 94.0105 72.867Z" fill="#1271CD" stroke="#1271CD" stroke-width="0.2"/>
<path d="M43.3562 50.4498L43.3562 50.4499L43.3606 50.4474L49.2134 47.1539L49.2254 47.1472L49.2351 47.1375C49.3572 47.0156 49.4939 46.7576 49.3602 46.4907L49.353 46.4762L49.3415 46.4647C49.2193 46.3428 48.9611 46.2065 48.6941 46.3398L48.694 46.3397L48.6897 46.3421L42.8368 49.6357L42.8249 49.6424L42.8152 49.6521C42.6931 49.774 42.5564 50.0319 42.69 50.2988L42.6973 50.3133L42.7088 50.3248C42.8309 50.4468 43.0891 50.5831 43.3562 50.4498Z" fill="#1271CD" stroke="#1271CD" stroke-width="0.2"/>
<path d="M124.72 30.0733C124.641 30.0733 124.539 30.11 124.458 30.1749C124.374 30.2423 124.301 30.3486 124.301 30.4921V54.5033C124.301 54.5828 124.338 54.6839 124.403 54.765C124.47 54.8493 124.577 54.922 124.72 54.922C124.8 54.922 124.901 54.8853 124.982 54.8204C125.066 54.7531 125.139 54.6467 125.139 54.5033V30.4921C125.139 30.4126 125.103 30.3114 125.038 30.2303C124.97 30.1461 124.864 30.0733 124.72 30.0733Z" fill="#1271CD" stroke="#1271CD" stroke-width="0.2"/>
<path d="M32.0815 44.0718L32.1713 44.02L32.1163 43.9321L31.5842 43.0822L31.533 43.0004L31.4495 43.0486L0.165535 61.1087C0.0315774 61.1768 -0.0620346 61.3066 -0.107911 61.444C-0.154113 61.5824 -0.156962 61.7436 -0.08917 61.879L-0.0818997 61.8935L-0.07041 61.905C-0.0386434 61.9367 -0.0214354 61.9645 -0.00146811 61.9967C0.00613464 62.0089 0.0141374 62.0218 0.0234962 62.0359C0.0387656 62.0587 0.0604103 62.0879 0.0926073 62.1104C0.11972 62.1294 0.15007 62.1408 0.183345 62.1449L13.3591 69.6769L13.4425 69.7246L13.4935 69.6431L14.0255 68.7932L14.0808 68.7049L13.9904 68.6533L1.69079 61.6213L32.0815 44.0718ZM26.8668 75.9841L26.7834 75.9365L26.7324 76.0179L26.2003 76.8678L26.1451 76.9561L26.2354 77.0077L38.6861 84.1261L38.7695 84.1738L38.8205 84.0923L39.3526 83.2424L39.4078 83.1542L39.3175 83.1025L26.8668 75.9841ZM52.194 90.5397L52.1105 90.4918L52.0594 90.5734L51.5274 91.4233L51.4721 91.5115L51.5625 91.5632L79.4436 107.5L79.4435 107.5L79.4485 107.502C79.5662 107.561 79.6878 107.593 79.7991 107.593C79.9049 107.593 80.0089 107.564 80.0855 107.494L135.829 75.4187C136.016 75.3531 136.117 75.2209 136.151 75.0701C136.184 74.9231 136.151 74.7667 136.09 74.645L136.082 74.6305L136.071 74.619C136.039 74.5873 136.022 74.5595 136.002 74.5273C135.994 74.5151 135.986 74.5022 135.977 74.4882C135.962 74.4653 135.94 74.4361 135.908 74.4136C135.881 74.3946 135.85 74.3833 135.817 74.3791L115.618 62.8099L115.535 62.7621L115.484 62.8436L114.951 63.6936L114.896 63.7817L114.987 63.8334L134.31 74.9025L79.706 106.341L52.194 90.5397Z" fill="#1271CD" stroke="#1271CD" stroke-width="0.2"/>
<path d="M135.468 74.4835C135.389 74.4835 135.287 74.5202 135.206 74.585C135.122 74.6524 135.049 74.7587 135.049 74.9022V81.5956C135.049 81.6751 135.086 81.7763 135.151 81.8574C135.218 81.9416 135.325 82.0143 135.468 82.0143C135.548 82.0143 135.649 81.9777 135.73 81.9128C135.814 81.8454 135.887 81.7391 135.887 81.5956V74.9022C135.887 74.8227 135.851 74.7216 135.786 74.6405C135.718 74.5562 135.612 74.4835 135.468 74.4835Z" fill="#1271CD" stroke="#1271CD" stroke-width="0.2"/>
<path d="M79.8123 106.357C79.63 106.357 79.4703 106.418 79.3559 106.532C79.2415 106.647 79.1803 106.806 79.1803 106.988V113.469C79.1803 113.651 79.2415 113.811 79.3559 113.925C79.4703 114.039 79.63 114.1 79.8123 114.1C79.9946 114.1 80.1544 114.039 80.2688 113.925C80.3832 113.811 80.4444 113.651 80.4444 113.469V106.988C80.4444 106.806 80.3832 106.647 80.2688 106.532C80.1544 106.418 79.9946 106.357 79.8123 106.357Z" fill="#1271CD" stroke="#1271CD" stroke-width="0.2"/>
<path d="M0.532081 60.9898C0.349781 60.9898 0.190071 61.0509 0.0756689 61.1652C-0.0387476 61.2794 -0.1 61.4389 -0.1 61.6211V68.3145C-0.1 68.4966 -0.0387476 68.6561 0.0756689 68.7704C0.190071 68.8846 0.349781 68.9457 0.532081 68.9457C0.714382 68.9457 0.874092 68.8846 0.988494 68.7704C1.10291 68.6561 1.16416 68.4966 1.16416 68.3145V61.6211C1.16416 61.4389 1.10291 61.2794 0.988494 61.1652C0.874092 61.0509 0.714382 60.9898 0.532081 60.9898Z" fill="#1271CD" stroke="#1271CD" stroke-width="0.2"/>
<path d="M97.152 70.7583V70.643L97.0379 70.6593L96.293 70.7656L96.2071 70.7778V70.8646V78.5141C96.2071 78.5936 96.2439 78.6948 96.3089 78.7759C96.3764 78.8601 96.4829 78.9329 96.6264 78.9329C96.7211 78.9329 96.7732 78.8808 96.8014 78.8526L96.8034 78.8505C96.8275 78.8265 96.8297 78.8265 96.8377 78.8266C96.8382 78.8266 96.8387 78.8266 96.8392 78.8266H96.8655L96.8884 78.8137L102.528 75.6264L102.54 75.6197L102.55 75.6101L102.553 75.6073C102.604 75.5562 102.661 75.4988 102.706 75.44C102.75 75.3811 102.792 75.3064 102.792 75.2206V67.6772V67.5772H102.692H101.947H101.847V67.6772V74.9497L97.152 77.5992V70.7583Z" fill="#1271CD" stroke="#1271CD" stroke-width="0.2"/>
<path d="M46.3619 56.5575L46.3525 56.5481L46.3411 56.5416L38.5727 52.0793L38.5495 52.066H38.5229C38.5215 52.066 38.5201 52.066 38.5187 52.066C38.4113 52.066 38.2687 52.066 38.133 52.2015L38.1036 52.2308V52.2723C38.1036 52.2736 38.1036 52.275 38.1036 52.2764C38.1036 52.3837 38.1036 52.5262 38.2394 52.6618L38.2487 52.6711L38.2602 52.6777L46.0286 57.14L46.0517 57.1532H46.0784L46.0826 57.1532C46.19 57.1533 46.3326 57.1533 46.4683 57.0178L46.4977 56.9885V56.947V56.9429C46.4977 56.8356 46.4977 56.6931 46.3619 56.5575Z" fill="#1271CD" stroke="#1271CD" stroke-width="0.2"/>
<path d="M45.6887 17.7782C45.5693 17.8974 45.4359 18.1467 45.5551 18.4073C45.5553 18.4092 45.5556 18.4112 45.556 18.4133C45.5588 18.4298 45.5645 18.4533 45.5769 18.4781C45.5895 18.5032 45.6099 18.5314 45.6425 18.5531C45.668 18.5701 45.6974 18.5807 45.7297 18.5847L93.2669 45.7655C93.3289 45.8243 93.4027 45.8646 93.4871 45.8646C93.5716 45.8646 93.6453 45.8242 93.7074 45.7654L119.875 30.6849L119.886 30.6783L119.896 30.669C120.015 30.5498 120.149 30.3005 120.029 30.04C120.029 30.0381 120.029 30.0361 120.029 30.034C120.026 30.0175 120.02 29.9939 120.008 29.9692C119.995 29.944 119.975 29.9158 119.942 29.8942C119.917 29.8772 119.887 29.8666 119.855 29.8626L72.4241 2.6818C72.362 2.623 72.2883 2.58262 72.2038 2.58262C72.1194 2.58262 72.0456 2.62302 71.9835 2.68182L45.7096 17.7622L45.6981 17.7688L45.6887 17.7782ZM46.8116 18.0615L72.1506 3.51507L118.773 30.2795L93.4339 44.8259L46.8116 18.0615Z" fill="#1271CD" stroke="#1271CD" stroke-width="0.2"/>
<path d="M72.4127 5.39903L72.463 5.37022V5.31227V3.08114C72.463 2.99544 72.4211 2.91815 72.3671 2.86429C72.3132 2.81042 72.2358 2.76865 72.1502 2.76865C72.0645 2.76865 71.9871 2.81042 71.9332 2.86429C71.8792 2.91815 71.8373 2.99544 71.8373 3.08114V4.82959L47.6429 18.8142C47.5968 18.8222 47.5583 18.8468 47.5299 18.8731C47.4945 18.9059 47.4667 18.9487 47.4486 18.9939C47.4173 19.0718 47.4067 19.1838 47.473 19.2729C47.4828 19.3141 47.5055 19.3487 47.5297 19.3747C47.5626 19.4101 47.6054 19.4379 47.6506 19.4559C47.7337 19.4891 47.8555 19.499 47.9471 19.4175L72.4127 5.39903Z" fill="#1271CD" stroke="#1271CD" stroke-width="0.2"/>
<path d="M71.9733 5.38295L71.9826 5.39223L71.9939 5.39879L117.646 31.7474L117.67 31.7607H117.696H117.701C117.808 31.7608 117.951 31.7608 118.086 31.6253L118.116 31.596V31.5545V31.5504C118.116 31.4431 118.116 31.3006 117.98 31.165L117.971 31.1557L117.959 31.1492L72.3067 4.8006L72.2835 4.78721H72.2568C72.2554 4.78721 72.254 4.78721 72.2526 4.78721C72.1452 4.78718 72.0026 4.78715 71.8668 4.92268L71.8375 4.95198V4.99345C71.8375 4.99482 71.8375 4.99619 71.8375 4.99757C71.8375 5.10486 71.8374 5.24736 71.9733 5.38295Z" fill="#1271CD" stroke="#1271CD" stroke-width="0.2"/>
<path d="M56.5648 9.7552L56.6412 9.79817L56.6938 9.72811L57.013 9.30314L57.0812 9.21243L56.9826 9.15622L51.0233 5.7564L51.0003 5.74326H50.9738H50.9731H50.9725H50.9719H50.9713H50.9706H50.97H50.9694H50.9688H50.9682H50.9675H50.9669H50.9663H50.9657H50.965H50.9644H50.9638H50.9632H50.9625H50.9619H50.9613H50.9607H50.96H50.9594H50.9588H50.9582H50.9576H50.9569H50.9563H50.9557H50.9551H50.9544H50.9538H50.9532H50.9526H50.9519H50.9513H50.9507H50.9501H50.9494H50.9488H50.9482H50.9476H50.947H50.9463H50.9457H50.9451H50.9445H50.9438H50.9432H50.9426H50.942H50.9413H50.9407H50.9401H50.9395H50.9388H50.9382H50.9376H50.937H50.9364H50.9357H50.9351H50.9345H50.9339H50.9332H50.9326H50.932H50.9314H50.9307H50.9301H50.9295H50.9289H50.9282H50.9276H50.927H50.9264H50.9258H50.9251H50.9245H50.9239H50.9233H50.9226H50.922H50.9214H50.9208H50.9201H50.9195H50.9189H50.9183H50.9176H50.917H50.9164H50.9158H50.9152H50.9145H50.9139H50.9133H50.9127H50.912H50.9114H50.9108H50.9102H50.9095H50.9089H50.9083H50.9077H50.907H50.9064H50.9058H50.9052H50.9046H50.9039H50.9033H50.9027H50.9021H50.9014H50.9008H50.9002H50.8996H50.8989H50.8983H50.8977H50.8971H50.8964H50.8958H50.8952H50.8946H50.894H50.8933H50.8927H50.8921H50.8915H50.8908H50.8902H50.8896H50.889H50.8883H50.8877H50.8871H50.8865H50.8858H50.8852H50.8846H50.884H50.8834H50.8827H50.8821H50.8815H50.8809H50.8802H50.8796H50.879H50.8784H50.8777H50.8771H50.8765H50.8759H50.8752H50.8746H50.874H50.8734H50.8728H50.8721H50.8715H50.8709H50.8703H50.8696H50.869H50.8684H50.8678H50.8671H50.8665H50.8659H50.8653H50.8646H50.864H50.8634H50.8628H50.8622H50.8615H50.8609H50.8603H50.8597H50.859H50.8584H50.8578H50.8572H50.8565H50.8559H50.8553H50.8547H50.854H50.8534H50.8528H50.8522H50.8516H50.8509H50.8503H50.8497H50.8491H50.8484H50.8478H50.8472H50.8466H50.8459H50.8453H50.8447H50.8441H50.8434H50.8428H50.8422H50.8416H50.841H50.8403H50.8397H50.8391H50.8385H50.8378H50.8372H50.8366H50.836H50.8353H50.8347H50.8341H50.8335H50.8328H50.8322H50.8316H50.831H50.8304H50.8297H50.8291H50.8285H50.8279H50.8272H50.8266H50.826H50.8254H50.8247H50.8241H50.8235H50.8229H50.8222H50.8216H50.821H50.8204H50.8197H50.8191H50.8185H50.8179H50.8173H50.8166H50.816H50.8154H50.8148H50.8141H50.8135H50.8129H50.8123H50.8116H50.811H50.8104H50.8098H50.8092H50.8085H50.8079H50.8073H50.8067H50.806H50.8054H50.8048H50.8042H50.8035H50.8029H50.8023H50.8017H50.801H50.8004H50.7998H50.7992H50.7985H50.7979H50.7973H50.7967H50.7961H50.7954H50.7948H50.7942H50.7936H50.7929H50.7923H50.7917H50.7911H50.7904H50.7898H50.7892H50.7886H50.788H50.7873H50.7867H50.7861H50.7855H50.7848H50.7842H50.7836H50.783H50.7823H50.7817H50.7811H50.7805H50.7798H50.7792H50.7786H50.778H50.7773H50.7767H50.7761H50.7755H50.7749H50.7742H50.7736H50.773H50.7724H50.7717H50.7711H50.7705H50.7699H50.7692H50.7686H50.768H50.7674H50.7667H50.7661H50.7655H50.7649H50.7643H50.7636H50.763H50.7624H50.7618H50.7611H50.7605H50.7599H50.7593H50.7586H50.758H50.7574H50.7568H50.7561H50.7555H50.7549H50.7543H50.7537H50.753H50.7524H50.7518H50.7512H50.7505H50.7499H50.7493H50.7487H50.748H50.7474H50.7468H50.7462H50.7455H50.7449H50.7443H50.7437H50.7431H50.7424H50.7418H50.7412H50.7406H50.7399H50.7393H50.7387H50.7381H50.7374H50.7368H50.7362H50.7356H50.7349H50.7343H50.7337H50.7331H50.7325H50.7318H50.7312H50.7306H50.73H50.7293H50.7287H50.7281H50.7275H50.7268H50.7262H50.7256H50.725H50.7243H50.7237H50.7231H50.7225H50.7219H50.7212H50.7206H50.72H50.7194H50.7187H50.7181H50.7175H50.7169H50.7162H50.7156H50.715H50.7144H50.7137H50.7131H50.7125H50.7119H50.7113H50.7106H50.71H50.7094H50.7088H50.7081H50.7075H50.7069H50.7063H50.7056H50.705H50.7044H50.7038H50.7031H50.7025H50.7019H50.7013H50.7007H50.7H50.6994H50.6988H50.6982H50.6975H50.6969H50.6963H50.6957H50.695H50.6944H50.6938H50.6932H50.6925H50.6919H50.6913H50.6907H50.6901H50.6894H50.6888H50.6882H50.6876H50.6869H50.6863H50.6857H50.6851H50.6844H50.6838H50.6832H50.6826H50.6819H50.6813H50.6807H50.6801H50.6795H50.6788H50.6782H50.6776H50.677H50.6763H50.6757H50.6751H50.6745H50.6738H50.6732H50.6726H50.672H50.6713H50.6707H50.6701H50.6695H50.6689H50.6682H50.6676H50.667H50.6664H50.6657H50.6651H50.6645H50.6639H50.6632H50.6626H50.662H50.6614H50.6607H50.6601H50.6595H50.6589H50.6583H50.6576H50.657H50.6564H50.6558H50.6551H50.6545H50.628L50.6049 5.75643L27.7254 18.8245L27.7138 18.8311L27.7044 18.8405C27.6415 18.9033 27.5792 18.996 27.5471 19.0921C27.5163 19.1845 27.5041 19.3133 27.5979 19.407L27.7044 19.5133L27.714 19.5229L27.7258 19.5296L43.145 28.2353C43.207 28.2939 43.2807 28.3342 43.365 28.3342C43.4492 28.3342 43.5227 28.2941 43.5847 28.2356L47.3549 26.1444L48.7959 26.9665L48.8808 27.0149L48.9312 26.9311L49.2504 26.3999L49.3034 26.3116L49.2137 26.2612L47.511 25.305L47.4882 25.2922H47.462H47.4614H47.4608H47.4602H47.4595H47.4589H47.4583H47.4577H47.457H47.4564H47.4558H47.4552H47.4545H47.4539H47.4533H47.4527H47.452H47.4514H47.4508H47.4502H47.4496H47.4489H47.4483H47.4477H47.4471H47.4464H47.4458H47.4452H47.4446H47.4439H47.4433H47.4427H47.4421H47.4414H47.4408H47.4402H47.4396H47.439H47.4383H47.4377H47.4371H47.4365H47.4358H47.4352H47.4346H47.434H47.4333H47.4327H47.4321H47.4315H47.4308H47.4302H47.4296H47.429H47.4284H47.4277H47.4271H47.4265H47.4259H47.4252H47.4246H47.424H47.4234H47.4227H47.4221H47.4215H47.4209H47.4202H47.4196H47.419H47.4184H47.4178H47.4171H47.4165H47.4159H47.4153H47.4146H47.414H47.4134H47.4128H47.4121H47.4115H47.4109H47.4103H47.4096H47.409H47.4084H47.4078H47.4072H47.4065H47.4059H47.4053H47.4047H47.404H47.4034H47.4028H47.4022H47.4015H47.4009H47.4003H47.3997H47.399H47.3984H47.3978H47.3972H47.3966H47.3959H47.3953H47.3947H47.3941H47.3934H47.3928H47.3922H47.3916H47.3909H47.3903H47.3897H47.3891H47.3884H47.3878H47.3872H47.3866H47.386H47.3853H47.3847H47.3841H47.3835H47.3828H47.3822H47.3816H47.381H47.3803H47.3797H47.3791H47.3785H47.3778H47.3772H47.3766H47.376H47.3754H47.3747H47.3741H47.3735H47.3729H47.3722H47.3716H47.371H47.3704H47.3697H47.3691H47.3685H47.3679H47.3672H47.3666H47.366H47.3654H47.3648H47.3641H47.3635H47.3629H47.3623H47.3616H47.361H47.3604H47.3598H47.3591H47.3585H47.3579H47.3573H47.3566H47.356H47.3554H47.3548H47.3542H47.3535H47.3529H47.3523H47.3517H47.351H47.3504H47.3498H47.3492H47.3485H47.3479H47.3473H47.3467H47.346H47.3454H47.3448H47.3442H47.3436H47.3429H47.3423H47.3417H47.3411H47.3404H47.3398H47.3392H47.3386H47.3379H47.3373H47.3367H47.3361H47.3354H47.3348H47.3342H47.3336H47.333H47.3323H47.3317H47.3311H47.3305H47.3298H47.3292H47.3286H47.328H47.3273H47.3267H47.3261H47.3255H47.3248H47.3242H47.3236H47.323H47.3224H47.3217H47.3211H47.3205H47.3199H47.3192H47.3186H47.318H47.3174H47.3167H47.3161H47.3155H47.3149H47.3142H47.3136H47.313H47.3124H47.3118H47.3111H47.3105H47.3099H47.3093H47.3086H47.308H47.3074H47.3068H47.3061H47.3055H47.3049H47.3043H47.3036H47.303H47.3024H47.3018H47.3012H47.3005H47.2999H47.2993H47.2987H47.298H47.2974H47.2968H47.2962H47.2955H47.2949H47.2943H47.2937H47.293H47.2924H47.2918H47.2912H47.2906H47.2899H47.2893H47.2887H47.2881H47.2874H47.2868H47.2862H47.2856H47.2849H47.2843H47.2837H47.2831H47.2824H47.2818H47.2812H47.2806H47.28H47.2793H47.2787H47.2781H47.2775H47.2768H47.2762H47.2756H47.275H47.2743H47.2737H47.2731H47.2725H47.2718H47.2712H47.2706H47.27H47.2694H47.2687H47.2681H47.2675H47.2669H47.2662H47.2656H47.265H47.2644H47.2637H47.2631H47.2625H47.2619H47.2612H47.2606H47.26H47.2594H47.2588H47.2581H47.2575H47.2569H47.2563H47.2556H47.255H47.2544H47.2538H47.2531H47.2525H47.2519H47.2513H47.2506H47.25H47.2494H47.2488H47.2482H47.2475H47.2469H47.2463H47.2457H47.245H47.2444H47.2438H47.2432H47.2425H47.2419H47.2413H47.2407H47.24H47.2394H47.2388H47.2382H47.2376H47.2369H47.2363H47.2357H47.2351H47.2344H47.2338H47.2332H47.2326H47.2319H47.2313H47.2307H47.2301H47.2294H47.2288H47.2282H47.2276H47.227H47.2263H47.2257H47.2251H47.2245H47.2238H47.2232H47.2226H47.222H47.2213H47.2207H47.2201H47.2195H47.2188H47.2182H47.2176H47.217H47.2164H47.2157H47.2151H47.2145H47.2139H47.2132H47.2126H47.212H47.2114H47.2107H47.2101H47.2095H47.2089H47.2082H47.2076H47.207H47.2064H47.2058H47.2051H47.2045H47.2039H47.2033H47.2026H47.202H47.2014H47.2008H47.2001H47.1995H47.1989H47.1983H47.1976H47.197H47.1964H47.1958H47.1952H47.1945H47.1939H47.1933H47.1927H47.192H47.1914H47.1908H47.1902H47.1895H47.1889H47.1883H47.1877H47.187H47.1864H47.1858H47.1852H47.1846H47.1839H47.1833H47.1827H47.1821H47.1814H47.1808H47.1802H47.1796H47.1789H47.1783H47.1777H47.1771H47.1764H47.1758H47.1752H47.1746H47.174H47.1733H47.1727H47.1721H47.1715H47.1708H47.1702H47.1696H47.169H47.1683H47.1677H47.1671H47.1665H47.1658H47.1652H47.1646H47.164H47.1634H47.1627H47.1621H47.1615H47.1609H47.1602H47.1596H47.159H47.1584H47.1577H47.1571H47.1565H47.1559H47.1552H47.1546H47.154H47.1534H47.1528H47.1521H47.1515H47.1509H47.1503H47.1496H47.149H47.1484H47.1478H47.1471H47.1465H47.1459H47.1453H47.1446H47.144H47.1434H47.1428H47.1169L47.0943 25.3047L43.3122 27.4025L28.6163 19.1232L50.7613 6.48942L56.5648 9.7552Z" fill="#1271CD" stroke="#1271CD" stroke-width="0.2"/>
<path d="M50.5437 6.05179C50.5118 6.0836 50.4842 6.12358 50.4668 6.16864H50.4414H50.3414V6.26864V7.75606V7.81445L50.3923 7.84315L55.2874 10.6055L55.3103 10.6184H55.3366L55.3407 10.6184C55.4481 10.6184 55.5907 10.6185 55.7265 10.4829L55.7558 10.4536V10.4122L55.7558 10.408C55.7558 10.3007 55.7559 10.1583 55.62 10.0227L55.6108 10.0135L55.5996 10.0069L51.0735 7.37975V6.26864C51.0735 6.18294 51.0316 6.10565 50.9776 6.05179C50.9237 5.99792 50.8463 5.95615 50.7607 5.95615C50.675 5.95615 50.5976 5.99792 50.5437 6.05179Z" fill="#1271CD" stroke="#1271CD" stroke-width="0.2"/>
<path d="M51.0687 7.50063C51.0589 7.45945 51.0362 7.42485 51.012 7.39885C50.9791 7.36347 50.9363 7.3357 50.891 7.31764C50.8079 7.28445 50.6861 7.27458 50.5945 7.3562L29.2333 19.6641C29.1872 19.6721 29.1487 19.6966 29.1203 19.7229C29.0848 19.7558 29.057 19.7985 29.0389 19.8437C29.0077 19.9217 28.9971 20.0337 29.0634 20.1228C29.0731 20.164 29.0959 20.1986 29.12 20.2246C29.1529 20.26 29.1958 20.2877 29.241 20.3058C29.3241 20.339 29.4459 20.3489 29.5375 20.2672L50.8987 7.95934C50.9448 7.95136 50.9834 7.92683 51.0117 7.90052C51.0472 7.86767 51.075 7.82491 51.0931 7.77972C51.1243 7.70178 51.135 7.58976 51.0687 7.50063Z" fill="#1271CD" stroke="#1271CD" stroke-width="0.2"/>
<path d="M13.7279 68.5338C13.5456 68.5338 13.3859 68.5949 13.2715 68.7091C13.1571 68.8233 13.0958 68.9829 13.0958 69.165V75.7522C13.0958 75.9343 13.1571 76.0938 13.2715 76.2081C13.3859 76.3223 13.5456 76.3834 13.7279 76.3834C13.9102 76.3834 14.0699 76.3223 14.1843 76.2081C14.2987 76.0938 14.36 75.9343 14.36 75.7522V69.165C14.36 68.9829 14.2987 68.8233 14.1843 68.7091C14.0699 68.5949 13.9102 68.5338 13.7279 68.5338Z" fill="#1271CD" stroke="#1271CD" stroke-width="0.2"/>
<path d="M26.6043 75.8648C26.422 75.8648 26.2623 75.9259 26.1479 76.0402C26.0335 76.1544 25.9723 76.3139 25.9723 76.4961V83.1895C25.9723 83.3716 26.0335 83.5311 26.1479 83.6454C26.2623 83.7596 26.422 83.8207 26.6043 83.8207C26.7866 83.8207 26.9464 83.7596 27.0608 83.6454C27.1752 83.5311 27.2364 83.3716 27.2364 83.1895V76.4961C27.2364 76.3139 27.1752 76.1544 27.0608 76.0402C26.9464 75.9259 26.7866 75.8648 26.6043 75.8648Z" fill="#1271CD" stroke="#1271CD" stroke-width="0.2"/>
<path d="M47.7983 76.9823L47.7877 77.0035V77.0271C47.7877 77.0294 47.7877 77.0317 47.7877 77.034C47.7877 77.1353 47.7877 77.2535 47.8182 77.3601C47.8511 77.4751 47.9198 77.5789 48.053 77.6464L75.0802 93.2628L75.0801 93.263L75.0856 93.2657C75.2018 93.3237 75.3295 93.3589 75.4503 93.3416C75.5776 93.3235 75.6846 93.2487 75.7517 93.1148C75.8099 92.9987 75.8451 92.8711 75.8278 92.7504C75.8098 92.624 75.7357 92.5177 75.6034 92.4507L48.4697 76.8342L48.4697 76.834L48.4644 76.8314C48.3482 76.7734 48.2205 76.7382 48.0997 76.7555C47.9724 76.7736 47.8654 76.8483 47.7983 76.9823Z" fill="#1271CD" stroke="#1271CD" stroke-width="0.2"/>
<path d="M50.1578 76.3541L50.1672 76.3635L50.1786 76.3701L75.2929 90.8193L75.316 90.8326H75.3427H75.3469C75.4543 90.8326 75.5969 90.8326 75.7326 90.6971L75.762 90.6678V90.6263V90.6222C75.762 90.5149 75.762 90.3724 75.6262 90.2368L75.6169 90.2275L75.6054 90.2209L50.4912 75.7717L50.468 75.7584H50.4413C50.4399 75.7584 50.4386 75.7584 50.4372 75.7584C50.3298 75.7584 50.1872 75.7583 50.0514 75.8939L50.0221 75.9232V75.9646C50.0221 75.966 50.0221 75.9674 50.0221 75.9687C50.022 76.076 50.022 76.2185 50.1578 76.3541Z" fill="#1271CD" stroke="#1271CD" stroke-width="0.2"/>
<path d="M50.0718 74.603L50.0221 74.6319V74.6895V76.0707C50.0221 76.1564 50.064 76.2337 50.1179 76.2875C50.1719 76.3414 50.2492 76.3831 50.3349 76.3831C50.4206 76.3831 50.4979 76.3414 50.5519 76.2875C50.6058 76.2337 50.6477 76.1564 50.6477 76.0707V74.9602L57.4959 71.0683C57.5422 71.0604 57.5808 71.0358 57.6093 71.0094C57.6447 70.9766 57.6725 70.9338 57.6907 70.8886C57.7219 70.8107 57.7325 70.6986 57.6662 70.6095C57.6564 70.5683 57.6337 70.5337 57.6095 70.5077C57.5766 70.4724 57.5338 70.4446 57.4886 70.4265C57.4054 70.3933 57.2835 70.3835 57.1919 70.4652L50.0718 74.603Z" fill="#1271CD" stroke="#1271CD" stroke-width="0.2"/>
<path d="M50.1578 75.0792L50.1672 75.0886L50.1786 75.0952L75.2929 89.5443L75.316 89.5577H75.3427H75.3469C75.4543 89.5577 75.5969 89.5577 75.7326 89.4222L75.762 89.3929V89.3514V89.3473C75.762 89.24 75.762 89.0975 75.6262 88.9619L75.6169 88.9526L75.6054 88.946L50.4912 74.4968L50.468 74.4835H50.4413C50.44 74.4835 50.4386 74.4835 50.4372 74.4835C50.3298 74.4835 50.1872 74.4834 50.0514 74.619L50.0221 74.6483V74.6897C50.0221 74.6911 50.0221 74.6925 50.0221 74.6939C50.022 74.8012 50.022 74.9436 50.1578 75.0792Z" fill="#1271CD" stroke="#1271CD" stroke-width="0.2"/>
<path d="M55.3987 43.5766L55.3986 43.5764L55.3929 43.5797L45.9305 49.0994C45.7437 49.165 45.6422 49.2972 45.6086 49.4479C45.5759 49.5949 45.6091 49.7513 45.67 49.873L45.6773 49.8875L45.6888 49.899C45.7206 49.9307 45.7378 49.9585 45.7577 49.9907C45.7653 50.0029 45.7733 50.0158 45.7827 50.0299C45.798 50.0527 45.8196 50.0819 45.8518 50.1044C45.8788 50.1233 45.909 50.1347 45.9422 50.1389L77.4213 68.4012L77.4212 68.4014L77.4268 68.4042C77.5623 68.4718 77.7237 68.469 77.8622 68.4229C78.0007 68.3768 78.1316 68.2824 78.1994 68.147C78.2672 68.0117 78.2643 67.8504 78.2181 67.712C78.1723 67.5746 78.0787 67.4448 77.9448 67.3768L47.2363 49.6158L55.9106 44.6075C56.0975 44.5419 56.1991 44.4096 56.2326 44.2589C56.2648 44.1144 56.2333 43.9609 56.1744 43.8401C56.109 43.6513 55.9758 43.549 55.8241 43.5153C55.677 43.4827 55.5205 43.5158 55.3987 43.5766Z" fill="#1271CD" stroke="#1271CD" stroke-width="0.2"/>
<path d="M85.3014 60.7885L85.3013 60.7884L85.2969 60.7909L77.2589 65.3314L50.0035 49.6163L57.6212 45.2406L57.6327 45.234L57.642 45.2247C57.7615 45.1054 57.8948 44.8561 57.7757 44.5956C57.7754 44.5937 57.7751 44.5917 57.7748 44.5896C57.772 44.5731 57.7663 44.5495 57.7539 44.5248C57.7413 44.4996 57.7209 44.4714 57.6883 44.4498C57.6628 44.4328 57.6333 44.4222 57.601 44.4182L56.1311 43.5796L56.1312 43.5795L56.1262 43.577C56.01 43.519 55.8823 43.4838 55.7615 43.5011C55.6342 43.5192 55.5272 43.5939 55.4601 43.7279C55.402 43.844 55.3667 43.9716 55.384 44.0923C55.4021 44.219 55.4764 44.3254 55.6092 44.3924L56.4102 44.8367L48.8138 49.2002C48.8133 49.2003 48.8127 49.2003 48.8122 49.2004C48.7957 49.2032 48.7722 49.2089 48.7474 49.2212C48.7222 49.2338 48.694 49.2542 48.6723 49.2867C48.6546 49.3132 48.6438 49.344 48.6402 49.3778C48.5876 49.4887 48.557 49.609 48.5733 49.7233C48.5914 49.8496 48.6654 49.9559 48.7977 50.0229L77.0912 66.3768C77.1533 66.4357 77.2271 66.4761 77.3116 66.4761C77.3961 66.4761 77.4699 66.4357 77.532 66.3769L85.8216 61.6021L85.833 61.5956L85.8424 61.5862C85.9645 61.4643 86.1012 61.2064 85.9675 60.9395L85.9603 60.925L85.9488 60.9135C85.8266 60.7915 85.5684 60.6552 85.3014 60.7885Z" fill="#1271CD" stroke="#1271CD" stroke-width="0.2"/>
<path d="M85.8215 60.7913L85.8216 60.7912L85.8161 60.7884C85.6999 60.7304 85.5722 60.6953 85.4513 60.7125C85.324 60.7306 85.217 60.8054 85.1499 60.9394C85.0918 61.0554 85.0566 61.183 85.0738 61.3038C85.0919 61.4301 85.1659 61.5364 85.2982 61.6034L87.3176 62.7706L87.3175 62.7708L87.323 62.7735C87.4392 62.8315 87.5669 62.8667 87.6877 62.8495C87.815 62.8313 87.922 62.7566 87.9891 62.6226C88.0473 62.5065 88.0825 62.379 88.0652 62.2582C88.0472 62.1318 87.9732 62.0256 87.8409 61.9586L85.8215 60.7913Z" fill="#1271CD" stroke="#1271CD" stroke-width="0.2"/>
<path d="M32.3063 44.852L32.3062 44.8518L32.3009 44.8549L4.53469 60.8929C4.34776 60.9585 4.24619 61.0907 4.21263 61.2415C4.17991 61.3885 4.21309 61.5449 4.27404 61.6666L4.28131 61.6811L4.2928 61.6926C4.32456 61.7243 4.34177 61.752 4.36174 61.7842C4.36934 61.7965 4.37734 61.8094 4.3867 61.8234C4.40197 61.8463 4.42362 61.8755 4.45581 61.898C4.48289 61.9169 4.5132 61.9283 4.54642 61.9325L15.8066 68.4019L15.8065 68.4021L15.8117 68.4047C15.9472 68.4723 16.1086 68.4695 16.2471 68.4234C16.3857 68.3773 16.5165 68.2828 16.5843 68.1475C16.6521 68.0121 16.6493 67.8508 16.6031 67.7125C16.5572 67.575 16.4635 67.4452 16.3295 67.3772L5.94713 61.4091L32.8182 45.8829C33.0051 45.8173 33.1067 45.685 33.1402 45.5343C33.1724 45.3898 33.1409 45.2363 33.082 45.1155C33.0166 44.9267 32.8834 44.8244 32.7317 44.7907C32.5847 44.7581 32.4281 44.7912 32.3063 44.852ZM29.1013 74.7091L29.1014 74.709L29.0967 74.7066C28.9612 74.639 28.7998 74.6418 28.6613 74.6879C28.5228 74.734 28.3919 74.8284 28.3241 74.9638C28.2563 75.0992 28.2592 75.2604 28.3054 75.3988C28.3513 75.5364 28.445 75.6663 28.5792 75.7343L41.1342 82.8514L41.1341 82.8515L41.1388 82.8539C41.2743 82.9215 41.4357 82.9187 41.5742 82.8726C41.7127 82.8265 41.8436 82.732 41.9114 82.5967C41.9792 82.4613 41.9763 82.3 41.9301 82.1617C41.8842 82.0241 41.7905 81.8942 41.6563 81.8262L29.1013 74.7091ZM114.987 66.0646L130.053 74.6902L79.8122 103.686L54.4285 89.2646L54.4286 89.2645L54.4238 89.2621C54.2883 89.1944 54.1269 89.1973 53.9884 89.2434C53.8499 89.2895 53.719 89.3839 53.6512 89.5192C53.5834 89.6546 53.5862 89.8159 53.6324 89.9543C53.6784 90.0918 53.7721 90.2217 53.9062 90.2897L79.5504 104.844L79.5503 104.844L79.5551 104.846C79.6727 104.905 79.7944 104.937 79.9057 104.937C80.0115 104.937 80.1155 104.908 80.1921 104.838L131.572 75.2063C131.759 75.1407 131.861 75.0084 131.895 74.8577C131.927 74.7107 131.894 74.5543 131.833 74.4326L131.826 74.4181L131.814 74.4066C131.783 74.3749 131.765 74.3471 131.745 74.3149C131.738 74.3027 131.73 74.2898 131.72 74.2757C131.705 74.2529 131.684 74.2237 131.651 74.2012C131.624 74.1822 131.594 74.1708 131.561 74.1667L115.618 65.0411L115.535 64.9933L115.484 65.0748L114.952 65.9248L114.896 66.0129L114.987 66.0646Z" fill="#1271CD" stroke="#1271CD" stroke-width="0.2"/>
<path d="M13.9856 69.6795L13.9857 69.6798L13.9917 69.6762L16.3241 68.3002C16.5108 68.2346 16.6122 68.1024 16.6457 67.9517C16.6779 67.8073 16.6464 67.6538 16.5875 67.533C16.5221 67.3442 16.3889 67.2419 16.2372 67.2082C16.0901 67.1756 15.9336 67.2087 15.8117 67.2695L15.8116 67.2693L15.8056 67.2728L13.4732 68.6488C13.2866 68.7145 13.1851 68.8466 13.1516 68.9973C13.1194 69.1417 13.1509 69.2953 13.2099 69.416C13.2752 69.6049 13.4084 69.7072 13.5601 69.7408C13.7072 69.7735 13.8637 69.7404 13.9856 69.6795Z" fill="#1271CD" stroke="#1271CD" stroke-width="0.2"/>
<path d="M26.8616 77.0101L26.8616 77.0102L26.866 77.0077L29.3056 75.6311C29.4928 75.5656 29.5945 75.4332 29.6281 75.2823C29.6603 75.1379 29.6288 74.9843 29.5699 74.8636C29.5045 74.6747 29.3713 74.5724 29.2196 74.5388C29.0725 74.5061 28.916 74.5392 28.7941 74.6L28.7941 74.5999L28.7897 74.6024L26.3501 75.9791C26.1629 76.0446 26.0612 76.177 26.0276 76.3279C25.9954 76.4723 26.0269 76.6258 26.0858 76.7466C26.1512 76.9354 26.2844 77.0377 26.4361 77.0714C26.5832 77.104 26.7397 77.0709 26.8616 77.0101Z" fill="#1271CD" stroke="#1271CD" stroke-width="0.2"/>
<path d="M15.9628 67.3648C15.8833 67.3648 15.7821 67.4015 15.7009 67.4664C15.6165 67.5338 15.5436 67.6401 15.5436 67.7836V69.0585C15.5436 69.138 15.5804 69.2391 15.6453 69.3202C15.7128 69.4045 15.8193 69.4772 15.9628 69.4772C16.0423 69.4772 16.1435 69.4405 16.2247 69.3757C16.3091 69.3083 16.3821 69.202 16.3821 69.0585V67.7836C16.3821 67.7041 16.3453 67.6029 16.2803 67.5218C16.2128 67.4376 16.1063 67.3648 15.9628 67.3648Z" fill="#1271CD" stroke="#1271CD" stroke-width="0.2"/>
<path d="M15.2677 68.1224L15.2678 68.1222L15.2624 68.1195C15.1462 68.0615 15.0185 68.0263 14.8976 68.0435C14.7703 68.0617 14.6633 68.1364 14.5962 68.2704C14.5381 68.3865 14.5028 68.514 14.5201 68.6348C14.5382 68.7612 14.6122 68.8674 14.7445 68.9345L27.6184 76.3701L27.6183 76.3703L27.6237 76.373C27.74 76.431 27.8676 76.4661 27.9885 76.4489C28.1158 76.4307 28.2228 76.356 28.2899 76.222C28.348 76.106 28.3833 75.9784 28.366 75.8576C28.3479 75.7313 28.2739 75.625 28.1416 75.558L15.2677 68.1224Z" fill="#1271CD" stroke="#1271CD" stroke-width="0.2"/>
<path d="M13.9856 76.3727L13.9857 76.3728L13.9912 76.3696L15.2597 75.6309C15.4465 75.5653 15.548 75.433 15.5816 75.2823C15.6137 75.1379 15.5822 74.9843 15.5233 74.8636C15.4579 74.6747 15.3248 74.5724 15.1731 74.5388C15.026 74.5061 14.8694 74.5392 14.7476 74.6L14.7475 74.5999L14.7419 74.6031L13.4735 75.3418C13.2867 75.4074 13.1851 75.5397 13.1516 75.6904C13.1194 75.8348 13.1509 75.9884 13.2099 76.1091C13.2752 76.298 13.4084 76.4003 13.5601 76.4339C13.7072 76.4666 13.8637 76.4335 13.9856 76.3727Z" fill="#1271CD" stroke="#1271CD" stroke-width="0.2"/>
<path d="M26.235 82.2136L26.2349 82.2138L26.2402 82.2164C26.3564 82.2745 26.4841 82.3096 26.6049 82.2924C26.7322 82.2742 26.8393 82.1995 26.9064 82.0655C26.9645 81.9494 26.9997 81.8219 26.9824 81.7011C26.9644 81.5747 26.8903 81.4684 26.7579 81.4014L15.3176 74.8444V68.5277C15.3176 68.4482 15.2808 68.3471 15.2158 68.266C15.1483 68.1817 15.0418 68.109 14.8983 68.109C14.8188 68.109 14.7176 68.1457 14.6364 68.2105C14.573 68.2612 14.516 68.3338 14.4916 68.4277H14.4727H14.3727V68.5277V75.3273V75.3852L14.4228 75.414L26.235 82.2136Z" fill="#1271CD" stroke="#1271CD" stroke-width="0.2"/>
<path d="M122.642 52.784L122.653 52.7774L122.663 52.7681L122.665 52.7653C122.717 52.7141 122.774 52.6568 122.818 52.598C122.862 52.5391 122.905 52.4644 122.905 52.3786V37.6106C122.905 37.4945 122.877 37.3735 122.785 37.3048C122.692 37.2352 122.574 37.2472 122.46 37.2994C122.381 37.3076 122.336 37.3529 122.311 37.3784L122.309 37.3805C122.284 37.4045 122.282 37.4045 122.274 37.4044C122.274 37.4044 122.273 37.4044 122.273 37.4044H122.246L122.223 37.4176L96.7015 52.0688C96.6555 52.0767 96.6174 52.1009 96.5893 52.1253C96.5539 52.1559 96.5243 52.195 96.5008 52.2341C96.4556 52.3093 96.42 52.4071 96.42 52.4848V67.1465C96.42 67.226 96.4568 67.3272 96.5218 67.4082C96.5893 67.4925 96.6957 67.5652 96.8393 67.5652C96.934 67.5652 96.9861 67.5131 97.0143 67.4849L97.0163 67.4829C97.0404 67.4589 97.0426 67.4589 97.0506 67.459C97.051 67.459 97.0516 67.459 97.0521 67.459H97.0788L97.1019 67.4457L122.642 52.784ZM97.3649 66.2301V52.5427L121.96 38.4208V52.1082L97.3649 66.2301Z" fill="#1271CD" stroke="#1271CD" stroke-width="0.2"/>
<path d="M116.213 55.8841V55.9841H116.313H116.951H117.051V55.8841V41.1162V41.0162H116.951H116.313H116.213V41.1162V55.8841Z" fill="#1271CD" stroke="#1271CD" stroke-width="0.2"/>
<path d="M109.402 59.8158V59.9158H109.502H110.141H110.241V59.8158V45.0479V44.9479H110.141H109.502H109.402V45.0479V59.8158Z" fill="#1271CD" stroke="#1271CD" stroke-width="0.2"/>
<path d="M102.485 63.7464V63.8464H102.585H103.224H103.324V63.7464V48.9785V48.8785H103.224H102.585H102.485V48.9785V63.7464Z" fill="#1271CD" stroke="#1271CD" stroke-width="0.2"/>
<path d="M64.8079 52.1599H64.9079V52.0599V37.292V37.192H64.8079H64.1694H64.0694V37.292V52.0599V52.1599H64.1694H64.8079Z" fill="#1271CD" stroke="#1271CD" stroke-width="0.2"/>
<path d="M71.6185 56.0906H71.7185V55.9906V41.2227V41.1227H71.6185H70.98H70.88V41.2227V55.9906V56.0906H70.98H71.6185Z" fill="#1271CD" stroke="#1271CD" stroke-width="0.2"/>
<path d="M78.429 60.0215H78.529V59.9215V45.2598V45.1598H78.429H77.897H77.797V45.2598V59.9215V60.0215H77.897H78.429Z" fill="#1271CD" stroke="#1271CD" stroke-width="0.2"/>
<path d="M30.2225 36.4356H30.3225V36.3356V28.1548V28.0548H30.2225H29.584H29.484V28.1548V36.3356V36.4356H29.584H30.2225Z" fill="#1271CD" stroke="#1271CD" stroke-width="0.2"/>
<path d="M37.0331 40.3665H37.1331V40.2665V32.1919V32.0919H37.0331H36.501H36.401V32.1919V40.2665V40.3665H36.501H37.0331Z" fill="#1271CD" stroke="#1271CD" stroke-width="0.2"/>
<path d="M39.055 83.0895C38.8727 83.0895 38.713 83.1506 38.5986 83.2648C38.4842 83.379 38.4229 83.5385 38.4229 83.7207V89.9891C38.4229 90.1712 38.4842 90.3307 38.5986 90.445C38.713 90.5592 38.8727 90.6203 39.055 90.6203C39.2373 90.6203 39.397 90.5592 39.5114 90.445C39.6259 90.3307 39.6871 90.1712 39.6871 89.9891V83.7207C39.6871 83.5385 39.6259 83.379 39.5114 83.2648C39.397 83.1506 39.2373 83.0895 39.055 83.0895Z" fill="#1271CD" stroke="#1271CD" stroke-width="0.2"/>
<path d="M51.931 90.4205C51.7487 90.4205 51.589 90.4816 51.4746 90.5958C51.3602 90.7101 51.2989 90.8696 51.2989 91.0517V97.5326C51.2989 97.7148 51.3602 97.8743 51.4746 97.9885C51.589 98.1027 51.7487 98.1639 51.931 98.1639C52.1133 98.1639 52.273 98.1027 52.3874 97.9885C52.5018 97.8743 52.5631 97.7148 52.5631 97.5326V91.0517C52.5631 90.8696 52.5018 90.7101 52.3874 90.5958C52.273 90.4816 52.1133 90.4205 51.931 90.4205Z" fill="#1271CD" stroke="#1271CD" stroke-width="0.2"/>
<path d="M39.3127 84.2347L39.3128 84.2349L39.3189 84.2314L41.6513 82.8554C41.8379 82.7897 41.9393 82.6576 41.9729 82.5069C42.005 82.3625 41.9735 82.209 41.9146 82.0882C41.8493 81.8994 41.7161 81.797 41.5644 81.7634C41.4173 81.7307 41.2607 81.7638 41.1389 81.8247L41.1388 81.8244L41.1327 81.828L38.8004 83.204C38.6137 83.2697 38.5123 83.4018 38.4787 83.5525C38.4466 83.6969 38.4781 83.8504 38.537 83.9712C38.6024 84.16 38.7355 84.2623 38.8872 84.296C39.0343 84.3286 39.1909 84.2955 39.3127 84.2347Z" fill="#1271CD" stroke="#1271CD" stroke-width="0.2"/>
<path d="M52.1888 91.5654L52.1889 91.5656L52.1949 91.5621L54.5333 90.1826C54.667 90.1145 54.7604 89.9848 54.8063 89.8475C54.8525 89.7092 54.8553 89.5479 54.7875 89.4125C54.7197 89.2772 54.5889 89.1827 54.4503 89.1366C54.3118 89.0905 54.1504 89.0877 54.0149 89.1553L54.0148 89.1551L54.0088 89.1587L51.6705 90.5382C51.5367 90.6063 51.4433 90.736 51.3975 90.8732C51.3513 91.0116 51.3484 91.1729 51.4162 91.3082C51.484 91.4436 51.6149 91.538 51.7534 91.5841C51.8919 91.6302 52.0533 91.633 52.1888 91.5654Z" fill="#1271CD" stroke="#1271CD" stroke-width="0.2"/>
<path d="M41.3964 82.0265C41.3108 82.0265 41.2334 82.0682 41.1795 82.1221C41.1255 82.176 41.0836 82.2532 41.0836 82.3389V83.6139C41.0836 83.6996 41.1255 83.7769 41.1795 83.8307C41.2334 83.8846 41.3108 83.9264 41.3964 83.9264C41.4821 83.9264 41.5595 83.8846 41.6134 83.8307C41.6674 83.7769 41.7093 83.6996 41.7093 83.6139V82.3389C41.7093 82.2532 41.6674 82.176 41.6134 82.1221C41.5594 82.0682 41.4821 82.0265 41.3964 82.0265Z" fill="#1271CD" stroke="#1271CD" stroke-width="0.2"/>
<path d="M40.5949 82.5716L40.595 82.5714L40.5895 82.5687C40.4733 82.5107 40.3456 82.4755 40.2248 82.4928C40.0975 82.5109 39.9905 82.5856 39.9234 82.7196C39.8652 82.8357 39.83 82.9633 39.8473 83.084C39.8654 83.2104 39.9394 83.3166 40.0717 83.3837L52.9455 90.8193L52.9454 90.8195L52.9509 90.8222C53.0671 90.8802 53.1948 90.9154 53.3156 90.8981C53.4429 90.88 53.5499 90.8052 53.617 90.6713C53.6752 90.5552 53.7104 90.4276 53.6931 90.3069C53.6751 90.1805 53.6011 90.0743 53.4687 90.0072L40.5949 82.5716Z" fill="#1271CD" stroke="#1271CD" stroke-width="0.2"/>
<path d="M39.3127 90.8221L39.3129 90.8223L39.3195 90.8184L40.3746 90.1863C40.561 90.1206 40.6624 89.9885 40.6959 89.838C40.728 89.6935 40.6965 89.54 40.6376 89.4193C40.5723 89.2304 40.4391 89.1281 40.2874 89.0944C40.1403 89.0618 39.9837 89.0949 39.8619 89.1557L39.8618 89.1554L39.8552 89.1594L38.8 89.7915C38.6136 89.8572 38.5123 89.9893 38.4787 90.1398C38.4466 90.2843 38.4781 90.4378 38.537 90.5585C38.6024 90.7474 38.7355 90.8497 38.8872 90.8833C39.0343 90.916 39.1909 90.8829 39.3127 90.8221Z" fill="#1271CD" stroke="#1271CD" stroke-width="0.2"/>
<path d="M51.6686 96.6629L51.6685 96.663L51.6738 96.6657C51.79 96.7237 51.9177 96.7588 52.0385 96.7416C52.1658 96.7234 52.2728 96.6487 52.34 96.5147C52.3981 96.3987 52.4333 96.2711 52.416 96.1503C52.3979 96.0238 52.3238 95.9175 52.1913 95.8505L40.6447 89.2934V82.9769C40.6447 82.8974 40.6079 82.7963 40.543 82.7152C40.4755 82.6309 40.369 82.5582 40.2255 82.5582C40.146 82.5582 40.0448 82.5949 39.9636 82.6597C39.8792 82.7271 39.8062 82.8334 39.8062 82.9769V89.7766V89.8344L39.8564 89.8632L51.6686 96.6629Z" fill="#1271CD" stroke="#1271CD" stroke-width="0.2"/>
<path d="M64.8079 75.0024H64.9079V74.9024V65.1279V65.0279H64.8079H64.1694H64.0694V65.1279V74.9024V75.0024H64.1694H64.8079Z" fill="#1271CD" stroke="#1271CD" stroke-width="0.2"/>
<path d="M71.6185 79.1455H71.7185V79.0455V69.0586V68.9586H71.6185H70.98H70.88V69.0586V79.0455V79.1455H70.98H71.6185Z" fill="#1271CD" stroke="#1271CD" stroke-width="0.2"/>
<path d="M40.0485 85.4914L40.0578 85.5006L40.0691 85.5072L51.6685 92.2006L51.6917 92.214H51.7185L51.7226 92.214C51.8301 92.214 51.9726 92.214 52.1084 92.0785L52.1377 92.0492V92.0077V92.0036C52.1378 91.8963 52.1378 91.7538 52.002 91.6182L51.9927 91.6089L51.9813 91.6024L40.3819 84.909L40.3587 84.8956H40.3319C40.3306 84.8956 40.3292 84.8956 40.3278 84.8956C40.2204 84.8956 40.0778 84.8956 39.942 85.0311L39.9127 85.0604V85.1018C39.9127 85.1032 39.9127 85.1046 39.9127 85.106C39.9127 85.2133 39.9126 85.3558 40.0485 85.4914Z" fill="#1271CD" stroke="#1271CD" stroke-width="0.2"/>
<path d="M40.0485 87.6159L40.0578 87.6251L40.0691 87.6317L51.6685 94.3251L51.6917 94.3385H51.7185L51.7226 94.3385C51.8301 94.3385 51.9726 94.3385 52.1084 94.203L52.1377 94.1737V94.1322V94.1281C52.1378 94.0208 52.1378 93.8783 52.002 93.7427L51.9927 93.7335L51.9813 93.7269L40.3819 87.0335L40.3587 87.0201H40.3319C40.3306 87.0201 40.3292 87.0201 40.3278 87.0201C40.2204 87.0201 40.0778 87.0201 39.942 87.1556L39.9127 87.1849V87.2264C39.9127 87.2277 39.9127 87.2291 39.9127 87.2305C39.9127 87.3378 39.9126 87.4803 40.0485 87.6159Z" fill="#1271CD" stroke="#1271CD" stroke-width="0.2"/>
<path d="M14.8278 71.1481L14.8371 71.1574L14.8484 71.1639L26.4478 77.8573L26.471 77.8707H26.4978L26.5019 77.8707C26.6094 77.8707 26.7519 77.8708 26.8877 77.7352L26.917 77.7059V77.6645V77.6604C26.9171 77.5531 26.9171 77.4106 26.7813 77.275L26.772 77.2657L26.7606 77.2591L15.1612 70.5657L15.138 70.5523H15.1112C15.1099 70.5523 15.1085 70.5523 15.1071 70.5523C14.9997 70.5523 14.8571 70.5523 14.7213 70.6878L14.692 70.7171V70.7586C14.692 70.76 14.692 70.7613 14.692 70.7627C14.692 70.87 14.6919 71.0125 14.8278 71.1481Z" fill="#1271CD" stroke="#1271CD" stroke-width="0.2"/>
<path d="M14.8278 73.2731L14.8371 73.2824L14.8484 73.2889L26.4478 79.9823L26.471 79.9957H26.4978L26.5019 79.9957C26.6094 79.9957 26.7519 79.9958 26.8877 79.8602L26.917 79.8309V79.7895V79.7854C26.9171 79.6781 26.9171 79.5356 26.7813 79.4L26.772 79.3907L26.7606 79.3841L15.1612 72.6907L15.138 72.6773H15.1112C15.1099 72.6773 15.1085 72.6773 15.1071 72.6773C14.9997 72.6773 14.8571 72.6773 14.7213 72.8128L14.692 72.8421V72.8836C14.692 72.885 14.692 72.8863 14.692 72.8877C14.692 72.995 14.6919 73.1375 14.8278 73.2731Z" fill="#1271CD" stroke="#1271CD" stroke-width="0.2"/>
<path d="M71.5684 15.6377L71.4799 15.6885L71.5325 15.7759L71.8517 16.3071L71.9026 16.3918L71.9879 16.342L76.3308 13.8039C76.3639 13.7996 76.3956 13.788 76.4233 13.7665C76.4585 13.7392 76.4777 13.7032 76.4884 13.671C76.507 13.6154 76.507 13.5479 76.5069 13.5006C76.5069 13.4981 76.5069 13.4957 76.5069 13.4933V10.1997V10.0997H76.4069H75.8748H75.7748V10.1997V13.2229L71.5684 15.6377Z" fill="#1271CD" stroke="#1271CD" stroke-width="0.2"/>
<path d="M76.2449 10.4982L76.256 10.4918L76.2651 10.4827L76.2712 10.4766C76.3197 10.4282 76.3829 10.3653 76.4169 10.2973C76.436 10.2592 76.4498 10.2125 76.4433 10.1604C76.4383 10.1201 76.4219 10.0838 76.3973 10.0517C76.3924 10.024 76.3824 9.99861 76.3674 9.97622C76.3457 9.94371 76.3175 9.9233 76.2923 9.91074C76.2676 9.89838 76.244 9.89269 76.2275 9.88995C76.2272 9.88989 76.2269 9.88984 76.2266 9.88979L72.1339 7.4801C72.1237 7.45175 72.1038 7.42303 72.0653 7.40655C72.0366 7.39427 72.0094 7.39524 71.9922 7.39743C71.9746 7.39969 71.9583 7.40453 71.9461 7.40859C71.9346 7.41244 71.9225 7.41705 71.9123 7.42095L71.9099 7.42186C71.8984 7.42625 71.8882 7.4301 71.878 7.43349C71.857 7.44045 71.8423 7.44331 71.8314 7.44331H71.8049L71.7818 7.45645L67.3307 9.99584C67.2845 10.0038 67.2459 10.0283 67.2174 10.0547C67.182 10.0876 67.1542 10.1303 67.1361 10.1755C67.1051 10.2528 67.0944 10.3636 67.1589 10.4524C67.1638 10.4805 67.1738 10.5062 67.189 10.5289C67.2107 10.5614 67.2389 10.5818 67.264 10.5943C67.2888 10.6067 67.3124 10.6124 67.3289 10.6151C67.3294 10.6152 67.3299 10.6153 67.3304 10.6154L71.5688 13.0485L71.5919 13.0618H71.6186H71.6186H71.6186H71.6186H71.6186H71.6186H71.6186H71.6187H71.6187H71.6187H71.6187H71.6188H71.6188H71.6188H71.6189H71.6189H71.619H71.619H71.619H71.6191H71.6191H71.6192H71.6193H71.6193H71.6194H71.6194H71.6195H71.6196H71.6196H71.6197H71.6198H71.6199H71.6199H71.62H71.6201H71.6202H71.6203H71.6204H71.6205H71.6206H71.6207H71.6208H71.6209H71.621H71.6211H71.6212H71.6213H71.6214H71.6215H71.6216H71.6217H71.6219H71.622H71.6221H71.6222H71.6224H71.6225H71.6226H71.6228H71.6229H71.6231H71.6232H71.6233H71.6235H71.6236H71.6238H71.6239H71.6241H71.6243H71.6244H71.6246H71.6247H71.6249H71.6251H71.6253H71.6254H71.6256H71.6258H71.626H71.6261H71.6263H71.6265H71.6267H71.6269H71.6271H71.6273H71.6275H71.6277H71.6279H71.6281H71.6283H71.6285H71.6287H71.6289H71.6291H71.6293H71.6295H71.6297H71.63H71.6302H71.6304H71.6306H71.6308H71.6311H71.6313H71.6315H71.6318H71.632H71.6322H71.6325H71.6327H71.633H71.6332H71.6335H71.6337H71.634H71.6342H71.6345H71.6347H71.635H71.6353H71.6355H71.6358H71.636H71.6363H71.6366H71.6369H71.6371H71.6374H71.6377H71.638H71.6382H71.6385H71.6388H71.6391H71.6394H71.6397H71.64H71.6403H71.6406H71.6409H71.6412H71.6415H71.6418H71.6421H71.6424H71.6427H71.643H71.6433H71.6436H71.6439H71.6442H71.6446H71.6449H71.6452H71.6455H71.6458H71.6462H71.6465H71.6468H71.6472H71.6475H71.6478H71.6482H71.6485H71.6488H71.6492H71.6495H71.6499H71.6502H71.6506H71.6509H71.6513H71.6516H71.652H71.6523H71.6527H71.653H71.6534H71.6538H71.6541H71.6545H71.6549H71.6552H71.6556H71.656H71.6563H71.6567H71.6571H71.6575H71.6578H71.6582H71.6586H71.659H71.6594H71.6598H71.6602H71.6605H71.6609H71.6613H71.6617H71.6621H71.6625H71.6629H71.6633H71.6637H71.6641H71.6645H71.6649H71.6653H71.6657H71.6662H71.6666H71.667H71.6674H71.6678H71.6682H71.6686H71.6691H71.6695H71.6699H71.6703H71.6708H71.6712H71.6716H71.672H71.6725H71.6729H71.6733H71.6738H71.6742H71.6747H71.6751H71.6755H71.676H71.6764H71.6769H71.6773H71.6778H71.6782H71.6786H71.6791H71.6796H71.68H71.6805H71.6809H71.6814H71.6818H71.6823H71.6828H71.6832H71.6837H71.6841H71.6846H71.6851H71.6855H71.686H71.6865H71.687H71.6874H71.6879H71.6884H71.6889H71.6893H71.6898H71.6903H71.6908H71.6913H71.6917H71.6922H71.6927H71.6932H71.6937H71.6942H71.6947H71.6952H71.6956H71.6961H71.6966H71.6971H71.6976H71.6981H71.6986H71.6991H71.6996H71.7001H71.7006H71.7011H71.7016H71.7022H71.7027H71.7032H71.7037H71.7042H71.7047H71.7052H71.7057H71.7062H71.7068H71.7073H71.7078H71.7083H71.7088H71.7094H71.7099H71.7104H71.7109H71.7115H71.712H71.7125H71.713H71.7136H71.7141H71.7146H71.7152H71.7157H71.7162H71.7168H71.7173H71.7178H71.7184H71.7189H71.7194H71.72H71.7205H71.7211H71.7216H71.7221H71.7227H71.7232H71.7238H71.7243H71.7249H71.7254H71.726H71.7265H71.7271H71.7276H71.7282H71.7287H71.7293H71.7298H71.7304H71.731H71.7315H71.7321H71.7326H71.7332H71.7338H71.7343H71.7349H71.7354H71.736H71.7366H71.7371H71.7377H71.7383H71.7388H71.7394H71.74H71.7405H71.7411H71.7417H71.7423H71.7428H71.7434H71.744H71.7446H71.7451H71.7457H71.7463H71.7469H71.7474H71.748H71.7486H71.7492H71.7498H71.7503H71.7509H71.7515H71.7521H71.7527H71.7532H71.7538H71.7544H71.755H71.7556H71.7562H71.7568H71.7574H71.7579H71.7585H71.7591H71.7597H71.7603H71.7609H71.7615H71.7621H71.7627H71.7633H71.7639H71.7645H71.7651H71.7656H71.7662H71.7668H71.7674H71.768H71.7686H71.7692H71.7698H71.7704H71.771H71.7716H71.7722H71.7728H71.7734H71.774H71.7746H71.7753H71.7759H71.7765H71.7771H71.7777H71.7783H71.7789H71.7795H71.7801H71.7807H71.7813H71.7819H71.7825H71.7831H71.7837H71.7844H71.785H71.7856H71.7862H71.7868H71.7874H71.788H71.7886H71.7892H71.7899H71.7905H71.7911H71.7917H71.7923H71.7929H71.7935H71.7942H71.7948H71.7954H71.796H71.7966H71.7972H71.7979H71.7985H71.7991H71.7997H71.8003H71.8009H71.8016H71.8022H71.8028H71.8034H71.804H71.8046H71.8053H71.8059H71.8065H71.8071H71.8077H71.8084H71.809H71.8096H71.8102H71.8108H71.8115H71.8121H71.8127H71.8133H71.814H71.8146H71.8152H71.8158H71.8164H71.8171H71.8177H71.8183H71.8189H71.8196H71.8202H71.8208H71.8214H71.822H71.8227H71.8233H71.8239H71.8245H71.8252H71.8258H71.8264H71.827H71.8277H71.8283H71.8289H71.8295H71.8301H71.8308H71.8314H71.8585L71.8819 13.0481L76.2449 10.4982ZM71.9364 8.08402L75.4638 10.197L71.7264 12.3148L68.199 10.2018L71.9364 8.08402Z" fill="#1271CD" stroke="#1271CD" stroke-width="0.2"/>
<path d="M67.781 10.306V10.2278L67.7053 10.2089L67.2796 10.1027L67.1554 10.0717V10.1997V13.4933C67.1554 13.4957 67.1554 13.4981 67.1554 13.5006C67.1553 13.5479 67.1552 13.6154 67.1738 13.671C67.1846 13.7032 67.2037 13.7391 67.2389 13.7665C67.2667 13.7881 67.2987 13.7997 67.3319 13.8039L71.5687 16.2361L71.5918 16.2494H71.6184L71.6226 16.2494C71.73 16.2494 71.8726 16.2494 72.0083 16.1139L72.0377 16.0846V16.0431V15.9369V12.6433V12.5433H71.9377H71.4056H71.3056V12.6433V15.3397L67.781 13.329V10.306Z" fill="#1271CD" stroke="#1271CD" stroke-width="0.2"/>
<path d="M80.082 20.5244L79.9936 20.5752L80.0461 20.6626L80.3654 21.1939L80.4163 21.2785L80.5015 21.2287L84.8445 18.6906C84.8776 18.6863 84.9093 18.6747 84.937 18.6532C84.9722 18.6259 84.9914 18.5899 85.0021 18.5578C85.0207 18.5021 85.0206 18.4346 85.0206 18.3873C85.0206 18.3848 85.0206 18.3824 85.0206 18.38V15.0864V14.9864H84.9206H84.3885H84.2885V15.0864V18.1096L80.082 20.5244Z" fill="#1271CD" stroke="#1271CD" stroke-width="0.2"/>
<path d="M84.7581 15.3855L84.7692 15.379L84.7783 15.3699L84.7844 15.3638C84.8329 15.3155 84.8961 15.2525 84.9301 15.1845C84.9492 15.1464 84.963 15.0997 84.9565 15.0476C84.9515 15.0073 84.9351 14.971 84.9105 14.9389C84.9056 14.9112 84.8955 14.8858 84.8806 14.8634C84.8589 14.8309 84.8307 14.8105 84.8055 14.7979C84.7808 14.7856 84.7572 14.7799 84.7407 14.7772C84.7404 14.7771 84.7401 14.7771 84.7398 14.777L80.6471 12.3673C80.6369 12.339 80.617 12.3102 80.5785 12.2938C80.5497 12.2815 80.5225 12.2825 80.5054 12.2846C80.4878 12.2869 80.4715 12.2917 80.4593 12.2958C80.4478 12.2996 80.4357 12.3043 80.4254 12.3082L80.4231 12.3091C80.4116 12.3135 80.4013 12.3173 80.3912 12.3207C80.3702 12.3277 80.3555 12.3305 80.3446 12.3305H80.3181L80.295 12.3437L75.8439 14.883C75.7977 14.891 75.7591 14.9156 75.7306 14.9419C75.6952 14.9748 75.6674 15.0175 75.6493 15.0627C75.6183 15.14 75.6076 15.2508 75.6721 15.3396C75.6769 15.3677 75.687 15.3934 75.7022 15.4161C75.7239 15.4486 75.7521 15.469 75.7772 15.4816C75.802 15.4939 75.8256 15.4996 75.8421 15.5023C75.8426 15.5024 75.8431 15.5025 75.8436 15.5026L80.082 17.9357L80.1051 17.949H80.1318H80.1318H80.1318H80.1318H80.1318H80.1318H80.1318H80.1319H80.1319H80.1319H80.1319H80.132H80.132H80.132H80.1321H80.1321H80.1321H80.1322H80.1322H80.1323H80.1323H80.1324H80.1324H80.1325H80.1326H80.1326H80.1327H80.1328H80.1328H80.1329H80.133H80.1331H80.1331H80.1332H80.1333H80.1334H80.1335H80.1336H80.1337H80.1337H80.1338H80.1339H80.134H80.1341H80.1343H80.1344H80.1345H80.1346H80.1347H80.1348H80.1349H80.1351H80.1352H80.1353H80.1354H80.1356H80.1357H80.1358H80.136H80.1361H80.1362H80.1364H80.1365H80.1367H80.1368H80.137H80.1371H80.1373H80.1375H80.1376H80.1378H80.1379H80.1381H80.1383H80.1384H80.1386H80.1388H80.139H80.1391H80.1393H80.1395H80.1397H80.1399H80.1401H80.1403H80.1405H80.1406H80.1408H80.141H80.1412H80.1414H80.1417H80.1419H80.1421H80.1423H80.1425H80.1427H80.1429H80.1431H80.1434H80.1436H80.1438H80.144H80.1443H80.1445H80.1447H80.145H80.1452H80.1454H80.1457H80.1459H80.1462H80.1464H80.1467H80.1469H80.1472H80.1474H80.1477H80.1479H80.1482H80.1484H80.1487H80.149H80.1492H80.1495H80.1498H80.15H80.1503H80.1506H80.1509H80.1512H80.1514H80.1517H80.152H80.1523H80.1526H80.1529H80.1532H80.1534H80.1537H80.154H80.1543H80.1546H80.1549H80.1552H80.1556H80.1559H80.1562H80.1565H80.1568H80.1571H80.1574H80.1577H80.1581H80.1584H80.1587H80.159H80.1594H80.1597H80.16H80.1603H80.1607H80.161H80.1613H80.1617H80.162H80.1624H80.1627H80.1631H80.1634H80.1637H80.1641H80.1644H80.1648H80.1652H80.1655H80.1659H80.1662H80.1666H80.167H80.1673H80.1677H80.168H80.1684H80.1688H80.1692H80.1695H80.1699H80.1703H80.1707H80.171H80.1714H80.1718H80.1722H80.1726H80.173H80.1733H80.1737H80.1741H80.1745H80.1749H80.1753H80.1757H80.1761H80.1765H80.1769H80.1773H80.1777H80.1781H80.1785H80.1789H80.1793H80.1798H80.1802H80.1806H80.181H80.1814H80.1818H80.1823H80.1827H80.1831H80.1835H80.1839H80.1844H80.1848H80.1852H80.1857H80.1861H80.1865H80.187H80.1874H80.1878H80.1883H80.1887H80.1892H80.1896H80.19H80.1905H80.1909H80.1914H80.1918H80.1923H80.1927H80.1932H80.1936H80.1941H80.1946H80.195H80.1955H80.1959H80.1964H80.1969H80.1973H80.1978H80.1983H80.1987H80.1992H80.1997H80.2001H80.2006H80.2011H80.2016H80.202H80.2025H80.203H80.2035H80.204H80.2044H80.2049H80.2054H80.2059H80.2064H80.2069H80.2074H80.2079H80.2083H80.2088H80.2093H80.2098H80.2103H80.2108H80.2113H80.2118H80.2123H80.2128H80.2133H80.2138H80.2143H80.2148H80.2153H80.2159H80.2164H80.2169H80.2174H80.2179H80.2184H80.2189H80.2194H80.22H80.2205H80.221H80.2215H80.222H80.2225H80.2231H80.2236H80.2241H80.2246H80.2252H80.2257H80.2262H80.2268H80.2273H80.2278H80.2283H80.2289H80.2294H80.2299H80.2305H80.231H80.2316H80.2321H80.2326H80.2332H80.2337H80.2343H80.2348H80.2353H80.2359H80.2364H80.237H80.2375H80.2381H80.2386H80.2392H80.2397H80.2403H80.2408H80.2414H80.2419H80.2425H80.243H80.2436H80.2441H80.2447H80.2453H80.2458H80.2464H80.2469H80.2475H80.2481H80.2486H80.2492H80.2498H80.2503H80.2509H80.2515H80.252H80.2526H80.2532H80.2537H80.2543H80.2549H80.2554H80.256H80.2566H80.2572H80.2577H80.2583H80.2589H80.2595H80.26H80.2606H80.2612H80.2618H80.2624H80.2629H80.2635H80.2641H80.2647H80.2653H80.2659H80.2664H80.267H80.2676H80.2682H80.2688H80.2694H80.27H80.2705H80.2711H80.2717H80.2723H80.2729H80.2735H80.2741H80.2747H80.2753H80.2759H80.2765H80.2771H80.2776H80.2782H80.2788H80.2794H80.28H80.2806H80.2812H80.2818H80.2824H80.283H80.2836H80.2842H80.2848H80.2854H80.286H80.2866H80.2872H80.2878H80.2884H80.289H80.2896H80.2903H80.2909H80.2915H80.2921H80.2927H80.2933H80.2939H80.2945H80.2951H80.2957H80.2963H80.2969H80.2975H80.2982H80.2988H80.2994H80.3H80.3006H80.3012H80.3018H80.3024H80.303H80.3037H80.3043H80.3049H80.3055H80.3061H80.3067H80.3073H80.308H80.3086H80.3092H80.3098H80.3104H80.311H80.3117H80.3123H80.3129H80.3135H80.3141H80.3147H80.3154H80.316H80.3166H80.3172H80.3178H80.3185H80.3191H80.3197H80.3203H80.3209H80.3216H80.3222H80.3228H80.3234H80.324H80.3247H80.3253H80.3259H80.3265H80.3271H80.3278H80.3284H80.329H80.3296H80.3303H80.3309H80.3315H80.3321H80.3327H80.3334H80.334H80.3346H80.3352H80.3359H80.3365H80.3371H80.3377H80.3383H80.339H80.3396H80.3402H80.3408H80.3415H80.3421H80.3427H80.3433H80.344H80.3446H80.3717L80.395 17.9353L84.7581 15.3855ZM80.4496 12.9712L83.977 15.0842L80.2396 17.202L76.7122 15.089L80.4496 12.9712Z" fill="#1271CD" stroke="#1271CD" stroke-width="0.2"/>
<path d="M76.2942 15.1927V15.1146L76.2184 15.0956L75.7928 14.9894L75.6686 14.9584V15.0864V18.38C75.6686 18.3824 75.6686 18.3848 75.6685 18.3873C75.6685 18.4346 75.6684 18.5021 75.687 18.5578C75.6978 18.5899 75.7169 18.6259 75.7521 18.6532C75.7799 18.6748 75.8119 18.6865 75.8451 18.6907L80.0818 21.1228L80.105 21.1361H80.1316L80.1358 21.1361C80.2432 21.1361 80.3858 21.1362 80.5215 21.0006L80.5509 20.9713V20.9299V20.8236V17.53V17.43H80.4509H79.9188H79.8188V17.53V20.2265L76.2942 18.2157V15.1927Z" fill="#1271CD" stroke="#1271CD" stroke-width="0.2"/>
<path d="M80.7904 20.136L80.7289 20.2422L80.8454 20.2809L81.1646 20.3872L81.1962 20.3977L81.2278 20.3872L81.547 20.2809L81.5834 20.2688L81.6024 20.2355L84.2628 15.5608L84.315 15.469L84.2206 15.4218L83.7949 15.2094L83.7305 15.1772L83.6796 15.2281L83.5731 15.3343L83.5638 15.3436L83.5573 15.355L80.7904 20.136Z" fill="#1271CD" stroke="#1271CD" stroke-width="0.2"/>
<path d="M72.2767 15.2493L72.2297 15.3305L72.3079 15.3826L72.6271 15.5951L72.6825 15.632L72.7379 15.5951L73.0572 15.3826L73.0769 15.3694L73.0887 15.3488L75.7491 10.6741L75.8013 10.5823L75.7068 10.5351L75.2812 10.3226L75.2168 10.2905L75.1659 10.3413L75.0595 10.4476L75.0501 10.4569L75.0436 10.4683L72.2767 15.2493Z" fill="#1271CD" stroke="#1271CD" stroke-width="0.2"/>
</svg>
